<svg width="20" height="20" viewBox="0 0 20 20" fill="none" xmlns="http://www.w3.org/2000/svg">
<g clip-path="url(#clip0_814_20349)">
<path fill-rule="evenodd" clip-rule="evenodd" d="M3.7098 8.67739C4.24652 8.67739 4.50225 8.5202 4.59847 8.43048C4.68506 8.34991 4.70523 8.27549 4.64078 8.21648C4.55581 8.13847 4.42783 8.12235 4.27759 8.11772C4.15993 8.29682 3.89354 8.5682 3.7098 8.67739ZM16.2896 8.67739C15.7528 8.67739 15.4971 8.5202 15.4009 8.43048C15.3143 8.34991 15.2941 8.27549 15.3586 8.21648C15.4435 8.13847 15.5715 8.12235 15.7218 8.11772C15.8394 8.29682 16.1058 8.5682 16.2896 8.67739ZM18.5883 6.56643C18.5898 6.57072 18.5914 6.57513 18.5931 6.57942L18.5883 6.56643ZM1.41104 6.56643C1.40954 6.57072 1.40791 6.57513 1.40629 6.57942L1.41104 6.56643ZM9.99968 16.3257C9.44521 16.3257 8.90652 16.2575 8.39182 16.1292C8.14004 16.3313 7.86437 16.3798 7.56494 16.2743C4.89581 15.2851 2.99339 12.716 2.99339 9.70262C2.99339 9.49442 3.00244 9.28831 3.02029 9.08475C3.47784 9.08475 3.79419 9.13633 3.99984 9.28773C4.11402 9.37166 4.28142 9.59736 4.24618 9.80208C4.23482 9.86816 3.93944 9.62008 3.73635 9.70262C3.67688 9.72673 3.76254 9.88671 3.83894 9.958C3.9726 10.0826 4.13709 10.0626 4.13756 10.1237C4.13802 10.2002 3.99532 10.1614 3.8649 10.3427C3.78121 10.4592 3.74318 10.5759 3.77159 10.6171C3.7921 10.6468 3.86038 10.6411 3.94802 10.6222C4.05687 10.5988 4.12063 10.5377 4.14474 10.5501C4.16051 10.5582 4.14602 10.6342 4.13408 10.704C4.12399 10.7635 4.14277 10.8293 4.18277 10.8363C4.22427 10.8437 4.27956 10.8006 4.31561 10.7456C4.3701 10.6619 4.42632 10.6105 4.45043 10.6221C4.46689 10.6301 4.50387 10.8734 4.70535 11.0221C4.76377 11.0652 4.81872 11.075 4.8448 11.0691C4.89871 11.0568 4.91946 10.875 4.9023 10.7566C4.88491 10.6363 4.7647 10.5635 4.77838 10.5215C4.78661 10.4961 5.07619 10.5213 5.04952 10.3798C5.04257 10.343 4.95238 10.3317 4.88167 10.2413C4.76887 10.097 4.61435 10.1743 4.61075 10.1078C4.60774 10.0528 4.99724 10.0913 5.10749 9.80301C5.14157 9.71386 4.99365 9.77043 4.91818 9.71247C4.72274 9.56224 4.58189 9.76742 4.53598 9.73508C4.48996 9.70262 4.55198 9.43762 4.4291 9.26234C4.25591 9.01519 3.90536 8.90913 3.73901 8.90913C4.54132 8.90913 4.70697 8.82937 4.97151 8.60564C5.10899 8.48925 5.17287 8.25764 5.13623 8.12861C5.10343 8.01373 5.00373 7.89109 4.88619 7.86871C4.74638 7.84217 4.5827 7.83475 4.41461 7.83313C4.44684 7.7208 4.45704 7.59734 4.44695 7.44026C4.43629 7.2731 4.37937 7.10722 4.25707 6.98955C4.13953 6.87641 3.93852 6.85265 3.77866 6.94944C3.55585 7.08426 3.32969 7.32156 3.13215 7.541C3.0073 7.383 2.96638 7.17306 2.95827 6.92707C2.95062 6.69859 3.10004 6.40947 3.20171 6.398C3.34221 6.382 3.39437 6.59623 3.54588 6.69499C3.70308 6.79747 3.81019 6.77289 3.93446 6.7176C3.97955 6.67447 3.94744 6.61929 3.95521 6.54557C4.11321 6.49305 4.31295 6.59669 4.43525 6.31187C4.41508 6.25761 4.35097 6.24649 4.31202 6.19513C4.39328 6.13149 4.57435 6.11758 4.67799 5.77306C4.63197 5.67846 4.41148 5.73805 4.41473 5.62259C4.41705 5.54318 4.14764 5.57645 4.06394 5.5783C4.21395 5.54399 4.44348 5.4931 4.33578 5.2718C4.47802 5.14985 4.48799 4.93586 4.4859 4.88277C4.43049 4.85123 4.4036 4.87651 4.32292 4.85564C4.39096 4.72453 4.50468 4.64246 4.3184 4.33943C3.87325 4.29283 3.82097 4.48666 3.75501 4.52329C3.72255 4.49941 3.69948 4.3865 3.68082 4.3807C3.43668 4.37456 3.34916 4.67306 3.32343 4.7389C3.27242 4.75351 3.1849 4.63562 3.14189 4.67538C3.05993 4.75131 3.14375 5.03474 3.13957 5.17941C3.13065 4.99567 2.99977 4.83095 2.89289 4.88184C2.8471 4.90375 2.63589 4.63817 2.51498 4.66819C2.44995 4.6843 2.39697 4.80208 2.3739 4.8801C2.32881 5.03312 2.38016 5.14869 2.35756 5.17999C2.32208 5.22903 2.19526 5.1764 2.15654 5.21431C2.1278 5.24259 2.10693 5.45253 2.12907 5.66119C2.05928 5.66838 1.97663 5.69005 1.91647 5.73608C1.76843 5.84922 1.74374 6.03075 1.72183 6.0384C1.67709 6.05405 1.58168 5.93917 1.53798 5.94682C1.48547 5.9561 1.3991 6.06147 1.37858 6.14888C1.33998 6.3143 1.43504 6.54267 1.40641 6.57942C1.36282 6.63541 1.02142 6.40217 0.97378 6.48575C0.764307 6.85323 1.01482 7.0219 1.0118 7.06722C1.00705 7.13909 0.848583 7.10837 0.836991 7.17944C0.795142 7.43586 1.0933 7.66782 1.25165 7.66562C1.30926 7.66481 1.4799 7.53022 1.57171 7.58644C1.65773 7.63919 1.75313 8.38828 2.28244 8.44381C2.63612 8.48079 2.92512 8.2406 3.16322 7.97884C3.21713 8.0062 3.27659 8.03078 3.34267 8.05431C3.54496 8.12618 3.75246 8.12293 3.91695 8.11749C3.84856 8.2137 3.75744 8.30493 3.64094 8.38585C3.15719 8.72145 2.28568 8.67739 2.08143 8.67739H1.28677L0.879419 9.08475C0.865856 9.28889 0.8589 9.495 0.8589 9.70262C0.8589 14.1119 3.98083 17.792 8.13482 18.6529C8.54901 18.7464 8.78642 18.9248 8.84694 19.1881C9.22484 19.2336 9.60959 19.257 9.99968 19.257C10.3898 19.257 10.7745 19.2336 11.1524 19.1881C11.2129 18.9248 11.4503 18.7464 11.8645 18.6529C16.0185 17.792 19.1405 14.1119 19.1405 9.70262C19.1405 9.495 19.1335 9.28889 19.1199 9.08475L18.7126 8.67739H17.9179C17.7137 8.67739 16.8422 8.72145 16.3584 8.38585C16.2419 8.30493 16.1508 8.2137 16.0824 8.11749C16.2469 8.12293 16.4544 8.12618 16.6567 8.05431C16.7228 8.03078 16.7822 8.0062 16.8361 7.97884C17.0742 8.2406 17.3632 8.48079 17.7169 8.44381C18.2462 8.38828 18.3416 7.63919 18.4276 7.58644C18.5195 7.53022 18.6901 7.66481 18.7477 7.66562C18.9061 7.66782 19.2042 7.43586 19.1624 7.17944C19.1508 7.10837 18.9923 7.13909 18.9875 7.06722C18.9845 7.0219 19.235 6.85323 19.0256 6.48575C18.9779 6.40217 18.6365 6.63541 18.5929 6.57942C18.5643 6.54267 18.6594 6.3143 18.6208 6.14888C18.6002 6.06147 18.5139 5.9561 18.4614 5.94682C18.4177 5.93917 18.3223 6.05405 18.2775 6.0384C18.2556 6.03075 18.2309 5.84922 18.0829 5.73608C18.0227 5.69005 17.9401 5.66838 17.8703 5.66119C17.8924 5.45253 17.8716 5.24259 17.8428 5.21431C17.8041 5.1764 17.6773 5.22903 17.6418 5.17999C17.6192 5.14869 17.6705 5.03312 17.6255 4.8801C17.6024 4.80208 17.5494 4.6843 17.4844 4.66819C17.3635 4.63817 17.1523 4.90375 17.1065 4.88184C16.9996 4.83095 16.8687 4.99567 16.8598 5.17941C16.8556 5.03474 16.9394 4.75131 16.8575 4.67538C16.8145 4.63562 16.7269 4.75351 16.6759 4.7389C16.6502 4.67306 16.5627 4.37456 16.3185 4.3807C16.2999 4.3865 16.2768 4.49941 16.2443 4.52329C16.1784 4.48666 16.1261 4.29283 15.681 4.33943C15.4947 4.64246 15.6084 4.72453 15.6764 4.85564C15.5958 4.87651 15.5689 4.85123 15.5134 4.88277C15.5114 4.93586 15.5213 5.14985 15.6636 5.2718C15.5559 5.4931 15.7854 5.54399 15.9354 5.5783C15.8517 5.57645 15.5823 5.54318 15.5846 5.62259C15.5879 5.73805 15.3674 5.67846 15.3214 5.77306C15.425 6.11758 15.6061 6.13149 15.6873 6.19513C15.6484 6.24649 15.5843 6.25761 15.5641 6.31187C15.6864 6.59669 15.8861 6.49305 16.0441 6.54557C16.0519 6.61929 16.0198 6.67447 16.0649 6.7176C16.1892 6.77289 16.2963 6.79747 16.4535 6.69499C16.605 6.59623 16.6571 6.382 16.7976 6.398C16.8993 6.40947 17.0487 6.69859 17.0411 6.92707C17.033 7.17306 16.992 7.383 16.8672 7.541C16.6697 7.32156 16.4435 7.08426 16.2207 6.94944C16.0608 6.85265 15.8598 6.87641 15.7423 6.98955C15.62 7.10722 15.5631 7.2731 15.5524 7.44026C15.5423 7.59734 15.5525 7.7208 15.5847 7.83313C15.4167 7.83475 15.253 7.84217 15.1132 7.86871C14.9956 7.89109 14.8959 8.01373 14.8631 8.12861C14.8265 8.25764 14.8904 8.48925 15.0278 8.60564C15.2924 8.82937 15.458 8.90913 16.2603 8.90913C16.094 8.90913 15.7434 9.01519 15.5702 9.26234C15.4474 9.43762 15.5094 9.70262 15.4634 9.73508C15.4175 9.76742 15.2766 9.56224 15.0812 9.71247C15.0057 9.77043 14.8578 9.71386 14.8919 9.80301C15.0021 10.0913 15.3916 10.0528 15.3886 10.1078C15.385 10.1743 15.2305 10.097 15.1177 10.2413C15.047 10.3317 14.9568 10.343 14.9498 10.3798C14.9232 10.5213 15.2127 10.4961 15.221 10.5215C15.2347 10.5635 15.1144 10.6363 15.097 10.7566C15.0799 10.875 15.1006 11.0568 15.1545 11.0691C15.1806 11.075 15.2356 11.0652 15.294 11.0221C15.4955 10.8734 15.5325 10.6301 15.5489 10.6221C15.573 10.6105 15.6293 10.6619 15.6837 10.7456C15.7198 10.8006 15.7751 10.8437 15.8166 10.8363C15.8566 10.8293 15.8754 10.7635 15.8653 10.704C15.8533 10.6342 15.8388 10.5582 15.8546 10.5501C15.8787 10.5377 15.9425 10.5988 16.0513 10.6222C16.139 10.6411 16.2072 10.6468 16.2278 10.6171C16.2562 10.5759 16.2181 10.4592 16.1344 10.3427C16.004 10.1614 15.8613 10.2002 15.8618 10.1237C15.8623 10.0626 16.0268 10.0826 16.1604 9.958C16.2368 9.88671 16.3225 9.72673 16.263 9.70262C16.0599 9.62008 15.7645 9.86816 15.7532 9.80208C15.7179 9.59736 15.8853 9.37166 15.9995 9.28773C16.2052 9.13633 16.5215 9.08475 16.9791 9.08475C16.9969 9.28831 17.006 9.49442 17.006 9.70262C17.006 12.716 15.1035 15.2851 12.4344 16.2743C12.135 16.3798 11.8593 16.3313 11.6075 16.1292C11.0928 16.2575 10.5541 16.3257 9.99968 16.3257ZM17.0862 7.78548C17.1419 7.71952 17.1906 7.63942 17.2359 7.53903C17.2842 7.43215 17.3122 7.2971 17.3186 7.13295C17.3887 7.19103 17.4575 7.2272 17.4615 7.25015C17.4728 7.31541 17.3323 7.29733 17.3519 7.36062C17.3871 7.47411 17.4752 7.6247 17.6471 7.65495C17.7665 7.67593 17.933 7.44432 18.0175 7.60337C18.086 7.73216 17.9599 7.99055 17.7713 8.08874C17.6861 8.13302 17.514 8.14264 17.3247 8.01455C17.2615 7.97165 17.1801 7.88854 17.0862 7.78548ZM17.4935 6.18076C17.3948 6.4206 17.6583 6.64712 17.6445 6.70856C17.6367 6.74298 17.4243 6.67366 17.2902 6.68595C17.2451 6.42744 17.1578 6.27697 17.2106 6.20684C17.2362 6.17299 17.3598 6.2022 17.4935 6.18076ZM15.9462 7.83336C15.9105 7.70271 15.9092 7.57299 15.9363 7.45661C15.9921 7.21827 16.1808 7.32133 16.3218 7.41499C16.4099 7.47353 16.5099 7.59317 16.6241 7.73077C16.5871 7.74862 16.5469 7.76473 16.5033 7.77911C16.3634 7.82501 16.163 7.83266 15.9462 7.83336ZM2.91317 7.78548C2.85742 7.71952 2.80873 7.63942 2.7634 7.53903C2.71518 7.43215 2.68712 7.2971 2.68075 7.13295C2.61062 7.19103 2.54187 7.2272 2.53782 7.25015C2.52657 7.31541 2.66707 7.29733 2.64748 7.36062C2.61224 7.47411 2.52414 7.6247 2.35222 7.65495C2.23282 7.67593 2.06636 7.44432 1.98185 7.60337C1.91334 7.73216 2.03946 7.99055 2.22807 8.08874C2.31327 8.13302 2.4853 8.14264 2.67461 8.01455C2.7379 7.97165 2.81928 7.88854 2.91317 7.78548ZM2.50582 6.18076C2.60459 6.4206 2.34109 6.64712 2.35489 6.70856C2.36266 6.74298 2.57503 6.67366 2.70915 6.68595C2.75424 6.42744 2.84153 6.27697 2.78879 6.20684C2.76317 6.17299 2.6396 6.2022 2.50582 6.18076ZM4.05316 7.83336C4.08887 7.70271 4.09014 7.57299 4.06302 7.45661C4.00726 7.21827 3.81854 7.32133 3.67757 7.41499C3.58947 7.47353 3.48943 7.59317 3.37524 7.73077C3.41222 7.74862 3.45245 7.76473 3.49604 7.77911C3.63596 7.82501 3.83639 7.83266 4.05316 7.83336Z" fill="#FFDF00"/>
<path d="M18.5883 6.56643C18.5898 6.57072 18.5914 6.57513 18.5931 6.57942M1.41104 6.56643C1.40954 6.57072 1.40791 6.57513 1.40629 6.57942M3.7098 8.67739C4.24652 8.67739 4.50225 8.5202 4.59847 8.43048C4.68506 8.34991 4.70523 8.27549 4.64078 8.21648C4.55581 8.13847 4.42783 8.12235 4.27759 8.11772C4.15993 8.29682 3.89354 8.5682 3.7098 8.67739ZM16.2896 8.67739C15.7528 8.67739 15.4971 8.5202 15.4009 8.43048C15.3143 8.34991 15.2941 8.27549 15.3586 8.21648C15.4435 8.13847 15.5715 8.12235 15.7218 8.11772C15.8394 8.29682 16.1058 8.5682 16.2896 8.67739ZM9.99968 16.3257C9.44521 16.3257 8.90652 16.2575 8.39182 16.1292C8.14004 16.3313 7.86437 16.3798 7.56494 16.2743C4.89581 15.2851 2.99339 12.716 2.99339 9.70262C2.99339 9.49442 3.00244 9.28831 3.02029 9.08475C3.47784 9.08475 3.79419 9.13633 3.99984 9.28773C4.11402 9.37166 4.28142 9.59736 4.24618 9.80208C4.23482 9.86816 3.93944 9.62008 3.73635 9.70262C3.67688 9.72673 3.76254 9.88671 3.83894 9.958C3.9726 10.0826 4.13709 10.0626 4.13756 10.1237C4.13802 10.2002 3.99532 10.1614 3.8649 10.3427C3.78121 10.4592 3.74318 10.5759 3.77159 10.6171C3.7921 10.6468 3.86038 10.6411 3.94802 10.6222C4.05687 10.5988 4.12063 10.5377 4.14474 10.5501C4.16051 10.5582 4.14602 10.6342 4.13408 10.704C4.12399 10.7635 4.14277 10.8293 4.18277 10.8363C4.22427 10.8437 4.27956 10.8006 4.31561 10.7456C4.3701 10.6619 4.42632 10.6105 4.45043 10.6221C4.46689 10.6301 4.50387 10.8734 4.70535 11.0221C4.76377 11.0652 4.81872 11.075 4.8448 11.0691C4.89871 11.0568 4.91946 10.875 4.9023 10.7566C4.88491 10.6363 4.7647 10.5635 4.77838 10.5215C4.78661 10.4961 5.07619 10.5213 5.04952 10.3798C5.04257 10.343 4.95238 10.3317 4.88167 10.2413C4.76887 10.097 4.61435 10.1743 4.61075 10.1078C4.60774 10.0528 4.99724 10.0913 5.10749 9.80301C5.14157 9.71386 4.99365 9.77043 4.91818 9.71247C4.72274 9.56224 4.58189 9.76742 4.53598 9.73508C4.48996 9.70262 4.55198 9.43762 4.4291 9.26234C4.25591 9.01519 3.90536 8.90913 3.73901 8.90913C4.54132 8.90913 4.70697 8.82937 4.97151 8.60564C5.10899 8.48925 5.17287 8.25764 5.13623 8.12861C5.10343 8.01373 5.00373 7.89109 4.88619 7.86871C4.74638 7.84217 4.5827 7.83475 4.41461 7.83313C4.44684 7.7208 4.45704 7.59734 4.44695 7.44026C4.43629 7.2731 4.37937 7.10722 4.25707 6.98955C4.13953 6.87641 3.93852 6.85265 3.77866 6.94944C3.55585 7.08426 3.32969 7.32156 3.13215 7.541C3.0073 7.383 2.96638 7.17306 2.95827 6.92707C2.95062 6.69859 3.10004 6.40947 3.20171 6.398C3.34221 6.382 3.39437 6.59623 3.54588 6.69499C3.70308 6.79747 3.81019 6.77289 3.93446 6.7176C3.97955 6.67447 3.94744 6.61929 3.95521 6.54557C4.11321 6.49305 4.31295 6.59669 4.43525 6.31187C4.41508 6.25761 4.35097 6.24649 4.31202 6.19513C4.39328 6.13149 4.57435 6.11758 4.67799 5.77306C4.63197 5.67846 4.41148 5.73805 4.41473 5.62259C4.41705 5.54318 4.14764 5.57645 4.06394 5.5783C4.21395 5.54399 4.44348 5.4931 4.33578 5.2718C4.47802 5.14985 4.48799 4.93586 4.4859 4.88277C4.43049 4.85123 4.4036 4.87651 4.32292 4.85564C4.39096 4.72453 4.50468 4.64246 4.3184 4.33943C3.87325 4.29283 3.82097 4.48666 3.75501 4.52329C3.72255 4.49941 3.69948 4.3865 3.68082 4.3807C3.43668 4.37456 3.34916 4.67306 3.32343 4.7389C3.27242 4.75351 3.1849 4.63562 3.14189 4.67538C3.05993 4.75131 3.14375 5.03474 3.13957 5.17941C3.13065 4.99567 2.99977 4.83095 2.89289 4.88184C2.8471 4.90375 2.63589 4.63817 2.51498 4.66819C2.44995 4.6843 2.39697 4.80208 2.3739 4.8801C2.32881 5.03312 2.38016 5.14869 2.35756 5.17999C2.32208 5.22903 2.19526 5.1764 2.15654 5.21431C2.1278 5.24259 2.10693 5.45253 2.12907 5.66119C2.05928 5.66838 1.97663 5.69005 1.91647 5.73608C1.76843 5.84922 1.74374 6.03075 1.72183 6.0384C1.67709 6.05405 1.58168 5.93917 1.53798 5.94682C1.48547 5.9561 1.3991 6.06147 1.37858 6.14888C1.33998 6.3143 1.43504 6.54267 1.40641 6.57942C1.36282 6.63541 1.02142 6.40217 0.97378 6.48575C0.764307 6.85323 1.01482 7.0219 1.0118 7.06722C1.00705 7.13909 0.848583 7.10837 0.836991 7.17944C0.795142 7.43586 1.0933 7.66782 1.25165 7.66562C1.30926 7.66481 1.4799 7.53022 1.57171 7.58644C1.65773 7.63919 1.75313 8.38828 2.28244 8.44381C2.63612 8.48079 2.92512 8.2406 3.16322 7.97884C3.21713 8.0062 3.27659 8.03078 3.34267 8.05431C3.54496 8.12618 3.75246 8.12293 3.91695 8.11749C3.84856 8.2137 3.75744 8.30493 3.64094 8.38585C3.15719 8.72145 2.28568 8.67739 2.08143 8.67739H1.28677L0.879419 9.08475C0.865856 9.28889 0.8589 9.495 0.8589 9.70262C0.8589 14.1119 3.98083 17.792 8.13482 18.6529C8.54901 18.7464 8.78642 18.9248 8.84694 19.1881C9.22484 19.2336 9.60959 19.257 9.99968 19.257C10.3898 19.257 10.7745 19.2336 11.1524 19.1881C11.2129 18.9248 11.4503 18.7464 11.8645 18.6529C16.0185 17.792 19.1405 14.1119 19.1405 9.70262C19.1405 9.495 19.1335 9.28889 19.1199 9.08475L18.7126 8.67739H17.9179C17.7137 8.67739 16.8422 8.72145 16.3584 8.38585C16.2419 8.30493 16.1508 8.2137 16.0824 8.11749C16.2469 8.12293 16.4544 8.12618 16.6567 8.05431C16.7228 8.03078 16.7822 8.0062 16.8361 7.97884C17.0742 8.2406 17.3632 8.48079 17.7169 8.44381C18.2462 8.38828 18.3416 7.63919 18.4276 7.58644C18.5195 7.53022 18.6901 7.66481 18.7477 7.66562C18.9061 7.66782 19.2042 7.43586 19.1624 7.17944C19.1508 7.10837 18.9923 7.13909 18.9875 7.06722C18.9845 7.0219 19.235 6.85323 19.0256 6.48575C18.9779 6.40217 18.6365 6.63541 18.5929 6.57942C18.5643 6.54267 18.6594 6.3143 18.6208 6.14888C18.6002 6.06147 18.5139 5.9561 18.4614 5.94682C18.4177 5.93917 18.3223 6.05405 18.2775 6.0384C18.2556 6.03075 18.2309 5.84922 18.0829 5.73608C18.0227 5.69005 17.9401 5.66838 17.8703 5.66119C17.8924 5.45253 17.8716 5.24259 17.8428 5.21431C17.8041 5.1764 17.6773 5.22903 17.6418 5.17999C17.6192 5.14869 17.6705 5.03312 17.6255 4.8801C17.6024 4.80208 17.5494 4.6843 17.4844 4.66819C17.3635 4.63817 17.1523 4.90375 17.1065 4.88184C16.9996 4.83095 16.8687 4.99567 16.8598 5.17941C16.8556 5.03474 16.9394 4.75131 16.8575 4.67538C16.8145 4.63562 16.7269 4.75351 16.6759 4.7389C16.6502 4.67306 16.5627 4.37456 16.3185 4.3807C16.2999 4.3865 16.2768 4.49941 16.2443 4.52329C16.1784 4.48666 16.1261 4.29283 15.681 4.33943C15.4947 4.64246 15.6084 4.72453 15.6764 4.85564C15.5958 4.87651 15.5689 4.85123 15.5134 4.88277C15.5114 4.93586 15.5213 5.14985 15.6636 5.2718C15.5559 5.4931 15.7854 5.54399 15.9354 5.5783C15.8517 5.57645 15.5823 5.54318 15.5846 5.62259C15.5879 5.73805 15.3674 5.67846 15.3214 5.77306C15.425 6.11758 15.6061 6.13149 15.6873 6.19513C15.6484 6.24649 15.5843 6.25761 15.5641 6.31187C15.6864 6.59669 15.8861 6.49305 16.0441 6.54557C16.0519 6.61929 16.0198 6.67447 16.0649 6.7176C16.1892 6.77289 16.2963 6.79747 16.4535 6.69499C16.605 6.59623 16.6571 6.382 16.7976 6.398C16.8993 6.40947 17.0487 6.69859 17.0411 6.92707C17.033 7.17306 16.992 7.383 16.8672 7.541C16.6697 7.32156 16.4435 7.08426 16.2207 6.94944C16.0608 6.85265 15.8598 6.87641 15.7423 6.98955C15.62 7.10722 15.5631 7.2731 15.5524 7.44026C15.5423 7.59734 15.5525 7.7208 15.5847 7.83313C15.4167 7.83475 15.253 7.84217 15.1132 7.86871C14.9956 7.89109 14.8959 8.01373 14.8631 8.12861C14.8265 8.25764 14.8904 8.48925 15.0278 8.60564C15.2924 8.82937 15.458 8.90913 16.2603 8.90913C16.094 8.90913 15.7434 9.01519 15.5702 9.26234C15.4474 9.43762 15.5094 9.70262 15.4634 9.73508C15.4175 9.76742 15.2766 9.56224 15.0812 9.71247C15.0057 9.77043 14.8578 9.71386 14.8919 9.80301C15.0021 10.0913 15.3916 10.0528 15.3886 10.1078C15.385 10.1743 15.2305 10.097 15.1177 10.2413C15.047 10.3317 14.9568 10.343 14.9498 10.3798C14.9232 10.5213 15.2127 10.4961 15.221 10.5215C15.2347 10.5635 15.1144 10.6363 15.097 10.7566C15.0799 10.875 15.1006 11.0568 15.1545 11.0691C15.1806 11.075 15.2356 11.0652 15.294 11.0221C15.4955 10.8734 15.5325 10.6301 15.5489 10.6221C15.573 10.6105 15.6293 10.6619 15.6837 10.7456C15.7198 10.8006 15.7751 10.8437 15.8166 10.8363C15.8566 10.8293 15.8754 10.7635 15.8653 10.704C15.8533 10.6342 15.8388 10.5582 15.8546 10.5501C15.8787 10.5377 15.9425 10.5988 16.0513 10.6222C16.139 10.6411 16.2072 10.6468 16.2278 10.6171C16.2562 10.5759 16.2181 10.4592 16.1344 10.3427C16.004 10.1614 15.8613 10.2002 15.8618 10.1237C15.8623 10.0626 16.0268 10.0826 16.1604 9.958C16.2368 9.88671 16.3225 9.72673 16.263 9.70262C16.0599 9.62008 15.7645 9.86816 15.7532 9.80208C15.7179 9.59736 15.8853 9.37166 15.9995 9.28773C16.2052 9.13633 16.5215 9.08475 16.9791 9.08475C16.9969 9.28831 17.006 9.49442 17.006 9.70262C17.006 12.716 15.1035 15.2851 12.4344 16.2743C12.135 16.3798 11.8593 16.3313 11.6075 16.1292C11.0928 16.2575 10.5541 16.3257 9.99968 16.3257ZM17.0862 7.78548C17.1419 7.71952 17.1906 7.63942 17.2359 7.53903C17.2842 7.43215 17.3122 7.2971 17.3186 7.13295C17.3887 7.19103 17.4575 7.2272 17.4615 7.25015C17.4728 7.31541 17.3323 7.29733 17.3519 7.36062C17.3871 7.47411 17.4752 7.6247 17.6471 7.65495C17.7665 7.67593 17.933 7.44432 18.0175 7.60337C18.086 7.73216 17.9599 7.99055 17.7713 8.08874C17.6861 8.13302 17.514 8.14264 17.3247 8.01455C17.2615 7.97165 17.1801 7.88854 17.0862 7.78548ZM17.4935 6.18076C17.3948 6.4206 17.6583 6.64712 17.6445 6.70856C17.6367 6.74298 17.4243 6.67366 17.2902 6.68595C17.2451 6.42744 17.1578 6.27697 17.2106 6.20684C17.2362 6.17299 17.3598 6.2022 17.4935 6.18076ZM15.9462 7.83336C15.9105 7.70271 15.9092 7.57299 15.9363 7.45661C15.9921 7.21827 16.1808 7.32133 16.3218 7.41499C16.4099 7.47353 16.5099 7.59317 16.6241 7.73077C16.5871 7.74862 16.5469 7.76473 16.5033 7.77911C16.3634 7.82501 16.163 7.83266 15.9462 7.83336ZM2.91317 7.78548C2.85742 7.71952 2.80873 7.63942 2.7634 7.53903C2.71518 7.43215 2.68712 7.2971 2.68075 7.13295C2.61062 7.19103 2.54187 7.2272 2.53782 7.25015C2.52657 7.31541 2.66707 7.29733 2.64748 7.36062C2.61224 7.47411 2.52414 7.6247 2.35222 7.65495C2.23282 7.67593 2.06636 7.44432 1.98185 7.60337C1.91334 7.73216 2.03946 7.99055 2.22807 8.08874C2.31327 8.13302 2.4853 8.14264 2.67461 8.01455C2.7379 7.97165 2.81928 7.88854 2.91317 7.78548ZM2.50582 6.18076C2.60459 6.4206 2.34109 6.64712 2.35489 6.70856C2.36266 6.74298 2.57503 6.67366 2.70915 6.68595C2.75424 6.42744 2.84153 6.27697 2.78879 6.20684C2.76317 6.17299 2.6396 6.2022 2.50582 6.18076ZM4.05316 7.83336C4.08887 7.70271 4.09014 7.57299 4.06302 7.45661C4.00726 7.21827 3.81854 7.32133 3.67757 7.41499C3.58947 7.47353 3.48943 7.59317 3.37524 7.73077C3.41222 7.74862 3.45245 7.76473 3.49604 7.77911C3.63596 7.82501 3.83639 7.83266 4.05316 7.83336Z" stroke="black" stroke-width="0.111286" stroke-miterlimit="22.9256" stroke-linejoin="round"/>
<path fill-rule="evenodd" clip-rule="evenodd" d="M18.7477 9.08475H17.351C17.368 9.28842 17.3765 9.49454 17.3765 9.70262C17.3765 12.7909 15.4541 15.556 12.5624 16.6223C12.2022 16.7552 11.8454 16.7165 11.5318 16.5281C11.0289 16.6405 10.5149 16.6966 9.99931 16.6966C9.48369 16.6966 8.96968 16.6405 8.46681 16.5281C8.15324 16.7165 7.79642 16.7552 7.43625 16.6223C4.54455 15.556 2.62208 12.7909 2.62208 9.70262C2.62208 9.49454 2.63066 9.28842 2.64758 9.08475H1.25094C1.23668 9.28877 1.22949 9.49488 1.22949 9.70262C1.22949 13.857 4.15192 17.442 8.21027 18.2899C8.57311 18.3657 8.92262 18.5319 9.10497 18.843C9.40219 18.8718 9.70069 18.8861 9.99931 18.8861C10.2979 18.8861 10.5964 18.8718 10.8937 18.843C11.076 18.5319 11.4255 18.3657 11.7884 18.2899C15.8467 17.442 18.7691 13.857 18.7691 9.70262C18.7691 9.49488 18.7619 9.28877 18.7477 9.08475Z" fill="#A2260B"/>
<path fill-rule="evenodd" clip-rule="evenodd" d="M4.59737 11.3872C4.54938 11.3644 4.51484 11.3225 4.49003 11.2908C4.39578 11.1699 4.41282 11.0884 4.37596 11.087C4.33098 11.0854 4.28508 11.254 4.2168 11.3327C4.2183 11.3875 4.21239 11.4425 4.22804 11.4949C4.24114 11.5392 4.27754 11.598 4.29957 11.6021C4.32808 11.6076 4.42082 11.5812 4.46568 11.5474C4.52225 11.5049 4.54973 11.4395 4.59737 11.3872Z" fill="#FFDF00" stroke="black" stroke-width="0.111286" stroke-miterlimit="22.9256" stroke-linecap="round" stroke-linejoin="round"/>
<path fill-rule="evenodd" clip-rule="evenodd" d="M4.70601 11.0219C4.50454 10.8733 4.46756 10.63 4.4511 10.622C4.42698 10.6104 4.37076 10.6618 4.31628 10.7455C4.28023 10.8005 4.22493 10.8435 4.18343 10.8362C4.14344 10.8292 4.12466 10.7634 4.13474 10.7038C4.14668 10.6341 4.16117 10.5581 4.14541 10.55C4.12129 10.5376 4.05754 10.5987 3.94868 10.6221C3.90603 10.7016 3.84296 10.7941 3.82882 10.8833C3.81503 10.9706 3.82499 11.0418 3.87936 11.1115C3.89768 11.1351 3.97917 11.0931 4.00549 11.1187C4.02601 11.1388 3.98416 11.1977 3.99169 11.3041C3.99413 11.3372 4.04177 11.4136 4.07945 11.4225C4.10251 11.4278 4.15422 11.407 4.21855 11.3328C4.28683 11.2541 4.33274 11.0855 4.37772 11.0871C4.41458 11.0885 4.39754 11.17 4.49178 11.2909C4.51659 11.3226 4.55114 11.3645 4.59913 11.3873C4.61443 11.3946 4.63993 11.4058 4.6564 11.3939C4.68735 11.3718 4.70694 11.3072 4.71007 11.2632C4.7183 11.1469 4.70984 11.0944 4.70601 11.0219Z" fill="#FFDF00" stroke="black" stroke-width="0.111286" stroke-miterlimit="22.9256" stroke-linecap="round" stroke-linejoin="round"/>
<path fill-rule="evenodd" clip-rule="evenodd" d="M15.4004 11.3872C15.4484 11.3644 15.4829 11.3225 15.5077 11.2908C15.602 11.1699 15.5849 11.0884 15.6218 11.087C15.6668 11.0854 15.7127 11.254 15.781 11.3327C15.7795 11.3875 15.7854 11.4425 15.7697 11.4949C15.7566 11.5392 15.7202 11.598 15.6982 11.6021C15.6697 11.6076 15.5769 11.5812 15.5321 11.5474C15.4755 11.5049 15.448 11.4395 15.4004 11.3872Z" fill="#FFDF00" stroke="black" stroke-width="0.111286" stroke-miterlimit="22.9256" stroke-linecap="round" stroke-linejoin="round"/>
<path fill-rule="evenodd" clip-rule="evenodd" d="M15.2946 11.0219C15.4961 10.8733 15.5331 10.63 15.5496 10.622C15.5737 10.6104 15.6299 10.6618 15.6844 10.7455C15.7204 10.8005 15.7757 10.8435 15.8172 10.8362C15.8572 10.8292 15.876 10.7634 15.8659 10.7038C15.854 10.6341 15.8395 10.5581 15.8552 10.55C15.8794 10.5376 15.9431 10.5987 16.052 10.6221C16.0946 10.7016 16.1577 10.7941 16.1718 10.8833C16.1856 10.9706 16.1757 11.0418 16.1213 11.1115C16.103 11.1351 16.0215 11.0931 15.9952 11.1187C15.9746 11.1388 16.0165 11.1977 16.009 11.3041C16.0065 11.3372 15.9589 11.4136 15.9212 11.4225C15.8981 11.4278 15.8464 11.407 15.7821 11.3328C15.7138 11.2541 15.6679 11.0855 15.6229 11.0871C15.5861 11.0885 15.6031 11.17 15.5089 11.2909C15.4841 11.3226 15.4495 11.3645 15.4015 11.3873C15.3862 11.3946 15.3607 11.4058 15.3443 11.3939C15.3133 11.3718 15.2937 11.3072 15.2906 11.2632C15.2824 11.1469 15.2908 11.0944 15.2946 11.0219Z" fill="#FFDF00" stroke="black" stroke-width="0.111286" stroke-miterlimit="22.9256" stroke-linecap="round" stroke-linejoin="round"/>
<path d="M3.37324 7.73077C3.3074 7.81018 3.2368 7.89561 3.16122 7.97885M2.12695 5.66119C2.19083 5.6547 2.24392 5.66038 2.25887 5.6707C2.28612 5.68948 2.33144 5.78013 2.33793 5.8724C2.34663 5.99865 2.30756 6.07886 2.32576 6.12083C2.35068 6.17833 2.46487 6.10193 2.49327 6.15792C2.49721 6.16546 2.50069 6.17311 2.50382 6.18064M2.70715 6.68595C2.75781 6.69059 2.79722 6.70682 2.81032 6.74473C2.87431 6.93113 2.77531 7.05285 2.67875 7.13295M2.91117 7.78549C2.97829 7.71176 3.05202 7.62771 3.13015 7.541" stroke="black" stroke-width="0.111286" stroke-miterlimit="22.9256" stroke-linecap="round" stroke-linejoin="round"/>
<path d="M4.27568 8.11797C4.21331 8.116 4.147 8.116 4.07826 8.11438C4.03143 8.11334 3.97625 8.11565 3.91504 8.11774M4.05125 7.83361C4.16926 7.83396 4.29214 7.83222 4.4127 7.83338" stroke="black" stroke-width="0.111286" stroke-miterlimit="22.9256" stroke-linecap="round" stroke-linejoin="round"/>
<path d="M16.624 7.73077C16.6899 7.81018 16.7605 7.89561 16.836 7.97885M17.8703 5.66119C17.8064 5.6547 17.7533 5.66038 17.7384 5.6707C17.7112 5.68948 17.6658 5.78013 17.6593 5.8724C17.6506 5.99865 17.6897 6.07886 17.6715 6.12083C17.6466 6.17833 17.5324 6.10193 17.504 6.15792C17.5001 6.16546 17.4966 6.17311 17.4934 6.18064M17.2901 6.68595C17.2395 6.69059 17.2 6.70682 17.1869 6.74473C17.123 6.93113 17.222 7.05285 17.3185 7.13295M17.0861 7.78549C17.019 7.71176 16.9452 7.62771 16.8671 7.541" stroke="black" stroke-width="0.111286" stroke-miterlimit="22.9256" stroke-linecap="round" stroke-linejoin="round"/>
<path d="M15.723 8.11797C15.7853 8.116 15.8516 8.116 15.9204 8.11438C15.9672 8.11334 16.0224 8.11565 16.0836 8.11774M15.9474 7.83361C15.8294 7.83396 15.7065 7.83222 15.5859 7.83338" stroke="black" stroke-width="0.111286" stroke-miterlimit="22.9256" stroke-linecap="round" stroke-linejoin="round"/>
<path fill-rule="evenodd" clip-rule="evenodd" d="M9.99822 16.0605C9.90548 16.0605 9.84103 16.059 9.76209 16.0345C9.45257 15.0869 8.93057 14.9519 7.94383 14.9594C6.42188 14.971 4.98199 13.9949 5.04726 12.0198C5.57703 11.7049 5.6511 10.9784 5.73468 10.2307C5.78105 9.81626 5.77387 9.11528 5.68032 8.57507C5.52324 7.6674 5.29 7.21785 4.52734 7.19976C5.07079 4.58743 4.52734 7.19976 5.07079 4.58743C5.70709 4.58743 6.44402 4.43488 7.22302 3.7187C7.83649 3.15474 8.88536 2.73533 9.99822 3.58644C11.1111 2.73533 12.16 3.15474 12.7734 3.7187C13.5524 4.43488 14.2894 4.58743 14.9257 4.58743C15.4691 7.19976 14.9257 4.58743 15.4691 7.19976C14.7064 7.21785 14.4732 7.6674 14.3161 8.57507C14.2226 9.11528 14.2154 9.81626 14.2618 10.2307C14.3453 10.9784 14.4194 11.7049 14.9492 12.0198C15.0145 13.9949 13.5746 14.971 12.0526 14.9594C11.0659 14.9519 10.5439 15.0869 10.2344 16.0345C10.1554 16.059 10.091 16.0605 9.99822 16.0605Z" fill="#FFDF00" stroke="black" stroke-width="0.111286" stroke-miterlimit="22.9256"/>
<path fill-rule="evenodd" clip-rule="evenodd" d="M9.62776 8.35933V7.90908L7.96612 6.2515H7.36447L6.46387 7.1521L7.21702 7.90514H7.81878L8.34472 7.3792L7.74308 6.77744L7.36447 7.1521L7.59157 7.3792L7.74308 7.22768L7.89042 7.3792L7.59157 7.67793L7.06562 7.1521L7.74308 6.47859L9.62776 8.35933Z" fill="#A2260B"/>
<path fill-rule="evenodd" clip-rule="evenodd" d="M10.3701 8.35933V7.90908L12.0277 6.2515H12.6293L13.534 7.1521L12.7809 7.90514H12.1791L11.6532 7.3792L12.2548 6.77744L12.6293 7.1521L12.4063 7.3792L12.2548 7.22768L12.1034 7.3792L12.4063 7.67793L12.9323 7.1521L12.2548 6.47859L10.3701 8.35933Z" fill="#A2260B"/>
<path fill-rule="evenodd" clip-rule="evenodd" d="M12.2569 1.31946V0.747955L12.8333 1.31946L13.4048 0.747955V1.31946H13.9812L13.4048 1.89571L13.9812 2.46721H13.4048V3.04358L12.8333 2.46721L12.2569 3.04358V2.46721H11.6855L12.2569 1.89571L11.6855 1.31946H12.2569Z" fill="#FFDF00"/>
<path fill-rule="evenodd" clip-rule="evenodd" d="M12.2569 1.31946V0.747955L12.8333 1.31946L13.4048 0.747955V1.31946H13.9812L13.4048 1.89571L13.9812 2.46721H13.4048V3.04358L12.8333 2.46721L12.2569 3.04358V2.46721H11.6855L12.2569 1.89571L11.6855 1.31946H12.2569ZM12.4424 1.19229V1.31946V1.50493H12.2569H12.1299L12.3882 1.7653L12.5183 1.89664L12.3882 2.02682L12.1332 2.28174H12.2569H12.4424V2.46721V2.59589L12.7022 2.3361L12.8335 2.20476L12.9644 2.3368L13.2193 2.59392V2.46721V2.28174H13.4048H13.5314L13.2744 2.02682L13.1424 1.89594L13.2737 1.7646L13.5334 1.50493H13.4048H13.2193V1.31946V1.19577L12.9644 1.45057L12.8342 1.58075L12.7029 1.45057L12.4424 1.19229Z" fill="#A2260B"/>
<path fill-rule="evenodd" clip-rule="evenodd" d="M9.42197 1.31958V0.74321L9.99846 1.31958L10.5698 0.74321V1.31958H11.1463L10.5698 1.89097L11.1463 2.46734H10.5698V3.03884L9.99846 2.46734L9.42197 3.03884V2.46734H8.85059L9.42197 1.89097L8.85059 1.31958H9.42197Z" fill="#FFDF00"/>
<path fill-rule="evenodd" clip-rule="evenodd" d="M9.42197 1.31958V0.74321L9.99846 1.31958L10.5698 0.74321V1.31958H11.1463L10.5698 1.89097L11.1463 2.46734H10.5698V3.03884L9.99846 2.46734L9.42197 3.03884V2.46734H8.85059L9.42197 1.89097L8.85059 1.31958H9.42197ZM9.60745 1.19091V1.31958V1.50506H9.42197H9.2984L9.5532 1.75986L9.68338 1.89004L9.5532 2.02138L9.29492 2.28186H9.42197H9.60745V2.46734V2.5945L9.86804 2.33623L9.99938 2.20604L10.1296 2.33623L10.3844 2.59103V2.46734V2.28186H10.5698H10.6985L10.4387 2.02207L10.3074 1.89073L10.4394 1.75986L10.6964 1.50506H10.5698H10.3844V1.31958V1.19299L10.1296 1.44999L9.99869 1.58203L9.86735 1.45069L9.60745 1.19091Z" fill="#A2260B"/>
<path fill-rule="evenodd" clip-rule="evenodd" d="M6.59395 1.31946V0.747955L7.16545 1.31946L7.7417 0.747955V1.31946H8.31321L7.7417 1.89571L8.31321 2.46721H7.7417V3.04358L7.16545 2.46721L6.59395 3.04358V2.46721H6.01758L6.59395 1.89571L6.01758 1.31946H6.59395Z" fill="#FFDF00"/>
<path fill-rule="evenodd" clip-rule="evenodd" d="M6.59395 1.31946V0.747955L7.16545 1.31946L7.7417 0.747955V1.31946H8.31321L7.7417 1.89571L8.31321 2.46721H7.7417V3.04358L7.16545 2.46721L6.59395 3.04358V2.46721H6.01758L6.59395 1.89571L6.01758 1.31946H6.59395ZM6.77943 1.19565V1.31946V1.50493H6.59395H6.46539L6.72506 1.7646L6.8564 1.89594L6.72436 2.02682L6.46724 2.28174H6.59395H6.77943V2.46721V2.59392L7.03422 2.3368L7.16522 2.20476L7.29656 2.3361L7.55623 2.59589V2.46721V2.28174H7.7417H7.86539L7.61059 2.02682L7.48041 1.89664L7.61059 1.7653L7.86887 1.50493H7.7417H7.55623V1.31946V1.19229L7.29586 1.45057L7.16452 1.58075L7.03422 1.45057L6.77943 1.19565Z" fill="#A2260B"/>
<path fill-rule="evenodd" clip-rule="evenodd" d="M9.99877 6.16008L9.53345 6.6254L9.99958 7.09152L10.4661 6.62725L9.99877 6.16008ZM9.99877 6.02885L9.40234 6.6254L9.99923 7.22228L10.5972 6.62725L9.99877 6.02885Z" fill="black"/>
<path fill-rule="evenodd" clip-rule="evenodd" d="M6.00177 11.348H8.98668V8.97203L8.24442 9.71429L8.17881 9.78002L8.11331 9.71394L7.44791 9.0424L7.42079 9.01492V8.97713V8.23012H7.12333H7.08496L7.05771 8.20288L6.07271 7.218L6.00722 7.1525L6.07271 7.08689L7.20517 5.95444L7.23229 5.92731H7.27078H7.79522V5.40241V5.36427L7.82281 5.3368L8.95955 4.20515L9.02516 4.13989L9.09031 4.20515L10.0026 5.11747L10.9153 4.20481L10.9809 4.13919L11.0464 4.20481L12.1789 5.33714L12.206 5.36427V5.40276V5.92731H12.7262H12.7641L12.7915 5.95444L13.9286 7.08654L13.9944 7.15215L13.9289 7.21765L12.9436 8.20288L12.9164 8.23012H12.878H12.5805V8.97713V9.01492L12.5534 9.0424L11.888 9.71394L11.8225 9.78002L11.7569 9.71429L11.0146 8.97203V11.348H13.9995C13.9088 11.0227 13.8705 10.6771 13.8354 10.3601L13.8266 10.2802C13.7964 10.0113 13.7875 9.70432 13.7976 9.39701C13.8078 9.08459 13.8376 8.77264 13.8845 8.50092C13.9536 8.10191 14.0466 7.73594 14.2163 7.44231C14.3783 7.16236 14.6074 6.95045 14.947 6.84125C14.8924 6.57926 14.8372 6.31426 14.7687 5.98318C14.7199 5.74693 14.6546 5.43406 14.5901 5.12385L14.5666 5.01198C14.1781 4.9757 13.8193 4.87971 13.4821 4.7253C13.1255 4.56208 12.7942 4.33429 12.4778 4.04344C12.1394 3.7323 11.768 3.56514 11.3907 3.54706C11.0166 3.52909 10.6336 3.65742 10.2681 3.93691L10.0568 4.0985L10.0007 4.1414L9.94455 4.0985L9.73322 3.93691C9.36772 3.65742 8.98471 3.52909 8.61062 3.54706C8.23329 3.56514 7.86187 3.7323 7.52349 4.04344C7.20714 4.33429 6.87583 4.56208 6.51925 4.7253C6.18203 4.87971 5.82325 4.9757 5.43467 5.01198L5.41126 5.12385C5.34669 5.43406 5.28142 5.74693 5.23262 5.98318C5.16411 6.31426 5.10893 6.57926 5.05433 6.84125C5.39387 6.95045 5.62305 7.16236 5.78499 7.44231C5.9547 7.73594 6.04768 8.10191 6.11677 8.50092C6.16371 8.77264 6.19351 9.08459 6.20371 9.39701C6.21379 9.70432 6.20487 10.0113 6.17473 10.2802L6.1658 10.3602C6.13079 10.6773 6.09254 11.0228 6.00177 11.348ZM4.94629 6.90605C5.66536 7.09187 5.89048 7.73722 6.02542 8.51645C6.11769 9.04912 6.1425 9.73515 6.08268 10.2701C6.04107 10.6429 6.00073 11.0635 5.87704 11.4407H9.07941V8.89007L9.00847 8.81913L8.17892 9.64879L7.51352 8.97713V8.13739H7.12333L6.13833 7.1525L7.27078 6.02005H7.88796V5.40241L9.02481 4.27077L10.0026 5.24858L10.9809 4.2703L12.1134 5.40276V6.02005H12.7262L13.8633 7.15204L12.878 8.13739H12.4878V8.97713L11.8224 9.64879L10.9928 8.81913L10.9219 8.89007V11.4407H14.1243C14.0006 11.0635 13.9602 10.6429 13.9186 10.2701C13.8588 9.73515 13.8836 9.04912 13.9759 8.51645C14.1108 7.73722 14.336 7.09187 15.055 6.90605C14.9896 6.59236 14.9241 6.27856 14.8592 5.96475C14.7876 5.61826 14.7154 5.27188 14.6431 4.9255C13.8338 4.86534 13.1594 4.54446 12.5405 3.97539C11.834 3.32576 10.9822 3.27441 10.2119 3.86341L10.0007 4.02489L9.78944 3.86341C9.01913 3.27441 8.16733 3.32576 7.46078 3.97539C6.84187 4.54446 6.16754 4.86534 5.35816 4.9255C5.28594 5.27188 5.21372 5.61826 5.14208 5.96475C5.07717 6.27856 5.01167 6.59236 4.94629 6.90605Z" fill="black"/>
<path fill-rule="evenodd" clip-rule="evenodd" d="M10.3701 11.9912V8.6625L11.5018 7.53085L12.2548 8.27995V8.88159L11.8205 9.32001L11.1431 8.64256L11.5178 8.26801L11.7449 8.49116L11.5933 8.64256L11.7449 8.79395L12.0318 8.50704L11.5018 7.9811L10.6889 8.79395V11.6724H14.2132C14.2653 11.7862 14.3277 11.8934 14.4034 11.9912H10.3701Z" fill="#A2260B"/>
<path fill-rule="evenodd" clip-rule="evenodd" d="M9.62902 11.9912V8.6625L8.49738 7.53085L7.74434 8.27995V8.88159L8.17859 9.32001L8.85604 8.64256L8.48138 8.26801L8.25429 8.49116L8.4058 8.64256L8.25429 8.79395L7.96738 8.50704L8.49738 7.9811L9.31023 8.79395V11.6724H5.78593C5.73388 11.7862 5.6714 11.8934 5.5957 11.9912H9.62902Z" fill="#A2260B"/>
<path fill-rule="evenodd" clip-rule="evenodd" d="M14.6054 12.1999H10.1598V7.82123L11.8813 6.09977V5.49813L10.9807 4.59764L10.2275 5.35079V5.94849L10.7536 6.47444L11.3552 5.87268L10.9807 5.49825L10.7575 5.72523L10.909 5.87674L10.7575 6.02813L10.4547 5.72928L10.9807 5.20334L11.6581 5.88079L10.0004 7.53038L8.3468 5.87674L9.02425 5.19928L9.55019 5.72523L9.24729 6.02408L9.09589 5.87268L9.24729 5.72117L9.02425 5.49407L8.6497 5.86862L9.25134 6.47026L9.77729 5.94432V5.35079L9.02425 4.59764L8.11959 5.49813V6.09977L9.84105 7.82123V12.1999H5.39551C5.40838 12.9816 5.69679 13.6974 6.36463 14.1575C6.82438 14.4743 7.38915 14.6161 7.94338 14.6118C8.95481 14.6041 9.61418 14.7677 10.0004 15.6738C10.3867 14.7677 11.0461 14.6041 12.0575 14.6118C12.6117 14.6161 13.1765 14.4743 13.6363 14.1575C14.3041 13.6974 14.5925 12.9816 14.6054 12.1999Z" fill="#A2260B"/>
<path fill-rule="evenodd" clip-rule="evenodd" d="M8.54951 17.564L8.57026 17.4323L8.68225 17.585L8.83468 17.4742L8.81382 17.6059L8.94655 17.6268L8.79284 17.7386L8.9047 17.8913L8.77197 17.8702L8.75087 18.0029L8.64028 17.8493L8.48657 17.9611L8.50755 17.8283L8.37598 17.8075L8.52842 17.6967L8.41782 17.5431L8.54951 17.564Z" fill="#FFDF00"/>
<path fill-rule="evenodd" clip-rule="evenodd" d="M1.1372 6.8257C1.12514 6.78663 1.16084 6.8002 1.18067 6.81214C1.28106 6.8723 1.33971 6.95716 1.43628 7.02335C1.51221 7.0754 1.62732 7.12791 1.70348 7.1795C1.75483 7.21427 1.76747 7.25264 1.70058 7.24951C1.57121 7.24349 1.45506 7.17868 1.35815 7.10913C1.26436 7.04178 1.17151 6.93664 1.1372 6.8257Z" fill="black"/>
<path fill-rule="evenodd" clip-rule="evenodd" d="M1.79977 7.21943C1.75978 7.21085 1.7869 7.18152 1.80916 7.17492C1.91349 7.14396 2.03336 7.10896 2.13827 7.05702C2.2208 7.01633 2.4239 6.94434 2.49786 6.93878C2.5287 6.93646 2.54492 6.952 2.52012 6.9797C2.43758 7.0714 2.30473 7.13284 2.19669 7.18338C2.09213 7.2323 1.91326 7.24366 1.79977 7.21943Z" fill="black"/>
<path fill-rule="evenodd" clip-rule="evenodd" d="M2.00568 6.04083C2.03501 5.98089 2.07651 5.98263 2.06631 6.03955C2.03999 6.1855 1.96279 6.40169 1.88918 6.73231C1.85672 6.87814 1.79818 7.35574 1.77812 7.44547C1.76502 7.50401 1.73917 7.52789 1.71054 7.42958C1.67449 7.30532 1.72654 6.87744 1.75355 6.76129C1.7976 6.5728 1.82078 6.41897 2.00568 6.04083Z" fill="black"/>
<path fill-rule="evenodd" clip-rule="evenodd" d="M2.67372 5.30018C2.67662 5.25508 2.70815 5.28325 2.72392 5.30331C2.80367 5.4052 2.83057 5.51591 2.90406 5.62244C2.96179 5.70614 3.05975 5.80583 3.11806 5.88918C3.15724 5.9454 3.15504 5.99003 3.08722 5.96036C2.95623 5.90286 2.86198 5.79018 2.78953 5.68006C2.7194 5.57352 2.66526 5.42815 2.67372 5.30018Z" fill="black"/>
<path fill-rule="evenodd" clip-rule="evenodd" d="M3.20216 5.96959C3.16425 5.94502 3.20401 5.92543 3.2294 5.9274C3.34938 5.93667 3.48686 5.94803 3.61577 5.93609C3.71697 5.92659 3.95508 5.93273 4.03356 5.95626C4.06625 5.966 4.0768 5.98849 4.04017 6.00727C3.91879 6.06929 3.75743 6.08007 3.62597 6.08946C3.49869 6.09862 3.30962 6.03961 3.20216 5.96959Z" fill="black"/>
<path fill-rule="evenodd" clip-rule="evenodd" d="M3.88375 4.83483C3.93777 4.78452 3.97985 4.80272 3.94681 4.85755C3.86184 4.9977 3.69677 5.19014 3.48996 5.5022C3.39873 5.6398 3.14938 6.10941 3.09315 6.19415C3.05652 6.24933 3.02035 6.26382 3.02986 6.15102C3.04168 6.00844 3.26472 5.58752 3.33856 5.47855C3.45866 5.30142 3.5434 5.15188 3.88375 4.83483Z" fill="black"/>
<path fill-rule="evenodd" clip-rule="evenodd" d="M18.8622 6.8257C18.8742 6.78663 18.8385 6.8002 18.8187 6.81214C18.7183 6.8723 18.6597 6.95716 18.5631 7.02335C18.4872 7.0754 18.3721 7.12791 18.2959 7.1795C18.2445 7.21427 18.2319 7.25264 18.2988 7.24951C18.4282 7.24349 18.5443 7.17868 18.6412 7.10913C18.735 7.04178 18.8279 6.93664 18.8622 6.8257Z" fill="black"/>
<path fill-rule="evenodd" clip-rule="evenodd" d="M18.1983 7.21943C18.2383 7.21085 18.2111 7.18152 18.1889 7.17492C18.0846 7.14396 17.9647 7.10896 17.8598 7.05702C17.7772 7.01633 17.5741 6.94434 17.5002 6.93878C17.4694 6.93646 17.4531 6.952 17.4779 6.9797C17.5605 7.0714 17.6933 7.13284 17.8014 7.18338C17.9059 7.2323 18.0848 7.24366 18.1983 7.21943Z" fill="black"/>
<path fill-rule="evenodd" clip-rule="evenodd" d="M17.9929 6.04083C17.9635 5.98089 17.922 5.98263 17.9322 6.03955C17.9586 6.1855 18.0358 6.40169 18.1094 6.73231C18.1418 6.87814 18.2004 7.35574 18.2204 7.44547C18.2335 7.50401 18.2594 7.52789 18.288 7.42958C18.3241 7.30532 18.272 6.87744 18.245 6.76129C18.201 6.5728 18.1778 6.41897 17.9929 6.04083Z" fill="black"/>
<path fill-rule="evenodd" clip-rule="evenodd" d="M17.3245 5.30018C17.3216 5.25508 17.2901 5.28325 17.2743 5.30331C17.1945 5.4052 17.1677 5.51591 17.0942 5.62244C17.0364 5.70614 16.9385 5.80583 16.8802 5.88918C16.841 5.9454 16.8432 5.99003 16.911 5.96036C17.042 5.90286 17.1362 5.79018 17.2087 5.68006C17.2788 5.57352 17.333 5.42815 17.3245 5.30018Z" fill="black"/>
<path fill-rule="evenodd" clip-rule="evenodd" d="M16.7966 5.96959C16.8345 5.94502 16.7948 5.92543 16.7694 5.9274C16.6494 5.93667 16.5119 5.94803 16.383 5.93609C16.2818 5.92659 16.0437 5.93273 15.9652 5.95626C15.9325 5.966 15.922 5.98849 15.9586 6.00727C16.08 6.06929 16.2414 6.08007 16.3728 6.08946C16.5001 6.09862 16.6892 6.03961 16.7966 5.96959Z" fill="black"/>
<path fill-rule="evenodd" clip-rule="evenodd" d="M16.1177 4.83483C16.0637 4.78452 16.0216 4.80272 16.0547 4.85755C16.1396 4.9977 16.3047 5.19014 16.5115 5.5022C16.6027 5.6398 16.8521 6.10941 16.9083 6.19415C16.9449 6.24933 16.9811 6.26382 16.9716 6.15102C16.9598 6.00844 16.7367 5.58752 16.6629 5.47855C16.5428 5.30142 16.4581 5.15188 16.1177 4.83483Z" fill="black"/>
<path d="M2.03881 9.68861C2.12576 9.6864 2.20922 9.6864 2.27089 9.69336L2.27437 9.6922C2.27437 9.6922 2.26962 9.64374 2.26869 9.60688C2.26776 9.57106 2.27008 9.52249 2.27008 9.52249L2.26649 9.5204C2.20064 9.53049 2.12193 9.53466 2.03499 9.53686L2.00833 9.53756C1.89356 9.54046 1.80314 9.58706 1.80627 9.70715C1.80766 9.76396 1.82598 9.85577 1.87733 9.92903L1.76095 9.93204C1.674 9.93425 1.59158 9.93204 1.52875 9.9252L1.52539 9.92636C1.52539 9.92636 1.53014 9.97691 1.53107 10.0138C1.532 10.0496 1.5298 10.1004 1.5298 10.1004L1.53327 10.1023C1.59912 10.0923 1.67783 10.086 1.76477 10.0838L2.04867 10.0766C2.13561 10.0744 2.21907 10.0766 2.28075 10.0834L2.28422 10.0823C2.28422 10.0823 2.27947 10.0317 2.27854 9.99487C2.27762 9.95905 2.27982 9.90828 2.27982 9.90828L2.27623 9.90631C2.21038 9.91639 2.13178 9.92265 2.04484 9.92486L1.93935 9.92752C1.89855 9.86701 1.89345 9.80801 1.89275 9.77995C1.89078 9.70402 1.92185 9.69162 2.01679 9.68919L2.03881 9.68861ZM2.43203 10.4702C2.42936 10.4354 2.44756 10.415 2.46727 10.4135C2.47295 10.413 2.48002 10.4136 2.48234 10.4134C2.49973 10.4121 2.51537 10.3897 2.51352 10.3655C2.51143 10.3372 2.49439 10.3279 2.47248 10.3295C2.41232 10.3341 2.37928 10.4043 2.38461 10.4738C2.38983 10.5431 2.43307 10.6075 2.49323 10.6029C2.51514 10.6013 2.53056 10.5896 2.52847 10.5612C2.52662 10.5369 2.50761 10.5172 2.49034 10.5186C2.48802 10.5187 2.48118 10.5204 2.47538 10.5207C2.45567 10.5222 2.43458 10.5048 2.43203 10.4702ZM1.88255 10.5992C1.87977 10.5694 1.87664 10.5364 1.87478 10.5114C1.87246 10.4809 1.86945 10.4346 1.86852 10.4015L2.12819 10.4807L2.12865 10.4869C2.03673 10.5315 1.95407 10.5681 1.88255 10.5992ZM1.8014 10.3819C1.80535 10.4218 1.81103 10.4838 1.81392 10.5213C1.81647 10.5551 1.81868 10.5916 1.82053 10.6261C1.67864 10.6862 1.59367 10.7158 1.56886 10.724C1.57373 10.7417 1.57744 10.791 1.57883 10.8089C1.58022 10.8269 1.58474 10.8868 1.58266 10.9049C1.69533 10.8434 2.07278 10.6687 2.319 10.5591L2.31181 10.4645C2.04751 10.383 1.79352 10.2987 1.52991 10.2119C1.53443 10.2242 1.53698 10.2589 1.53791 10.2705C1.53872 10.282 1.54058 10.3052 1.53803 10.3181C1.60793 10.3295 1.70136 10.3534 1.8014 10.3819ZM2.27982 11.0632C2.31749 11.0565 2.33303 11.0644 2.34798 11.1484C2.35841 11.2066 2.3343 11.2473 2.23461 11.2652C2.15126 11.28 2.10999 11.266 2.09457 11.1798L2.08008 11.0988L2.27982 11.0632ZM2.01957 11.1096L2.03684 11.2062C2.05852 11.3276 1.96393 11.3638 1.88267 11.3783C1.80395 11.3924 1.75017 11.3945 1.72536 11.2554C1.71237 11.1827 1.72513 11.1622 1.7628 11.1555L2.01957 11.1096ZM2.37557 10.9733C2.36931 10.9379 2.3634 10.8854 2.3634 10.8854L2.35969 10.8839C2.29605 10.9038 2.21919 10.9219 2.13364 10.9371L1.85403 10.9871C1.76848 11.0024 1.68664 11.0127 1.62358 11.0153L1.62033 11.0171C1.62033 11.0171 1.63308 11.0683 1.63957 11.1047C1.65291 11.1794 1.65372 11.204 1.67018 11.2963C1.70716 11.5029 1.83606 11.5591 1.93425 11.5416C2.0438 11.522 2.0926 11.433 2.10501 11.3376C2.14303 11.3854 2.21316 11.4286 2.27588 11.4174C2.35239 11.4038 2.4435 11.3339 2.40907 11.1408C2.40258 11.1045 2.38728 11.0386 2.37557 10.9733ZM2.15323 11.9584C2.14442 11.9296 2.1348 11.898 2.12808 11.874C2.11973 11.8445 2.10756 11.7998 2.10002 11.7675L2.37024 11.7932L2.37198 11.7992C2.29072 11.8615 2.21699 11.9136 2.15323 11.9584ZM2.03024 11.7617C2.04218 11.7999 2.06003 11.8595 2.07035 11.8959C2.07962 11.9284 2.08901 11.9637 2.0977 11.9972C1.97065 12.0844 1.89333 12.1303 1.87073 12.1434C1.87896 12.1596 1.89252 12.2074 1.89739 12.2245C1.90226 12.2418 1.91872 12.2997 1.92022 12.3179C2.01853 12.2351 2.35343 11.9888 2.57287 11.8321L2.54691 11.7408C2.2717 11.7137 2.00589 11.6818 1.73034 11.6492C1.73718 11.6605 1.74669 11.694 1.74993 11.7051C1.75306 11.7163 1.75944 11.7386 1.75956 11.7517C1.83015 11.7488 1.9266 11.7538 2.03024 11.7617ZM2.4886 13.1479L2.75279 13.0437C2.8337 13.0118 2.90812 12.9858 2.97269 12.9695L2.97513 12.9662C2.97513 12.9662 2.9538 12.9214 2.94058 12.888C2.92702 12.8537 2.91253 12.8073 2.91253 12.8073L2.90882 12.8075C2.8548 12.8379 2.77794 12.8705 2.69703 12.9023L2.44257 13.0027C2.42426 13.01 2.31599 13.0515 2.28735 13.0549C2.27657 13.0557 2.2673 13.0514 2.26034 13.0338L2.21432 12.9171C2.20737 12.8993 2.21119 12.8899 2.21965 12.8831C2.24284 12.8661 2.3503 12.8226 2.36862 12.8154L2.62318 12.715C2.7041 12.6831 2.78246 12.6545 2.84274 12.6398L2.84552 12.6375C2.84552 12.6375 2.82454 12.5936 2.81098 12.5593C2.79788 12.5259 2.78293 12.4785 2.78293 12.4785L2.77887 12.4778C2.72056 12.5099 2.64834 12.5418 2.56742 12.5737L2.31297 12.6741C2.29466 12.6813 2.18638 12.7229 2.15775 12.7261C2.14697 12.7271 2.13781 12.7228 2.13074 12.705L2.08553 12.5903C2.07858 12.5727 2.08229 12.5632 2.09086 12.5564C2.11405 12.5394 2.22151 12.4958 2.23983 12.4886L2.49439 12.3882C2.57519 12.3563 2.65367 12.3277 2.71384 12.313L2.71673 12.3108C2.71673 12.3108 2.69575 12.267 2.68219 12.2325C2.66897 12.1993 2.65402 12.1519 2.65402 12.1519L2.65008 12.1512C2.59165 12.1833 2.51955 12.2152 2.43863 12.247L2.17444 12.3511C2.09353 12.383 2.01621 12.4113 1.95489 12.4264L1.95199 12.4287C1.95199 12.4287 1.97343 12.4735 1.987 12.5079L2.24504 13.1622C2.25814 13.1956 2.27275 13.242 2.27275 13.242L2.27669 13.2427C2.33511 13.2106 2.40768 13.1799 2.4886 13.1479ZM3.13046 13.4668C3.15956 13.4501 3.1788 13.4487 3.21671 13.5145C3.24778 13.5684 3.25589 13.6222 3.13626 13.691C3.03483 13.7493 2.96643 13.7281 2.93583 13.6749C2.92261 13.652 2.90407 13.6127 2.9043 13.5968L3.13046 13.4668ZM2.94023 13.4035L2.69401 13.545C2.61866 13.5884 2.54517 13.6257 2.48674 13.6496L2.48419 13.6523C2.48419 13.6523 2.51248 13.6944 2.53091 13.7264C2.54876 13.7575 2.56986 13.8013 2.56986 13.8013H2.57392C2.62701 13.7611 2.69332 13.7182 2.76867 13.6749L2.85306 13.6263C2.85758 13.6504 2.87195 13.6824 2.89039 13.7144C2.98602 13.8807 3.13023 13.8781 3.23375 13.8186C3.27027 13.7976 3.31988 13.7521 3.32962 13.6783C3.33565 13.6318 3.31652 13.5766 3.27919 13.5115C3.26551 13.4878 3.1948 13.3811 3.17903 13.3537C3.16118 13.3226 3.13893 13.277 3.13893 13.277L3.13487 13.2769C3.08178 13.3171 3.01558 13.3601 2.94023 13.4035ZM3.09024 14.2083L3.19851 14.1389C3.22587 14.1816 3.29125 14.2899 3.32371 14.3556L3.32834 14.3564C3.33599 14.3489 3.35489 14.3356 3.3637 14.3299C3.37251 14.3244 3.39152 14.3134 3.40149 14.3094L3.40277 14.3049C3.36428 14.2556 3.32521 14.2056 3.25809 14.1008L3.32927 14.0551C3.34585 14.0444 3.43523 13.9884 3.4627 13.9796C3.53898 14.0986 3.61375 14.241 3.61375 14.241L3.61885 14.2403C3.62603 14.2344 3.64887 14.2185 3.65768 14.2129C3.66545 14.2079 3.67855 14.2003 3.69292 14.1928L3.69478 14.1891C3.68365 14.1762 3.66962 14.1564 3.65768 14.1377L3.48461 13.8678C3.46525 13.8376 3.43975 13.7914 3.43975 13.7914L3.43569 13.7915C3.38457 13.8343 3.32058 13.8803 3.24731 13.9272L3.00828 14.0805C2.93502 14.1274 2.86349 14.1683 2.80623 14.195L2.80391 14.1978C2.80391 14.1978 2.83521 14.2402 2.85515 14.2713L3.0339 14.5501C3.04584 14.5687 3.0579 14.5898 3.06508 14.6053L3.06914 14.6051C3.0812 14.5956 3.09337 14.5872 3.10322 14.5809C3.11296 14.5747 3.14959 14.5524 3.15794 14.5482L3.16072 14.5439C3.16072 14.5439 3.04711 14.4139 2.97084 14.2949C2.99031 14.2737 3.07366 14.219 3.09024 14.2083ZM3.96963 14.514C3.91039 14.4386 3.83238 14.3865 3.74706 14.3697C3.63948 14.3485 3.51684 14.3843 3.41656 14.4631C3.32092 14.5384 3.25473 14.6493 3.25786 14.7528C3.2603 14.8314 3.28337 14.894 3.33866 14.9643C3.39674 15.0382 3.48739 15.1009 3.6214 15.1084L3.6367 15.0641C3.52217 15.0534 3.47093 15.02 3.4103 14.9429C3.33924 14.8525 3.38503 14.7066 3.54014 14.5846C3.72515 14.4393 3.86147 14.4796 3.91492 14.5476C3.97357 14.6223 3.96986 14.6963 3.92187 14.789L3.94227 14.8132C3.99108 14.7796 4.02133 14.7621 4.07385 14.7367L4.07524 14.7329C4.07524 14.7329 4.04915 14.6152 3.96963 14.514ZM4.55377 15.1921L4.22768 14.8501C4.20298 14.8241 4.17053 14.7852 4.17053 14.7852L4.16728 14.7868C4.12787 14.8361 4.06967 14.8944 4.00684 14.9544L3.80119 15.1503C3.73836 15.2104 3.67913 15.2624 3.62546 15.302L3.62441 15.3059C3.62441 15.3059 3.66185 15.3401 3.68655 15.3661C3.71205 15.3928 3.74231 15.4296 3.74231 15.4296L3.74555 15.4278C3.78415 15.3794 3.84316 15.3203 3.90599 15.2603L4.11164 15.0643C4.1259 15.0507 4.19881 14.9827 4.22397 14.9688C4.2366 14.9669 4.24286 14.9668 4.25376 14.9783L4.41825 15.1508C4.42915 15.1623 4.4288 15.1685 4.42637 15.181C4.4113 15.2055 4.33989 15.2752 4.32552 15.2887L4.11998 15.4846C4.05704 15.5447 3.99525 15.6008 3.94494 15.6371L3.9432 15.6402C3.9432 15.6402 3.98714 15.6814 4.01264 15.708C4.03733 15.734 4.06109 15.7639 4.06109 15.7639L4.06504 15.763C4.107 15.7113 4.16183 15.6546 4.22478 15.5947L4.43043 15.3986C4.49326 15.3386 4.55435 15.2834 4.60547 15.2463L4.60721 15.2432C4.60721 15.2432 4.57858 15.218 4.55377 15.1921ZM4.39692 15.9391C4.37061 15.9523 4.32853 15.9605 4.30998 15.9444C4.28297 15.9211 4.29213 15.8582 4.30245 15.8327L4.27741 15.8138C4.25248 15.8361 4.17818 15.8794 4.1543 15.885L4.15233 15.8882C4.15488 15.9111 4.1987 15.9626 4.22397 15.9844C4.26245 16.0178 4.31033 16.0366 4.37188 16.0313C4.42428 16.0269 4.45628 16.0126 4.52085 15.9794L5.09571 15.6846C5.08377 15.6789 5.06626 15.6638 5.05757 15.6562C5.04876 15.6486 5.00969 15.6147 5.00239 15.6038C4.90757 15.6712 4.73322 15.7807 4.58031 15.8624C4.67108 15.6073 4.71038 15.5318 4.7768 15.4084C4.76092 15.3993 4.71873 15.3627 4.70516 15.351C4.6916 15.3393 4.63897 15.2937 4.62773 15.2793C4.59909 15.3749 4.48387 15.7144 4.39692 15.9391ZM5.05259 16.1312L5.11484 16.18C5.23505 16.2745 5.18845 16.3543 5.14544 16.409C5.10104 16.4655 5.03937 16.5218 4.91336 16.4227C4.8678 16.3869 4.8714 16.3617 4.89505 16.3317L5.05259 16.1312ZM5.02221 15.9259L4.84671 16.1491C4.79292 16.2175 4.7404 16.2809 4.69508 16.325L4.6938 16.3283C4.6938 16.3283 4.73739 16.3581 4.76568 16.3803C4.78967 16.3992 4.88948 16.4821 4.91939 16.5056C5.01966 16.5844 5.15587 16.662 5.282 16.5015C5.34576 16.4205 5.3905 16.3141 5.21128 16.1732L5.09281 16.08L5.1408 16.0191C5.15297 16.0035 5.21383 15.9261 5.23679 15.9087C5.34796 15.9961 5.48509 16.151 5.48509 16.151L5.48962 16.1487C5.49866 16.1337 5.54097 16.0799 5.56265 16.0557L5.56311 16.0516C5.54839 16.0431 5.52868 16.029 5.51118 16.0153L5.22763 15.7924C5.19946 15.7703 5.16097 15.7356 5.16097 15.7356L5.15715 15.737C5.12295 15.7942 5.07589 15.8575 5.02221 15.9259ZM5.77919 16.2995L5.92039 16.3899C5.91355 16.4103 5.88932 16.454 5.84678 16.5204L5.69978 16.7497C5.64403 16.8365 5.59951 16.9003 5.56578 16.9393L5.56473 16.9427C5.59441 16.959 5.61991 16.9739 5.64032 16.987C5.66072 17.0001 5.68321 17.0159 5.70859 17.0349L5.7123 17.0332C5.73862 16.9784 5.77687 16.9107 5.82765 16.8317L5.9809 16.5925C6.03654 16.5057 6.08048 16.443 6.11491 16.4031L6.11583 16.3996C6.08535 16.3827 6.06077 16.3683 6.04037 16.3552L5.77038 16.1823C5.75056 16.1695 5.7341 16.1574 5.7181 16.1446L5.71381 16.1474C5.69167 16.1938 5.67208 16.2281 5.64518 16.27C5.56392 16.3968 5.47895 16.5117 5.4174 16.5688C5.35341 16.6295 5.27945 16.6647 5.23122 16.6559L5.19448 16.6957C5.20097 16.7109 5.27759 16.7751 5.29359 16.7853C5.31573 16.7996 5.33242 16.8048 5.38134 16.7714C5.47072 16.7103 5.57551 16.5586 5.73503 16.3097C5.74441 16.2951 5.76412 16.2897 5.77919 16.2995ZM6.12569 16.662L5.9962 16.9148C5.95655 16.9922 5.91529 17.0635 5.87923 17.1153L5.87865 17.1189C5.87865 17.1189 5.92526 17.139 5.95806 17.1558C5.99006 17.1721 6.03353 17.1983 6.03353 17.1983L6.03701 17.1961C6.04999 17.1594 6.06657 17.1199 6.08569 17.0779L6.52539 16.8442C6.52226 16.8501 6.51925 16.856 6.51623 16.862L6.38675 17.1148C6.3471 17.1922 6.30583 17.2635 6.26978 17.3154L6.26908 17.3189C6.26908 17.3189 6.3158 17.339 6.34861 17.3558C6.38049 17.3721 6.42396 17.3983 6.42396 17.3983L6.42743 17.3961C6.45004 17.3335 6.48227 17.2614 6.52191 17.1841L6.6514 16.9313C6.69104 16.8538 6.73278 16.7815 6.76836 16.7307L6.76894 16.7271C6.76894 16.7271 6.72234 16.7071 6.68942 16.6903C6.65754 16.6739 6.61407 16.6477 6.61407 16.6477L6.61059 16.6499C6.59761 16.6862 6.58126 16.7258 6.56214 16.7677L6.12256 17.0013C6.12545 16.9956 6.12847 16.9897 6.13137 16.984L6.26085 16.7313C6.3005 16.6539 6.34235 16.5815 6.37782 16.5306L6.37851 16.527C6.37851 16.527 6.3318 16.5071 6.29899 16.4903C6.267 16.4739 6.22353 16.4477 6.22353 16.4477L6.22005 16.4499C6.19744 16.5125 6.16533 16.5846 6.12569 16.662ZM6.77555 16.9919L6.67134 17.2561C6.63946 17.337 6.60538 17.412 6.57454 17.4672L6.57431 17.4708C6.57431 17.4708 6.62265 17.4861 6.65696 17.4996C6.69035 17.5128 6.73614 17.5346 6.73614 17.5346L6.73938 17.5321C6.75573 17.4675 6.78077 17.3926 6.81265 17.3118L6.86006 17.1915C6.95465 17.2401 6.96196 17.3118 6.96427 17.4103C6.9659 17.4782 6.96764 17.5312 6.98004 17.632C7.00253 17.6384 7.02293 17.644 7.04751 17.6536C7.07 17.6625 7.13885 17.6922 7.1508 17.6994L7.15543 17.6961C7.11474 17.5693 7.1341 17.4684 7.11092 17.3721C7.0926 17.2976 7.07602 17.2449 7.01343 17.2053C7.00786 17.2018 7.00496 17.198 7.00566 17.196C7.10605 17.1371 7.3197 17.0494 7.43875 17.0005C7.42182 16.9974 7.36293 16.9743 7.34821 16.9685C7.33546 16.9635 7.27854 16.941 7.26707 16.9328C7.15253 17.0043 7.04125 17.0705 6.93576 17.1199C6.91257 17.1306 6.89565 17.1373 6.88116 17.1379L6.91686 17.0476C6.94874 16.9667 6.98329 16.8906 7.01366 16.8365L7.01401 16.833C7.01401 16.833 6.96555 16.8175 6.93124 16.8041C6.89785 16.7909 6.85206 16.7691 6.85206 16.7691L6.84882 16.7715C6.83247 16.8361 6.80743 16.911 6.77555 16.9919ZM7.40849 17.2446L7.33094 17.5178C7.30718 17.6014 7.28063 17.6794 7.25536 17.7374L7.25547 17.741C7.25547 17.741 7.30509 17.7515 7.34068 17.7615C7.37511 17.7713 7.42287 17.7885 7.42287 17.7885L7.42588 17.7857C7.43156 17.7472 7.43991 17.7052 7.45057 17.6602L7.83602 17.3451C7.83416 17.3516 7.83242 17.358 7.83057 17.3645L7.75302 17.6377C7.72925 17.7213 7.70271 17.7993 7.67743 17.8573L7.67755 17.8608C7.67755 17.8608 7.72717 17.8713 7.76264 17.8814C7.79718 17.8912 7.84494 17.9084 7.84494 17.9084L7.84784 17.9056C7.85781 17.8397 7.87531 17.7628 7.89908 17.6791L7.97663 17.406C8.0004 17.3223 8.02729 17.2431 8.05221 17.1864L8.0521 17.1827C8.0521 17.1827 8.00248 17.1723 7.96689 17.1622C7.93247 17.1523 7.8847 17.1352 7.8847 17.1352L7.88169 17.1379C7.87601 17.1761 7.86778 17.2182 7.85723 17.2629L7.47179 17.5779C7.47353 17.5717 7.47526 17.5654 7.477 17.5593L7.55456 17.2861C7.57832 17.2024 7.60521 17.1233 7.63014 17.0665L7.63002 17.0628C7.63002 17.0628 7.58041 17.0524 7.54493 17.0423C7.51039 17.0325 7.46263 17.0153 7.46263 17.0153L7.45961 17.0181C7.44976 17.0839 7.43226 17.1609 7.40849 17.2446ZM9.4907 17.6565C9.49279 17.5696 9.49708 17.4862 9.50705 17.425L9.50612 17.4215C9.50612 17.4215 9.45755 17.4238 9.42057 17.4229C9.38475 17.422 9.33629 17.4172 9.33629 17.4172L9.33409 17.4207C9.34093 17.4869 9.34105 17.5658 9.33885 17.6526L9.33815 17.6793C9.33525 17.7941 9.37722 17.8867 9.49743 17.8898C9.55423 17.8912 9.64685 17.8775 9.72255 17.83L9.71965 17.9464C9.71745 18.0333 9.71119 18.1155 9.70111 18.1779L9.70203 18.1814C9.70203 18.1814 9.75281 18.1792 9.78967 18.1801C9.82549 18.181 9.87603 18.1858 9.87603 18.1858L9.87824 18.1823C9.87151 18.1161 9.86931 18.0372 9.8714 17.9502L9.87858 17.6663C9.88079 17.5794 9.88716 17.496 9.89713 17.4348L9.8962 17.4313C9.8962 17.4313 9.84555 17.4335 9.80857 17.4326C9.77275 17.4317 9.7222 17.4269 9.7222 17.4269L9.72 17.4304C9.72672 17.4967 9.72904 17.5756 9.72684 17.6625L9.72417 17.768C9.66169 17.8055 9.60245 17.8078 9.5744 17.8071C9.49847 17.8052 9.48769 17.7736 9.49012 17.6785L9.4907 17.6565ZM10.2293 18.081C10.2187 18.1085 10.1932 18.143 10.1686 18.1436C10.133 18.1445 10.0973 18.0919 10.0877 18.066L10.0565 18.0689C10.0532 18.1022 10.0274 18.1843 10.0135 18.2046L10.0143 18.2081C10.0316 18.2233 10.0986 18.2319 10.132 18.2311C10.183 18.2298 10.231 18.2114 10.273 18.1661C10.3088 18.1275 10.3227 18.0955 10.3481 18.0273L10.5744 17.4223C10.5617 17.4261 10.5385 17.4267 10.5269 17.4269C10.5153 17.4273 10.4638 17.4286 10.451 17.4254C10.4262 17.5392 10.3711 17.7374 10.3132 17.9008C10.2084 17.6511 10.1866 17.5689 10.1526 17.433C10.1348 17.4369 10.0789 17.4383 10.0609 17.4388C10.0431 17.4392 9.97341 17.441 9.95544 17.438C9.99868 17.5279 10.1422 17.8564 10.2293 18.081ZM10.798 17.5126C10.7931 17.4747 10.8018 17.4595 10.8865 17.4487C10.9452 17.4413 10.9846 17.4675 10.9974 17.5679C11.008 17.6518 10.992 17.6925 10.9051 17.7035L10.8235 17.7139L10.798 17.5126ZM10.8312 17.7748L10.9286 17.7624C11.051 17.7469 11.0823 17.8432 11.0928 17.9251C11.1028 18.0045 11.1023 18.0583 10.962 18.0761C10.8889 18.0854 10.869 18.0716 10.8642 18.0336L10.8312 17.7748ZM10.7129 17.4125C10.6773 17.417 10.6245 17.4202 10.6245 17.4202L10.6229 17.4239C10.6396 17.4884 10.6538 17.5661 10.6648 17.6523L10.7006 17.934C10.7115 18.0202 10.7176 18.1024 10.7172 18.1656L10.7187 18.169C10.7187 18.169 10.7706 18.1589 10.8071 18.1541C10.8825 18.1446 10.9071 18.145 11.0001 18.1331C11.2083 18.1067 11.2709 17.9807 11.2584 17.8818C11.2444 17.7715 11.1579 17.7181 11.0632 17.701C11.1129 17.6654 11.1595 17.5976 11.1515 17.5343C11.1418 17.4572 11.0765 17.3627 10.882 17.3874C10.8454 17.3922 10.7788 17.4041 10.7129 17.4125ZM11.6945 17.6948C11.6651 17.7008 11.6326 17.7071 11.608 17.7114C11.5779 17.7169 11.5321 17.7244 11.4992 17.7288L11.5518 17.4624L11.5581 17.4614C11.6118 17.5483 11.6564 17.6269 11.6945 17.6948ZM11.4864 17.7975C11.5257 17.7896 11.5868 17.7777 11.624 17.771C11.6573 17.7651 11.6934 17.7593 11.7276 17.754C11.8017 17.889 11.8397 17.9706 11.8503 17.9944C11.8674 17.9878 11.9162 17.9791 11.9338 17.976C11.9515 17.9728 12.0106 17.9623 12.029 17.9625C11.9564 17.8566 11.7447 17.4987 11.6107 17.2647L11.5173 17.2813C11.4629 17.5525 11.4046 17.8138 11.3447 18.0847C11.3566 18.079 11.3908 18.073 11.4023 18.0709C11.4136 18.0688 11.4365 18.0648 11.4496 18.0659C11.4537 17.9953 11.4684 17.8999 11.4864 17.7975ZM12.8919 17.4286L12.8009 17.1595C12.7731 17.0772 12.7508 17.0015 12.7376 16.9362L12.7345 16.9336C12.7345 16.9336 12.6887 16.9527 12.6547 16.9643C12.6197 16.9761 12.5726 16.9883 12.5726 16.9883L12.5728 16.992C12.6005 17.0474 12.6292 17.1259 12.657 17.2082L12.7448 17.4674C12.751 17.4861 12.7872 17.5962 12.7891 17.6249C12.7894 17.6358 12.7847 17.6448 12.7667 17.6508L12.6479 17.691C12.6299 17.6972 12.6206 17.6929 12.6143 17.6841C12.5984 17.6601 12.5602 17.5506 12.554 17.5319L12.4662 17.2728C12.4384 17.1905 12.4136 17.1107 12.4019 17.0497L12.3998 17.0468C12.3998 17.0468 12.3549 17.0656 12.32 17.0774C12.2861 17.089 12.238 17.1015 12.238 17.1015L12.237 17.1055C12.2663 17.1654 12.2945 17.239 12.3224 17.3215L12.41 17.5805C12.4164 17.5992 12.4525 17.7094 12.4544 17.7381C12.4547 17.749 12.45 17.758 12.432 17.764L12.3152 17.8036C12.2972 17.8097 12.2879 17.8054 12.2817 17.7966C12.2657 17.7726 12.2275 17.6632 12.2213 17.6444L12.1335 17.3853C12.1057 17.303 12.0809 17.2233 12.0692 17.1623L12.0671 17.1594C12.0671 17.1594 12.0222 17.1782 11.9873 17.19C11.9534 17.2016 11.9053 17.2141 11.9053 17.2141L11.9043 17.218C11.9336 17.278 11.9618 17.3516 11.9897 17.434L12.0808 17.7031C12.1086 17.7854 12.1329 17.864 12.145 17.926L12.1472 17.929C12.1472 17.929 12.193 17.9098 12.228 17.8979L12.8943 17.6725C12.9283 17.661 12.9754 17.6487 12.9754 17.6487L12.9763 17.6448C12.9471 17.5849 12.9199 17.5109 12.8919 17.4286ZM13.1567 16.7464C13.0693 16.7859 13 16.8492 12.9633 16.9279C12.917 17.0274 12.9225 17.155 12.975 17.2713C13.0251 17.3822 13.1171 17.4728 13.2183 17.4945C13.2952 17.5111 13.3615 17.5036 13.443 17.4667C13.5287 17.428 13.6113 17.3551 13.6505 17.2266L13.6112 17.2011C13.5734 17.3099 13.5287 17.3517 13.4394 17.392C13.3346 17.4395 13.2038 17.3601 13.1226 17.1804C13.0257 16.9659 13.0974 16.8432 13.1763 16.8076C13.2627 16.7684 13.3337 16.7897 13.4123 16.8586L13.4407 16.8444C13.4197 16.789 13.4098 16.7555 13.3978 16.6985L13.3944 16.6962C13.3944 16.6962 13.274 16.6934 13.1567 16.7464ZM13.5822 16.8238L13.7239 17.07C13.7671 17.1454 13.8046 17.2189 13.8284 17.2773L13.8311 17.2798C13.8311 17.2798 13.8732 17.2516 13.9052 17.2331C13.9364 17.2153 13.9819 17.193 13.9819 17.193L13.982 17.189C13.9418 17.1359 13.8988 17.0697 13.8554 16.9943L13.791 16.8822C13.888 16.8385 13.9486 16.8777 14.027 16.9372C14.081 16.9782 14.1236 17.01 14.2102 17.0632C14.2291 17.0496 14.2462 17.0371 14.2691 17.0239C14.2902 17.0118 14.3562 16.9765 14.3692 16.9717L14.3697 16.966C14.2451 16.9187 14.1784 16.8407 14.0886 16.7988C14.0189 16.7665 13.9674 16.7467 13.8974 16.7709C13.8913 16.7731 13.8864 16.773 13.8854 16.7712C13.9018 16.6561 13.9666 16.4343 14.0026 16.3106C13.9897 16.3221 13.9349 16.3536 13.9211 16.3615C13.9092 16.3683 13.8561 16.3988 13.8426 16.4026C13.827 16.5368 13.8093 16.6651 13.7822 16.7784C13.7762 16.8032 13.7708 16.8205 13.7624 16.8324L13.7139 16.7481C13.6705 16.6727 13.6326 16.5982 13.6093 16.5408L13.6067 16.5383C13.6067 16.5383 13.5645 16.5666 13.5325 16.585C13.5014 16.6028 13.4557 16.625 13.4557 16.625V16.629C13.496 16.6821 13.5389 16.7484 13.5822 16.8238ZM14.5837 16.4579C14.5586 16.4746 14.5312 16.4929 14.5102 16.5064C14.4843 16.523 14.445 16.5474 14.4162 16.5641L14.3627 16.298L14.3681 16.2946C14.4511 16.3543 14.5224 16.4098 14.5837 16.4579ZM14.4308 16.6325C14.464 16.6101 14.5159 16.5757 14.5477 16.5553C14.5761 16.5371 14.6072 16.5179 14.6368 16.4998C14.7571 16.5962 14.8234 16.657 14.8423 16.6748C14.8555 16.6623 14.8972 16.6355 14.9124 16.6258C14.9275 16.6162 14.9782 16.5837 14.9951 16.577C14.8875 16.5069 14.5547 16.2575 14.3414 16.0927L14.2615 16.1439C14.3151 16.4153 14.3613 16.6789 14.4099 16.9521C14.4187 16.9423 14.448 16.9235 14.4578 16.9172C14.4675 16.911 14.4871 16.8984 14.4996 16.8946C14.4764 16.8277 14.4533 16.7341 14.4308 16.6325ZM14.8801 15.7721C14.9316 15.7317 14.9516 15.7454 14.9724 15.7718L15.1166 15.9552L15.0883 15.9773C15.0078 16.0405 14.9661 16.066 14.8765 15.9519C14.792 15.8444 14.8295 15.8119 14.8801 15.7721ZM14.995 16.1099C15.003 16.2279 15.0403 16.4496 15.0394 16.5346L15.0431 16.536C15.0576 16.5202 15.1015 16.4858 15.1181 16.4727C15.1338 16.4603 15.167 16.4342 15.185 16.4246C15.1697 16.3864 15.1539 16.2912 15.1438 16.1931C15.1387 16.1402 15.127 16.0801 15.1257 16.0301C15.1363 16.022 15.1468 16.014 15.1567 16.0062L15.2253 16.0936C15.279 16.162 15.326 16.2252 15.3602 16.2824L15.3641 16.2838C15.3641 16.2838 15.4 16.2511 15.4283 16.229C15.4573 16.2062 15.4976 16.1789 15.4976 16.1789L15.4962 16.1756C15.4509 16.1315 15.3968 16.0694 15.343 16.0011L15.1676 15.7777C15.1138 15.7094 15.0685 15.6447 15.0343 15.5876L15.0304 15.5862C15.0304 15.5862 14.9911 15.6216 14.963 15.6437C14.9381 15.6632 14.8493 15.7226 14.8285 15.739C14.7738 15.782 14.7212 15.8293 14.7045 15.8866C14.689 15.937 14.7006 15.9927 14.7472 16.052C14.8222 16.1474 14.9113 16.1458 14.995 16.1099ZM15.4801 15.2879C15.4569 15.2636 15.451 15.2452 15.5061 15.1928C15.5511 15.1499 15.6012 15.1291 15.6965 15.229C15.7772 15.3138 15.7728 15.3853 15.7284 15.4276C15.7094 15.4458 15.6757 15.4731 15.6601 15.4767L15.4801 15.2879ZM15.4638 15.4878L15.6598 15.6933C15.7197 15.7563 15.7735 15.8187 15.8106 15.8699L15.8137 15.8716C15.8137 15.8716 15.8479 15.8342 15.8747 15.8088C15.9007 15.784 15.9381 15.753 15.9381 15.753L15.9373 15.7491C15.8856 15.707 15.8281 15.6529 15.7682 15.5899L15.7009 15.5195C15.7233 15.5093 15.7509 15.4879 15.7777 15.4624C15.9166 15.3299 15.8797 15.1904 15.7974 15.1041C15.7683 15.0736 15.7123 15.0361 15.6383 15.0443C15.5917 15.0494 15.5426 15.081 15.4882 15.1328C15.4684 15.1517 15.3816 15.2457 15.3587 15.2675C15.3328 15.2923 15.2937 15.3247 15.2937 15.3247L15.2946 15.3287C15.3463 15.3707 15.4037 15.4248 15.4638 15.4878ZM16.1906 15.1452L16.0933 15.061C16.1265 15.0227 16.2119 14.9293 16.2657 14.8795L16.2651 14.8749C16.256 14.8697 16.2377 14.8553 16.2298 14.8485C16.2219 14.8416 16.206 14.8264 16.1995 14.818L16.1948 14.8181C16.1584 14.869 16.1214 14.9206 16.0399 15.0146L15.9759 14.9592C15.9611 14.9463 15.882 14.8764 15.8658 14.8526C15.9583 14.7459 16.0738 14.6338 16.0738 14.6338L16.0717 14.6291C16.0639 14.6239 16.0422 14.6064 16.0343 14.5996C16.0274 14.5935 16.0164 14.5831 16.0051 14.5714L16.0011 14.5708C15.9918 14.5851 15.9767 14.6041 15.9622 14.6209L15.7523 14.8632C15.7289 14.8903 15.6917 14.9279 15.6917 14.9279L15.6929 14.9318C15.7485 14.9687 15.8107 15.0171 15.8764 15.074L16.0911 15.26C16.1569 15.3169 16.2163 15.3739 16.2581 15.4214L16.2614 15.4227C16.2614 15.4227 16.2933 15.3807 16.3175 15.3527L16.5343 15.1025C16.5488 15.0858 16.5656 15.0681 16.5784 15.0569L16.5771 15.0531C16.5646 15.0443 16.553 15.0349 16.5442 15.0273C16.5355 15.0197 16.5037 14.9908 16.4975 14.984L16.4925 14.9825C16.4925 14.9825 16.4 15.1283 16.3073 15.2352C16.2816 15.2225 16.2054 15.1581 16.1906 15.1452ZM16.2576 14.2267C16.202 14.3049 16.1741 14.3945 16.182 14.481C16.1921 14.5902 16.2612 14.6978 16.3652 14.7716C16.4643 14.8422 16.5895 14.8742 16.6878 14.842C16.7626 14.8175 16.8161 14.7776 16.8679 14.7047C16.9224 14.6281 16.957 14.5234 16.9261 14.3928L16.8793 14.3906C16.9016 14.5035 16.8839 14.5621 16.8271 14.642C16.7605 14.7358 16.6076 14.7331 16.4468 14.6188C16.2551 14.4824 16.2552 14.3401 16.3052 14.2697C16.3603 14.1923 16.4324 14.1749 16.5349 14.1949L16.5523 14.1683C16.5063 14.1311 16.481 14.107 16.4417 14.0639L16.4376 14.0635C16.4376 14.0635 16.3323 14.1219 16.2576 14.2267ZM16.7438 13.4803L16.5082 13.89C16.4904 13.9211 16.4621 13.9633 16.4621 13.9633L16.4646 13.9658C16.5231 13.9898 16.5955 14.029 16.6709 14.0724L16.9171 14.2139C16.9924 14.2573 17.0592 14.2992 17.1123 14.3394H17.1164C17.1164 14.3394 17.1385 14.2938 17.1565 14.2627C17.1748 14.2307 17.2015 14.1913 17.2015 14.1913L17.199 14.1886C17.1415 14.1653 17.0681 14.1256 16.9928 14.0822L16.7466 13.9407C16.7294 13.9308 16.6435 13.8802 16.6231 13.86C16.6178 13.8484 16.6158 13.8424 16.6237 13.8287L16.7425 13.622C16.7504 13.6083 16.7565 13.6069 16.7693 13.6058C16.7971 13.6132 16.8841 13.662 16.9011 13.6718L17.1473 13.8134C17.2227 13.8567 17.294 13.9002 17.343 13.9381L17.3466 13.9389C17.3466 13.9389 17.3736 13.8851 17.3919 13.8531C17.4098 13.822 17.4318 13.7908 17.4318 13.7908L17.4298 13.7873C17.3683 13.7617 17.2984 13.7251 17.223 13.6817L16.9768 13.5402C16.9014 13.4968 16.8311 13.454 16.7811 13.4154L16.7775 13.4146C16.7775 13.4146 16.7616 13.4493 16.7438 13.4803ZM17.5153 13.4126C17.5344 13.435 17.5525 13.474 17.5412 13.4959C17.525 13.5275 17.4617 13.5337 17.4345 13.5297L17.4221 13.5586C17.4498 13.5775 17.5095 13.6393 17.5206 13.6612L17.5242 13.6622C17.5459 13.6543 17.5854 13.5996 17.6006 13.5698C17.6239 13.5245 17.6306 13.4735 17.6109 13.415C17.5941 13.3651 17.5726 13.3375 17.525 13.2827L17.1018 12.7945C17.0991 12.8074 17.0885 12.828 17.0833 12.8384C17.078 12.8488 17.0545 12.8947 17.0455 12.9044C17.1336 12.9805 17.2814 13.1238 17.3972 13.2528C17.1277 13.2254 17.0452 13.2051 16.9096 13.17C16.9045 13.1876 16.879 13.2374 16.8707 13.2534C16.8626 13.2692 16.8308 13.3313 16.8196 13.3456C16.9193 13.3506 17.2765 13.3817 17.5153 13.4126ZM17.5128 12.7462L17.5418 12.6726C17.5979 12.5303 17.6877 12.5521 17.7524 12.5776C17.8193 12.604 17.8908 12.647 17.8321 12.796C17.8107 12.8501 17.7856 12.8538 17.75 12.8397L17.5128 12.7462ZM17.3248 12.8342L17.589 12.9383C17.6699 12.9703 17.7457 13.0024 17.8009 13.0332L17.8045 13.0335C17.8045 13.0335 17.8206 12.9831 17.8337 12.9498C17.8449 12.9214 17.8957 12.802 17.9097 12.7666C17.9565 12.6479 17.9918 12.4951 17.802 12.4203C17.7061 12.3824 17.5913 12.3701 17.5077 12.582L17.4524 12.7223L17.3801 12.6938C17.3618 12.6866 17.2701 12.6504 17.247 12.6334C17.2988 12.5019 17.4079 12.3262 17.4079 12.3262L17.4044 12.3225C17.3875 12.3181 17.3239 12.2931 17.2944 12.2791L17.2904 12.2798C17.2864 12.2963 17.2785 12.3194 17.2704 12.34L17.1382 12.6755C17.1249 12.7089 17.1028 12.7557 17.1028 12.7557L17.1052 12.7589C17.1698 12.7753 17.2439 12.8023 17.3248 12.8342ZM17.4842 12.0061L17.53 11.8448C17.5515 11.8454 17.6003 11.856 17.6762 11.8775L17.9383 11.9519C18.0375 11.9801 18.1113 12.0044 18.1584 12.0254H18.162C18.1689 11.9922 18.1759 11.9635 18.1826 11.9402C18.1892 11.9169 18.1978 11.8908 18.2087 11.861L18.2059 11.858C18.1459 11.8486 18.0701 11.8314 17.9798 11.8058L17.7065 11.7283C17.6073 11.7001 17.5345 11.6761 17.4864 11.6548H17.4827C17.4754 11.689 17.4688 11.7167 17.4622 11.74L17.3745 12.0485C17.3681 12.0711 17.3612 12.0903 17.3537 12.1093L17.3575 12.1127C17.4084 12.1204 17.4469 12.1293 17.4947 12.1428C17.6398 12.184 17.7743 12.2321 17.8466 12.2745C17.9233 12.3183 17.9785 12.3788 17.9839 12.4275L18.0326 12.4513C18.0453 12.4406 18.0847 12.3487 18.0898 12.3305C18.097 12.3051 18.0972 12.2876 18.0511 12.2504C17.9668 12.1826 17.7912 12.1261 17.5068 12.0454C17.49 12.0407 17.4793 12.0233 17.4842 12.0061ZM17.7524 11.5799L18.032 11.6299C18.1176 11.6452 18.1979 11.6637 18.2581 11.6831L18.2617 11.6826C18.2617 11.6826 18.2671 11.6322 18.2736 11.5958C18.2799 11.5605 18.2922 11.5113 18.2922 11.5113L18.2892 11.5086C18.2502 11.5069 18.2077 11.5026 18.1618 11.4965L17.8098 11.1445C17.8164 11.1456 17.8229 11.1468 17.8295 11.148L18.1091 11.1979C18.1948 11.2132 18.275 11.2318 18.3352 11.2511L18.3388 11.2507C18.3388 11.2507 18.3442 11.2002 18.3507 11.164C18.3571 11.1286 18.3694 11.0795 18.3694 11.0795L18.3664 11.0767C18.2998 11.0734 18.2215 11.0637 18.1359 11.0484L17.8563 10.9984C17.7706 10.9832 17.6893 10.9643 17.6303 10.9452L17.6267 10.9457C17.6267 10.9457 17.6212 10.9961 17.6147 11.0325C17.6083 11.0677 17.5961 11.117 17.5961 11.117L17.5991 11.1197C17.6377 11.1215 17.6803 11.1256 17.7259 11.1316L18.0777 11.4837C18.0715 11.4826 18.065 11.4815 18.0587 11.4803L17.7791 11.4304C17.6935 11.415 17.6122 11.3963 17.5532 11.3771L17.5496 11.3776C17.5496 11.3776 17.544 11.428 17.5375 11.4644C17.5313 11.4997 17.519 11.5489 17.519 11.5489L17.522 11.5516C17.5885 11.5549 17.6669 11.5646 17.7524 11.5799ZM17.887 10.8281L18.1688 10.864C18.2551 10.8748 18.3362 10.8895 18.3972 10.9057L18.4008 10.9051C18.4008 10.9051 18.4037 10.8544 18.4084 10.8178C18.4128 10.7822 18.4227 10.7325 18.4227 10.7325L18.4196 10.7299C18.3529 10.7299 18.2742 10.7243 18.188 10.7133L18.0597 10.697C18.0834 10.5933 18.1512 10.5686 18.2459 10.542C18.3114 10.5237 18.3623 10.509 18.457 10.4721C18.4576 10.4488 18.4579 10.4276 18.4613 10.4014C18.4643 10.3773 18.4761 10.3033 18.4802 10.29L18.4759 10.2863C18.363 10.357 18.2605 10.3632 18.1729 10.4094C18.1052 10.4455 18.0582 10.4746 18.0353 10.545C18.0333 10.5512 18.0303 10.555 18.0281 10.5548C17.9464 10.472 17.8087 10.2865 17.7318 10.1832C17.7331 10.2004 17.7252 10.2632 17.7231 10.2789C17.7215 10.2924 17.7137 10.3532 17.7085 10.3663C17.8061 10.4597 17.8977 10.5513 17.9715 10.6413C17.9878 10.6611 17.9983 10.6759 18.0026 10.6897L17.9063 10.6774C17.8199 10.6665 17.7377 10.6518 17.6778 10.6357L17.6742 10.6363C17.6742 10.6363 17.6713 10.6869 17.6667 10.7236C17.6621 10.7592 17.6523 10.8089 17.6523 10.8089L17.6555 10.8114C17.7221 10.8114 17.8008 10.8171 17.887 10.8281ZM18.1557 9.81821C18.1555 9.84823 18.1553 9.88127 18.1547 9.90631C18.1539 9.93691 18.1521 9.98317 18.1497 10.0164L17.8994 9.91141L17.8995 9.90515C17.9955 9.86991 18.0815 9.84197 18.1557 9.81821ZM18.2146 10.0426C18.2146 10.0025 18.2152 9.94039 18.2162 9.9026C18.2171 9.86887 18.2186 9.83223 18.2202 9.79769C18.3674 9.75213 18.4549 9.73138 18.4804 9.7257C18.4774 9.70762 18.4787 9.65812 18.4792 9.64015C18.4796 9.6223 18.4811 9.56213 18.485 9.54428C18.3666 9.59413 17.9736 9.72976 17.7175 9.81403L17.7151 9.90886C17.9698 10.0166 18.214 10.1262 18.4674 10.2391C18.4643 10.2264 18.4651 10.1916 18.4655 10.18C18.4657 10.1684 18.4663 10.1452 18.4701 10.1326C18.4018 10.1144 18.3112 10.081 18.2146 10.0426Z" fill="#FFDF00"/>
</g>
<defs>
<clipPath id="clip0_814_20349">
<rect width="20" height="20" fill="white"/>
</clipPath>
</defs>
</svg>
