<svg width="18" height="18" viewBox="0 0 18 18" fill="none" xmlns="http://www.w3.org/2000/svg">
<path fill-rule="evenodd" clip-rule="evenodd" d="M8.76516 17.1838C8.85789 16.4195 9.50658 15.8275 10.2964 15.8275L13.5356 15.7454C14.3902 15.7454 15.0762 15.0556 15.0762 14.2009V0.816406H2.41309V14.2009C2.41309 15.0556 3.11958 15.7454 3.97422 15.7454L7.21337 15.8275C8.00319 15.8275 8.66146 16.4195 8.7558 17.1838L8.76516 17.1838Z" fill="#F8C300" stroke="#F8C300" stroke-width="0.176" stroke-linecap="round"/>
<path fill-rule="evenodd" clip-rule="evenodd" d="M15.0847 2.45947C14.6498 2.50414 14.3192 2.5824 13.9921 2.96647C13.1965 3.06468 12.81 3.50111 12.7624 4.21778C12.1655 4.64208 11.9713 5.2965 12.1799 6.18104C11.4785 6.62026 11.1978 7.16464 11.532 7.86271L11.5415 9.48344C11.5944 9.70607 11.7101 9.92085 11.8778 10.1292C11.3816 10.9274 11.6046 11.6394 12.5466 12.0709C12.5501 13.4248 13.3052 13.8095 14.402 13.7537C14.5463 13.9466 14.7734 14.0944 15.0759 14.2011L15.0847 2.45947Z" fill="#007CC3" stroke="#007CC3" stroke-width="0.176" stroke-linecap="round" stroke-linejoin="round"/>
<path d="M15.0847 2.45947C14.6498 2.50414 14.3192 2.5824 13.9921 2.96647C13.1965 3.06468 12.81 3.50111 12.7624 4.21778C12.1655 4.64208 11.9713 5.2965 12.1799 6.18104C11.4785 6.62026 11.1978 7.16464 11.532 7.86271L11.5415 9.48344C11.5944 9.70607 11.7101 9.92085 11.8778 10.1292C11.3816 10.9274 11.6046 11.6394 12.5466 12.0709C12.5501 13.4248 13.3052 13.8095 14.402 13.7537C14.5463 13.9466 14.7734 14.0944 15.0759 14.2011" stroke="white" stroke-width="0.176" stroke-linecap="round" stroke-linejoin="round"/>
<path fill-rule="evenodd" clip-rule="evenodd" d="M4.46796 3.35969C3.95533 3.48624 3.5698 3.66934 3.28125 3.90121V2.36786C3.5698 2.59973 3.95533 2.78283 4.46796 2.90936C4.34142 2.39674 4.15832 2.01121 3.92645 1.72266H5.4598C5.22793 2.01121 5.04484 2.39674 4.91829 2.90936C5.43092 2.78283 5.81644 2.59973 6.10501 2.36786V3.90121C5.81644 3.66934 5.43092 3.48624 4.91829 3.35969C5.04484 3.87233 5.22793 4.25785 5.4598 4.54641H3.92645C4.15832 4.25785 4.34142 3.87233 4.46796 3.35969Z" fill="#DA251D" stroke="white" stroke-width="0.1408" stroke-linecap="round" stroke-linejoin="round"/>
<path d="M4.69329 1.6859C4.87448 1.6859 5.02135 1.53903 5.02135 1.35784C5.02135 1.17666 4.87448 1.02979 4.69329 1.02979C4.51211 1.02979 4.36523 1.17666 4.36523 1.35784C4.36523 1.53903 4.51211 1.6859 4.69329 1.6859Z" fill="#DA251D" stroke="white" stroke-width="0.1408" stroke-linecap="round" stroke-linejoin="round"/>
<path d="M3.24401 3.13483C3.24401 2.95365 3.09713 2.80677 2.91595 2.80677C2.73477 2.80677 2.58789 2.95365 2.58789 3.13483C2.58789 3.31601 2.73477 3.46289 2.91595 3.46289C3.09713 3.46289 3.24401 3.31601 3.24401 3.13483Z" fill="#DA251D" stroke="white" stroke-width="0.135004" stroke-linecap="round" stroke-linejoin="round"/>
<path d="M6.14173 3.1347C6.14173 3.31588 6.28861 3.46276 6.46979 3.46276C6.65097 3.46276 6.79785 3.31588 6.79785 3.1347C6.79785 2.95352 6.65097 2.80664 6.46979 2.80664C6.28861 2.80664 6.14173 2.95352 6.14173 3.1347Z" fill="#DA251D" stroke="white" stroke-width="0.135004" stroke-linecap="round" stroke-linejoin="round"/>
<path d="M4.69329 5.23962C4.87448 5.23962 5.02135 5.09274 5.02135 4.91156C5.02135 4.73037 4.87448 4.5835 4.69329 4.5835C4.51211 4.5835 4.36523 4.73037 4.36523 4.91156C4.36523 5.09274 4.51211 5.23962 4.69329 5.23962Z" fill="#DA251D" stroke="white" stroke-width="0.1408" stroke-linecap="round" stroke-linejoin="round"/>
<path d="M15.0833 4.78955C14.0472 4.92259 13.5722 5.5231 13.9169 6.80675" stroke="white" stroke-width="0.176" stroke-linecap="round" stroke-linejoin="round"/>
<path d="M13.8102 5.9248C12.834 6.07336 12.2676 6.51073 12.2119 7.37844" stroke="white" stroke-width="0.176" stroke-linecap="round" stroke-linejoin="round"/>
<path d="M14.712 4.86441C14.5926 4.66325 14.6492 4.41536 14.8609 4.13672" stroke="white" stroke-width="0.176" stroke-linecap="round" stroke-linejoin="round"/>
<path d="M14.7422 3.79688C14.3386 4.13384 14.1745 4.52925 14.3606 5.01003" stroke="white" stroke-width="0.176" stroke-linecap="round" stroke-linejoin="round"/>
<path d="M13.4854 5.32861C13.3311 5.55128 13.3207 5.77395 13.4542 5.99661" stroke="white" stroke-width="0.176" stroke-linecap="round" stroke-linejoin="round"/>
<path d="M13.3288 4.82178C12.934 5.14721 12.7719 5.56573 13.0244 6.15008" stroke="white" stroke-width="0.176" stroke-linecap="round" stroke-linejoin="round"/>
<path d="M13.3505 4.43896C12.5942 4.77283 12.352 5.40827 12.6745 6.37493" stroke="white" stroke-width="0.176" stroke-linecap="round" stroke-linejoin="round"/>
<path d="M15.0808 8.33015C14.8133 8.09199 14.776 7.86103 14.9688 7.63721" stroke="white" stroke-width="0.176" stroke-linecap="round" stroke-linejoin="round"/>
<path d="M15.0798 8.87253C14.3886 8.45004 14.1708 7.95744 14.6447 7.3623" stroke="white" stroke-width="0.176" stroke-linecap="round" stroke-linejoin="round"/>
<path d="M15.0796 9.34155C13.9397 8.70818 13.537 7.90026 14.5963 7.06006" stroke="white" stroke-width="0.176" stroke-linecap="round" stroke-linejoin="round"/>
<path d="M15.0847 12.6748C13.1276 11.9485 13.051 10.6576 14.7903 9.74072" stroke="white" stroke-width="0.176" stroke-linecap="round" stroke-linejoin="round"/>
<path d="M13.6367 6.89307C12.4144 7.98135 12.0686 9.1518 13.8123 10.5041" stroke="white" stroke-width="0.176" stroke-linecap="round" stroke-linejoin="round"/>
<path d="M14.1207 10.1838C13.3767 9.71611 13.0354 9.13336 13.0969 8.43555" stroke="white" stroke-width="0.176" stroke-linecap="round" stroke-linejoin="round"/>
<path d="M14.3527 10.0057C13.8946 9.74034 13.6487 9.29787 13.4209 8.88867" stroke="white" stroke-width="0.176" stroke-linecap="round" stroke-linejoin="round"/>
<path d="M14.0566 9.18506C14.1637 9.40426 14.3479 9.56716 14.6384 9.82418" stroke="white" stroke-width="0.176" stroke-linecap="round" stroke-linejoin="round"/>
<path d="M13.9759 10.8843C13.8685 11.4958 14.3502 11.8838 15.0773 12.1787" stroke="white" stroke-width="0.176" stroke-linecap="round" stroke-linejoin="round"/>
<path d="M14.332 11.062C14.3136 11.3773 14.5783 11.6061 15.0777 11.7632" stroke="white" stroke-width="0.176" stroke-linecap="round" stroke-linejoin="round"/>
<path d="M13.1832 10.5712C12.7126 10.5407 12.1867 10.4526 11.8779 10.1289" stroke="white" stroke-width="0.176" stroke-linecap="round" stroke-linejoin="round"/>
<path d="M13.0589 11.24C12.8055 11.0328 12.7238 10.8083 12.8577 10.5396" stroke="white" stroke-width="0.176" stroke-linecap="round" stroke-linejoin="round"/>
<path d="M12.5378 10.4785C12.3575 10.8906 12.472 11.2451 12.8813 11.5421" stroke="white" stroke-width="0.176" stroke-linecap="round" stroke-linejoin="round"/>
<path d="M12.7198 11.7473C12.1402 11.374 11.9345 11.0105 12.2535 10.3828" stroke="white" stroke-width="0.176" stroke-linecap="round" stroke-linejoin="round"/>
<path d="M12.5469 12.0708C13.0615 12.1976 13.4928 12.1387 13.9553 12.0264" stroke="white" stroke-width="0.176" stroke-linecap="round" stroke-linejoin="round"/>
<path d="M14.2295 12.9175C14.1913 13.2887 14.2367 13.5434 14.4021 13.7535" stroke="white" stroke-width="0.176" stroke-linecap="round" stroke-linejoin="round"/>
<path d="M13.4316 12.7881C13.6512 13.0253 13.8685 13.1981 14.2176 13.1819" stroke="white" stroke-width="0.176" stroke-linecap="round" stroke-linejoin="round"/>
<path d="M13.0264 12.7017C13.3215 13.2597 13.7316 13.5157 14.2569 13.4696" stroke="white" stroke-width="0.176" stroke-linecap="round" stroke-linejoin="round"/>
<path fill-rule="evenodd" clip-rule="evenodd" d="M9.42316 7.75503H7.59594L7.32626 8.06786H6.77484V6.92371C5.27382 5.60886 7.36162 4.66507 8.00735 3.06045L9.42316 7.75503ZM9.19244 8.82443L9.34604 9.08013L8.00735 13.519C7.36162 11.9144 5.27382 10.9706 6.77484 9.65574V8.5116H7.32626L7.59594 8.82443H9.19244ZM9.57591 9.24621C9.88451 9.40153 9.54903 9.67151 10.735 9.44934L10.9076 9.63273C11.4754 9.25028 12.0957 9.67829 13.0758 9.83769C12.4964 9.13157 12.4254 8.38635 12.968 7.59395C12.3423 7.58673 11.7885 7.66944 11.393 7.94993H10.5624C10.3271 7.80642 10.045 7.72133 9.6946 7.72158L8.13875 2.63137C8.15088 2.57339 8.16096 2.51458 8.16866 2.45486C8.37182 2.55558 8.55701 2.57349 8.7158 2.45915C8.93452 2.30161 9.16399 2.49453 9.70898 2.41266C9.21287 2.44253 8.95841 2.20888 8.70414 2.31791C8.48395 2.41232 8.32199 2.35326 8.18632 2.19993C8.18815 2.07325 8.17996 1.94289 8.15888 1.80808C8.03754 1.03239 7.01846 1.74969 7.80027 2.00167C8.15261 4.07363 4.19613 5.35436 5.9455 7.1409V8.06786H4.15483C4.2007 7.92724 4.28341 7.79578 4.38675 7.66947C3.88786 7.87625 3.29458 8.083 2.62305 8.28972C3.29458 8.49645 3.88786 8.70322 4.38675 8.90999C4.28341 8.78367 4.2007 8.65222 4.15483 8.5116H5.9455V9.43855C4.19613 11.2251 8.15261 12.5058 7.80027 14.5778C7.01846 14.8298 8.03754 15.5471 8.15888 14.7714C8.17996 14.6366 8.18815 14.5062 8.18632 14.3795C8.32199 14.2262 8.48395 14.1671 8.70414 14.2615C8.95841 14.3706 9.21287 14.1369 9.70898 14.1668C9.16399 14.0849 8.93452 14.2778 8.7158 14.1203C8.55701 14.006 8.37182 14.0239 8.16866 14.1246C8.16096 14.0649 8.15088 14.0061 8.13875 13.9481L9.57591 9.24621Z" fill="#DA251D" stroke="white" stroke-width="0.1232" stroke-linejoin="round"/>
<path fill-rule="evenodd" clip-rule="evenodd" d="M9.47289 8.08492C9.44428 8.18619 9.70385 8.20358 9.79651 8.20358C10.0085 8.20358 9.99363 8.28596 10.1149 8.43846C10.4181 8.81961 10.5033 8.66733 10.5918 8.78613C10.5007 8.86372 10.2852 8.63011 10.2824 8.91277C10.2781 9.34211 10.7983 9.44371 10.8426 8.95395C10.8844 8.49314 10.7954 8.40418 10.5192 8.12807C10.4004 8.0092 9.55034 7.81087 9.47289 8.08492Z" fill="#F8C300"/>
<path fill-rule="evenodd" clip-rule="evenodd" d="M9.49449 8.41587C9.28376 8.44284 9.39571 8.64291 9.57276 8.59606C9.83204 8.52744 10.0569 8.34385 9.49449 8.41587Z" fill="#F8C300"/>
<path fill-rule="evenodd" clip-rule="evenodd" d="M9.56886 8.74903C9.42331 8.81308 9.53066 8.98762 9.71295 8.89746C10.0189 8.74617 10.1023 8.51427 9.56886 8.74903Z" fill="#F8C300"/>
<path fill-rule="evenodd" clip-rule="evenodd" d="M9.76557 9.00075C9.64747 9.07334 9.7418 9.23769 9.91129 9.12531C10.1706 8.95335 10.1327 8.7751 9.76557 9.00075Z" fill="#F8C300"/>
<path fill-rule="evenodd" clip-rule="evenodd" d="M9.98278 9.20146C9.86988 9.297 10.0111 9.42747 10.1309 9.28372C10.2802 9.10445 10.1068 9.09652 9.98278 9.20146Z" fill="#F8C300"/>
<path fill-rule="evenodd" clip-rule="evenodd" d="M12.2418 8.48026C12.1824 8.07945 12.3618 8.18488 12.3792 7.99805C11.6181 8.06281 11.5124 8.23808 11.848 8.75397C11.911 8.4806 11.6877 8.4137 11.9505 8.27931C11.9528 8.39282 11.9924 8.52957 12.0665 8.65022C12.1088 8.50417 12.0269 8.29016 12.134 8.22125C12.1545 8.31928 12.1781 8.4184 12.2418 8.48026Z" fill="#F8C300"/>
<path fill-rule="evenodd" clip-rule="evenodd" d="M11.2546 8.95128C11.2457 8.73368 11.2633 8.52681 11.3407 8.44554C11.3599 8.60335 11.3776 8.74461 11.4873 8.83441C11.4783 8.56451 11.4697 8.42604 11.5344 8.37022C11.381 8.26321 11.3013 8.22183 11.1876 8.21533C11.1241 8.55539 11.1541 8.8195 11.2546 8.95128Z" fill="#F8C300"/>
<path fill-rule="evenodd" clip-rule="evenodd" d="M7.58835 8.1875L7.5 8.28997H9.19019L9.27855 8.1875H7.58835Z" fill="#F8C300" stroke="#F8C300" stroke-width="0.1056" stroke-linecap="round" stroke-linejoin="round"/>
<path d="M9.39068 8.05811L9.27909 8.18756M7.70046 8.05811L7.58887 8.18756M7.94191 8.05811L7.83033 8.18756M8.18338 8.05811L8.07179 8.18756M8.42484 8.05811L8.31324 8.18756M8.66629 8.05811L8.55471 8.18756M8.90776 8.05811L8.79617 8.18756M9.14921 8.05811L9.03763 8.18756" stroke="#F8C300" stroke-width="0.1056" stroke-linecap="round" stroke-linejoin="round"/>
</svg>
