<svg width="18" height="18" viewBox="0 0 18 18" fill="none" xmlns="http://www.w3.org/2000/svg">
<path fill-rule="evenodd" clip-rule="evenodd" d="M8.76492 17.1838C8.85765 16.4195 9.50634 15.8275 10.2962 15.8275L13.5353 15.7454C14.3899 15.7454 15.076 15.0556 15.076 14.2009V0.816406H2.41284V14.2009C2.41284 15.0556 3.11933 15.7454 3.97398 15.7454L7.21313 15.8275C8.00295 15.8275 8.66122 16.4195 8.75556 17.1838L8.76492 17.1838Z" fill="#F8C300" stroke="#F8C300" stroke-width="0.176" stroke-linecap="round"/>
<path fill-rule="evenodd" clip-rule="evenodd" d="M15.085 2.45947C14.6501 2.50414 14.3195 2.5824 13.9924 2.96647C13.1968 3.06468 12.8103 3.50111 12.7626 4.21778C12.1657 4.64208 11.9716 5.2965 12.1801 6.18104C11.4787 6.62026 11.198 7.16464 11.5323 7.86271L11.5417 9.48344C11.5946 9.70607 11.7103 9.92085 11.8781 10.1292C11.3819 10.9274 11.6048 11.6394 12.5469 12.0709C12.5503 13.4248 13.3055 13.8095 14.4023 13.7537C14.5465 13.9466 14.7736 14.0944 15.0761 14.2011L15.085 2.45947Z" fill="#007CC3" stroke="#007CC3" stroke-width="0.176" stroke-linecap="round" stroke-linejoin="round"/>
<path d="M15.085 2.45947C14.6501 2.50414 14.3195 2.5824 13.9924 2.96647C13.1968 3.06468 12.8103 3.50111 12.7626 4.21778C12.1657 4.64208 11.9716 5.2965 12.1801 6.18104C11.4787 6.62026 11.198 7.16464 11.5323 7.86271L11.5417 9.48344C11.5946 9.70607 11.7103 9.92085 11.8781 10.1292C11.3819 10.9274 11.6048 11.6394 12.5469 12.0709C12.5503 13.4248 13.3055 13.8095 14.4023 13.7537C14.5465 13.9466 14.7736 14.0944 15.0761 14.2011" stroke="white" stroke-width="0.176" stroke-linecap="round" stroke-linejoin="round"/>
<path fill-rule="evenodd" clip-rule="evenodd" d="M4.46722 3.35969C3.9546 3.48624 3.56907 3.66934 3.28052 3.90121V2.36786C3.56907 2.59973 3.9546 2.78283 4.46722 2.90936C4.34069 2.39674 4.15759 2.01121 3.92572 1.72266H5.45907C5.2272 2.01121 5.0441 2.39674 4.91755 2.90936C5.43019 2.78283 5.81571 2.59973 6.10427 2.36786V3.90121C5.81571 3.66934 5.43019 3.48624 4.91755 3.35969C5.0441 3.87233 5.2272 4.25785 5.45907 4.54641H3.92572C4.15759 4.25785 4.34069 3.87233 4.46722 3.35969Z" fill="#DA251D" stroke="white" stroke-width="0.1408" stroke-linecap="round" stroke-linejoin="round"/>
<path d="M4.69232 1.6859C4.8735 1.6859 5.02038 1.53903 5.02038 1.35784C5.02038 1.17666 4.8735 1.02979 4.69232 1.02979C4.51114 1.02979 4.36426 1.17666 4.36426 1.35784C4.36426 1.53903 4.51114 1.6859 4.69232 1.6859Z" fill="#DA251D" stroke="white" stroke-width="0.1408" stroke-linecap="round" stroke-linejoin="round"/>
<path d="M3.24352 3.13483C3.24352 2.95365 3.09665 2.80677 2.91546 2.80677C2.73428 2.80677 2.5874 2.95365 2.5874 3.13483C2.5874 3.31601 2.73428 3.46289 2.91546 3.46289C3.09665 3.46289 3.24352 3.31601 3.24352 3.13483Z" fill="#DA251D" stroke="white" stroke-width="0.135004" stroke-linecap="round" stroke-linejoin="round"/>
<path d="M6.141 3.1347C6.141 3.31588 6.28788 3.46276 6.46906 3.46276C6.65024 3.46276 6.79712 3.31588 6.79712 3.1347C6.79712 2.95352 6.65024 2.80664 6.46906 2.80664C6.28788 2.80664 6.141 2.95352 6.141 3.1347Z" fill="#DA251D" stroke="white" stroke-width="0.135004" stroke-linecap="round" stroke-linejoin="round"/>
<path d="M4.69232 5.23962C4.8735 5.23962 5.02038 5.09274 5.02038 4.91156C5.02038 4.73037 4.8735 4.5835 4.69232 4.5835C4.51114 4.5835 4.36426 4.73037 4.36426 4.91156C4.36426 5.09274 4.51114 5.23962 4.69232 5.23962Z" fill="#DA251D" stroke="white" stroke-width="0.1408" stroke-linecap="round" stroke-linejoin="round"/>
<path d="M15.083 4.78955C14.047 4.92259 13.5719 5.5231 13.9167 6.80675" stroke="white" stroke-width="0.176" stroke-linecap="round" stroke-linejoin="round"/>
<path d="M13.8107 5.9248C12.8345 6.07336 12.2681 6.51073 12.2124 7.37844" stroke="white" stroke-width="0.176" stroke-linecap="round" stroke-linejoin="round"/>
<path d="M14.7118 4.86441C14.5923 4.66325 14.649 4.41536 14.8606 4.13672" stroke="white" stroke-width="0.176" stroke-linecap="round" stroke-linejoin="round"/>
<path d="M14.742 3.79688C14.3383 4.13384 14.1742 4.52925 14.3603 5.01003" stroke="white" stroke-width="0.176" stroke-linecap="round" stroke-linejoin="round"/>
<path d="M13.4854 5.32861C13.3311 5.55128 13.3207 5.77395 13.4542 5.99661" stroke="white" stroke-width="0.176" stroke-linecap="round" stroke-linejoin="round"/>
<path d="M13.3288 4.82178C12.934 5.14721 12.7719 5.56573 13.0244 6.15008" stroke="white" stroke-width="0.176" stroke-linecap="round" stroke-linejoin="round"/>
<path d="M13.3505 4.43896C12.5942 4.77283 12.352 5.40827 12.6745 6.37493" stroke="white" stroke-width="0.176" stroke-linecap="round" stroke-linejoin="round"/>
<path d="M15.0805 8.33015C14.8131 8.09199 14.7757 7.86103 14.9686 7.63721" stroke="white" stroke-width="0.176" stroke-linecap="round" stroke-linejoin="round"/>
<path d="M15.08 8.87253C14.3889 8.45004 14.171 7.95744 14.6449 7.3623" stroke="white" stroke-width="0.176" stroke-linecap="round" stroke-linejoin="round"/>
<path d="M15.0796 9.34155C13.9397 8.70818 13.537 7.90026 14.5963 7.06006" stroke="white" stroke-width="0.176" stroke-linecap="round" stroke-linejoin="round"/>
<path d="M15.0849 12.6748C13.1278 11.9485 13.0512 10.6576 14.7906 9.74072" stroke="white" stroke-width="0.176" stroke-linecap="round" stroke-linejoin="round"/>
<path d="M13.6362 6.89307C12.4139 7.98135 12.0681 9.1518 13.8118 10.5041" stroke="white" stroke-width="0.176" stroke-linecap="round" stroke-linejoin="round"/>
<path d="M14.1207 10.1838C13.3767 9.71611 13.0354 9.13336 13.0969 8.43555" stroke="white" stroke-width="0.176" stroke-linecap="round" stroke-linejoin="round"/>
<path d="M14.3525 10.0057C13.8944 9.74034 13.6485 9.29787 13.4207 8.88867" stroke="white" stroke-width="0.176" stroke-linecap="round" stroke-linejoin="round"/>
<path d="M14.0569 9.18506C14.1639 9.40426 14.3482 9.56716 14.6386 9.82418" stroke="white" stroke-width="0.176" stroke-linecap="round" stroke-linejoin="round"/>
<path d="M13.9761 10.8843C13.8687 11.4958 14.3505 11.8838 15.0776 12.1787" stroke="white" stroke-width="0.176" stroke-linecap="round" stroke-linejoin="round"/>
<path d="M14.332 11.062C14.3136 11.3773 14.5783 11.6061 15.0777 11.7632" stroke="white" stroke-width="0.176" stroke-linecap="round" stroke-linejoin="round"/>
<path d="M13.1832 10.5712C12.7126 10.5407 12.1867 10.4526 11.8779 10.1289" stroke="white" stroke-width="0.176" stroke-linecap="round" stroke-linejoin="round"/>
<path d="M13.0591 11.24C12.8057 11.0328 12.724 10.8083 12.858 10.5396" stroke="white" stroke-width="0.176" stroke-linecap="round" stroke-linejoin="round"/>
<path d="M12.5376 10.4785C12.3572 10.8906 12.4717 11.2451 12.8811 11.5421" stroke="white" stroke-width="0.176" stroke-linecap="round" stroke-linejoin="round"/>
<path d="M12.7193 11.7473C12.1398 11.374 11.934 11.0105 12.2531 10.3828" stroke="white" stroke-width="0.176" stroke-linecap="round" stroke-linejoin="round"/>
<path d="M12.5469 12.0708C13.0615 12.1976 13.4928 12.1387 13.9553 12.0264" stroke="white" stroke-width="0.176" stroke-linecap="round" stroke-linejoin="round"/>
<path d="M14.2295 12.9175C14.1913 13.2887 14.2367 13.5434 14.4021 13.7535" stroke="white" stroke-width="0.176" stroke-linecap="round" stroke-linejoin="round"/>
<path d="M13.4314 12.7881C13.651 13.0253 13.8683 13.1981 14.2174 13.1819" stroke="white" stroke-width="0.176" stroke-linecap="round" stroke-linejoin="round"/>
<path d="M13.0269 12.7017C13.322 13.2597 13.7321 13.5157 14.2574 13.4696" stroke="white" stroke-width="0.176" stroke-linecap="round" stroke-linejoin="round"/>
<path fill-rule="evenodd" clip-rule="evenodd" d="M9.42267 7.75503H7.59545L7.32577 8.06786H6.77435V6.92371C5.27333 5.60886 7.36113 4.66507 8.00686 3.06045L9.42267 7.75503ZM9.19195 8.82443L9.34556 9.08013L8.00686 13.519C7.36113 11.9144 5.27333 10.9706 6.77435 9.65574V8.5116H7.32577L7.59545 8.82443H9.19195ZM9.57542 9.24621C9.88402 9.40153 9.54855 9.67151 10.7345 9.44934L10.9071 9.63273C11.4749 9.25028 12.0952 9.67829 13.0753 9.83769C12.496 9.13157 12.4249 8.38635 12.9675 7.59395C12.3418 7.58673 11.788 7.66944 11.3925 7.94993H10.5619C10.3266 7.80642 10.0445 7.72133 9.69412 7.72158L8.13826 2.63137C8.15039 2.57339 8.16047 2.51458 8.16817 2.45486C8.37133 2.55558 8.55653 2.57349 8.71531 2.45915C8.93403 2.30161 9.1635 2.49453 9.70849 2.41266C9.21238 2.44253 8.95793 2.20888 8.70365 2.31791C8.48346 2.41232 8.3215 2.35326 8.18583 2.19993C8.18767 2.07325 8.17947 1.94289 8.15839 1.80808C8.03705 1.03239 7.01797 1.74969 7.79978 2.00167C8.15212 4.07363 4.19564 5.35436 5.94501 7.1409V8.06786H4.15434C4.20021 7.92724 4.28292 7.79578 4.38626 7.66947C3.88737 7.87625 3.2941 8.083 2.62256 8.28972C3.2941 8.49645 3.88737 8.70322 4.38626 8.90999C4.28292 8.78367 4.20021 8.65222 4.15434 8.5116H5.94501V9.43855C4.19564 11.2251 8.15212 12.5058 7.79978 14.5778C7.01797 14.8298 8.03705 15.5471 8.15839 14.7714C8.17947 14.6366 8.18767 14.5062 8.18583 14.3795C8.3215 14.2262 8.48346 14.1671 8.70365 14.2615C8.95793 14.3706 9.21238 14.1369 9.70849 14.1668C9.1635 14.0849 8.93403 14.2778 8.71531 14.1203C8.55653 14.006 8.37133 14.0239 8.16817 14.1246C8.16047 14.0649 8.15039 14.0061 8.13826 13.9481L9.57542 9.24621Z" fill="#DA251D" stroke="white" stroke-width="0.1232" stroke-linejoin="round"/>
<path fill-rule="evenodd" clip-rule="evenodd" d="M9.47241 8.08492C9.44379 8.18619 9.70337 8.20358 9.79602 8.20358C10.008 8.20358 9.99315 8.28596 10.1145 8.43846C10.4177 8.81961 10.5028 8.66733 10.5913 8.78613C10.5003 8.86372 10.2847 8.63011 10.2819 8.91277C10.2776 9.34211 10.7978 9.44371 10.8421 8.95395C10.8839 8.49314 10.7949 8.40418 10.5188 8.12807C10.3999 8.0092 9.54985 7.81087 9.47241 8.08492Z" fill="#F8C300"/>
<path fill-rule="evenodd" clip-rule="evenodd" d="M9.49474 8.41587C9.284 8.44284 9.39595 8.64291 9.573 8.59606C9.83229 8.52744 10.0572 8.34385 9.49474 8.41587Z" fill="#F8C300"/>
<path fill-rule="evenodd" clip-rule="evenodd" d="M9.5691 8.74903C9.42356 8.81308 9.5309 8.98762 9.71319 8.89746C10.0192 8.74617 10.1026 8.51427 9.5691 8.74903Z" fill="#F8C300"/>
<path fill-rule="evenodd" clip-rule="evenodd" d="M9.76557 9.00075C9.64747 9.07334 9.7418 9.23769 9.91129 9.12531C10.1706 8.95335 10.1327 8.7751 9.76557 9.00075Z" fill="#F8C300"/>
<path fill-rule="evenodd" clip-rule="evenodd" d="M9.98302 9.20146C9.87012 9.297 10.0113 9.42747 10.1311 9.28372C10.2805 9.10445 10.107 9.09652 9.98302 9.20146Z" fill="#F8C300"/>
<path fill-rule="evenodd" clip-rule="evenodd" d="M12.2421 8.48026C12.1826 8.07945 12.362 8.18488 12.3795 7.99805C11.6183 8.06281 11.5127 8.23808 11.8483 8.75397C11.9112 8.4806 11.688 8.4137 11.9508 8.27931C11.9531 8.39282 11.9927 8.52957 12.0668 8.65022C12.1091 8.50417 12.0272 8.29016 12.1342 8.22125C12.1548 8.31928 12.1783 8.4184 12.2421 8.48026Z" fill="#F8C300"/>
<path fill-rule="evenodd" clip-rule="evenodd" d="M11.2543 8.95128C11.2455 8.73368 11.2631 8.52681 11.3404 8.44554C11.3597 8.60335 11.3774 8.74461 11.4871 8.83441C11.4781 8.56451 11.4695 8.42604 11.5341 8.37022C11.3807 8.26321 11.3011 8.22183 11.1873 8.21533C11.1239 8.55539 11.1539 8.8195 11.2543 8.95128Z" fill="#F8C300"/>
<path fill-rule="evenodd" clip-rule="evenodd" d="M7.58835 8.1875L7.5 8.28997H9.19019L9.27855 8.1875H7.58835Z" fill="#F8C300" stroke="#F8C300" stroke-width="0.1056" stroke-linecap="round" stroke-linejoin="round"/>
<path d="M9.39019 8.05811L9.2786 8.18756M7.69997 8.05811L7.58838 8.18756M7.94143 8.05811L7.82985 8.18756M8.18289 8.05811L8.0713 8.18756M8.42435 8.05811L8.31275 8.18756M8.6658 8.05811L8.55422 8.18756M8.90727 8.05811L8.79568 8.18756M9.14872 8.05811L9.03714 8.18756" stroke="#F8C300" stroke-width="0.1056" stroke-linecap="round" stroke-linejoin="round"/>
</svg>
