<svg width="20" height="20" viewBox="0 0 20 20" fill="none" xmlns="http://www.w3.org/2000/svg">
<path d="M4.25488 4.65363V4.76181V16.4413C4.25488 17.2448 4.87437 17.8658 5.61072 17.8658H8.48904C8.95375 17.8658 9.2474 18.021 9.44849 18.2264C9.64958 18.4317 9.75752 18.694 9.81335 18.9025L9.83137 18.9657H10.0025L10.0206 18.9025C10.0764 18.694 10.1843 18.4317 10.3854 18.2264C10.5865 18.021 10.8801 17.8658 11.3449 17.8658H14.2232C14.9595 17.8658 15.579 17.2448 15.579 16.4413V4.76181V4.65363H15.4709H9.91695H4.36299H4.25488Z" fill="white"/>
<path d="M11.6046 4.39973H8.27148V4.61625H11.6046V4.39973Z" fill="#B17842" stroke="#B17842" stroke-width="0.0440583"/>
<path d="M9.93777 0.833336C9.77628 0.985638 9.62898 1.15241 9.48757 1.32478C9.65494 1.45304 9.79458 1.59514 9.93777 1.73306C10.0809 1.59514 10.2206 1.45304 10.388 1.32478C10.2466 1.15241 10.0993 0.985638 9.93777 0.833336ZM8.52666 1.52892C8.42385 1.66487 8.3523 1.81524 8.29211 1.97123C8.43021 2.05818 8.56125 2.15656 8.68934 2.25853C8.76202 2.10306 8.82845 1.94902 8.92011 1.79355C8.79261 1.69923 8.66172 1.61064 8.52666 1.52892ZM11.3489 1.52892C11.2138 1.61064 11.0829 1.69923 10.9554 1.79355C11.0471 1.94902 11.1135 2.10306 11.1862 2.25853C11.3143 2.15656 11.4453 2.05818 11.5834 1.97123C11.5232 1.81524 11.4517 1.66487 11.3489 1.52892ZM9.33247 1.53648C9.12661 1.82696 8.97592 2.09116 8.8331 2.38329C8.98679 2.52516 9.11438 2.67112 9.22276 2.81803C9.28913 2.6414 9.38479 2.46794 9.49136 2.29634C9.56154 2.37021 9.6248 2.45193 9.68808 2.5345C9.51861 2.79767 9.38128 3.06508 9.28707 3.3246C9.13354 3.07194 8.9518 2.83568 8.73473 2.61011C8.61288 2.90532 8.50737 3.1995 8.43587 3.49471C8.22226 3.07174 7.97411 2.66453 7.69059 2.26987C7.93415 2.33757 8.07736 2.4147 8.21266 2.53072C8.18345 2.56623 8.16396 2.59333 8.14457 2.62145L8.39425 2.9957C8.45373 2.81751 8.52027 2.64729 8.59476 2.47401C8.21749 2.10966 7.61068 1.6818 6.97559 1.63477C7.59431 2.31444 8.00235 3.18512 8.27698 4.04665C8.26554 4.05033 8.25437 4.05422 8.24293 4.05799L8.27319 4.45493C9.38424 4.33664 10.4951 4.33129 11.6061 4.45493L11.6326 4.05799C11.6225 4.05473 11.6125 4.05362 11.6023 4.05043C11.877 3.18779 12.2842 2.31534 12.9037 1.63477C12.2686 1.6818 11.658 2.10966 11.2808 2.47401C11.3553 2.64729 11.4256 2.81751 11.4851 2.9957L11.731 2.62145C11.7116 2.59333 11.6921 2.56623 11.6629 2.53072C11.7982 2.4147 11.9414 2.33757 12.1849 2.26987C11.9014 2.66453 11.6533 3.07174 11.4397 3.49471C11.3682 3.1995 11.2664 2.90532 11.1446 2.61011C10.9275 2.83568 10.742 3.07194 10.5885 3.3246C10.4938 3.06388 10.358 2.79507 10.1875 2.53072C10.2504 2.44874 10.3182 2.36973 10.388 2.29634C10.4945 2.46794 10.5902 2.6414 10.6566 2.81803C10.7649 2.67112 10.8887 2.52516 11.0424 2.38329C10.8996 2.09116 10.7527 1.82696 10.5468 1.53648C10.3188 1.73722 10.1142 1.95494 9.93777 2.17915C9.76132 1.95494 9.56053 1.73722 9.33247 1.53648ZM9.93777 2.91254C10.0973 3.19586 10.2169 3.49916 10.2745 3.79336C10.0511 3.77863 9.82664 3.77958 9.60485 3.79336C9.66237 3.49945 9.77846 3.19562 9.93777 2.91254Z" fill="#D1A345" stroke="#B17842" stroke-width="0.0440583" stroke-linejoin="round"/>
<path d="M10.9242 4.26351L11.2398 4.15926L10.9322 4.00422L10.6085 4.10312L10.9242 4.26351ZM9.6 4.08708L9.93973 3.94273L10.2795 4.08708L9.93973 4.22074L9.6 4.08708ZM8.95531 4.26351L8.63965 4.15926L8.94728 4.00422L9.27096 4.10312L8.95531 4.26351Z" fill="#B17842"/>
<path d="M11.6067 4.45314C11.7122 4.50713 11.6296 4.62831 11.6067 4.61619C11.3962 4.505 10.6818 4.43404 9.94014 4.43977C9.19847 4.43404 8.48405 4.505 8.27358 4.61619C8.25064 4.62831 8.16813 4.50713 8.27358 4.45314C8.48546 4.34466 9.19847 4.27099 9.94014 4.27671C10.6818 4.27099 11.3948 4.34466 11.6067 4.45314ZM11.6442 3.91301C11.7095 3.94276 11.7084 4.08945 11.6361 4.05752C11.4302 3.96653 10.6818 3.8914 9.94014 3.89713C9.19847 3.8914 8.45009 3.96653 8.24415 4.05752C8.17188 4.08945 8.17078 3.94276 8.23612 3.91301C8.44102 3.81972 9.19847 3.7469 9.94014 3.75263C10.6818 3.7469 11.4393 3.81972 11.6442 3.91301Z" fill="#D1A345" stroke="#B17842" stroke-width="0.0881166" stroke-linejoin="round"/>
<path d="M4.16797 4.6006V4.71071V16.5975C4.16797 17.4153 4.79938 18.0473 5.54988 18.0473H8.48358C8.95723 18.0473 9.25652 18.2053 9.46148 18.4143C9.66644 18.6233 9.77645 18.8902 9.83335 19.1024L9.85172 19.1667H10.0262L10.0445 19.1024C10.1014 18.8902 10.2115 18.6233 10.4164 18.4143C10.6214 18.2053 10.9207 18.0473 11.3943 18.0473H14.328C15.0785 18.0473 15.7099 17.4153 15.7099 16.5975V4.71071V4.6006H15.5997H9.93895H4.27815H4.16797ZM4.38834 4.82081H9.93895H15.4896V16.5975C15.4896 17.3029 14.9548 17.827 14.328 17.827H11.3943C10.8699 17.827 10.5031 18.0154 10.2603 18.2629C10.1059 18.4203 10.0109 18.5927 9.93895 18.7629C9.86701 18.5931 9.77621 18.4199 9.62217 18.2629C9.37941 18.0154 9.00801 17.827 8.48358 17.827H5.54988C4.92306 17.827 4.38834 17.3029 4.38834 16.5975V4.82081Z" fill="black"/>
<path fill-rule="evenodd" clip-rule="evenodd" d="M9.74707 7.49847C9.78857 7.39892 9.87022 7.33124 9.99763 7.3482C10.0715 7.35804 10.0998 7.36555 10.1523 7.41792C10.1832 7.4488 10.1924 7.54137 10.2107 7.5536C10.1671 7.64329 9.98342 7.63988 9.90901 7.59694C9.84591 7.56054 9.77429 7.57864 9.74707 7.49847Z" fill="#252525" stroke="#252525" stroke-width="0.0131762"/>
<path fill-rule="evenodd" clip-rule="evenodd" d="M9.14679 11.3664C9.04248 11.3664 8.9583 11.3344 8.87892 11.2767C8.78264 11.2068 8.6703 11.1086 8.65599 11.2805C8.65032 11.3486 8.50864 11.0872 8.50864 11.2012C8.50864 11.2271 8.4882 11.3165 8.50108 11.3372C8.5601 11.4315 8.21354 11.2335 8.17993 11.2088C8.09329 11.1452 8.05626 11.0534 7.97967 10.9747C7.95282 10.8941 7.81846 10.6869 7.7643 10.6009C7.65449 10.4264 7.53901 10.4294 7.51494 10.3668C7.44529 10.1859 7.19078 9.64939 6.93684 9.80803C6.83761 9.87002 6.88016 9.35607 6.88016 9.24925C6.88016 8.88056 6.88993 8.52863 7.27311 8.94342C7.68538 9.38969 7.91034 9.63041 8.47841 9.86844C8.72835 9.97317 8.8767 9.51158 9.08976 9.5158C9.48872 9.99852 9.63567 10.9274 9.14679 11.3664Z" fill="#252525" stroke="#252525" stroke-width="0.0131762"/>
<path fill-rule="evenodd" clip-rule="evenodd" d="M9.8766 14.5245C9.83544 14.5006 9.77232 14.3596 9.6834 14.3652L9.68413 14.921C9.68442 15.0721 9.60319 15.2219 9.63264 15.273C9.55043 15.2392 9.51515 15.0977 9.49236 15.1007C9.47872 15.1173 9.52086 15.2142 9.5343 15.3618C9.56145 15.6599 9.64867 15.8799 9.57077 15.9744C9.53915 16.0127 9.36898 16.0616 9.27133 16.1431C9.12858 16.2623 8.99981 16.4174 8.97046 16.4305C8.80071 16.5066 8.66265 16.506 8.27944 16.506C8.07563 16.506 7.79306 16.608 7.72069 16.6775C7.71966 16.6196 7.72691 16.5921 7.74351 16.5323C7.76848 16.4425 7.82454 16.4269 7.82045 16.4275C7.81635 16.4281 7.70431 16.4452 7.60166 16.536C7.49901 16.6267 7.53078 16.6177 7.52618 16.6124C7.43675 16.4831 7.69731 16.2956 7.67535 16.286C7.6098 16.2576 7.40641 16.4322 7.35335 16.4453C7.32583 16.3327 7.62582 16.1148 7.62498 16.1217C7.62113 16.1527 7.39423 16.224 7.36179 16.2368C7.35574 16.2124 7.35424 16.1379 7.46658 16.0775C7.65443 15.9764 7.78424 15.9576 8.02819 15.9433C8.18598 15.9341 8.31181 15.9495 8.39975 15.9155C8.48236 15.8834 8.55112 15.8347 8.60052 15.7724C8.67737 15.6754 8.74134 15.5042 8.6744 15.2786C8.64111 15.1664 8.5855 15.1118 8.56903 15.0724C8.52064 15.1146 8.46393 15.1041 8.4503 15.1795C8.38074 15.0904 8.3732 14.8993 8.32657 14.8667C8.29033 14.8413 8.1919 14.9657 8.17465 15.0484C8.15868 14.877 8.18812 14.528 8.14911 14.5203C8.12172 14.5972 8.06575 14.6052 8.0015 14.6363C8.02772 14.6073 8.05219 14.5525 8.07157 14.4875C8.11303 14.3486 8.09088 14.1546 8.09257 14.1046C8.10184 13.8307 8.17667 13.5794 8.27155 13.4063C8.40866 13.1561 8.75065 13.0495 8.96214 12.8703C9.18116 12.6847 9.40336 12.3261 9.465 12.1092C9.51639 11.7753 9.25608 11.6341 9.21451 11.6661C9.19567 11.6537 9.18111 11.6321 9.16854 11.6163C9.04121 11.4559 9.12755 11.211 9.0525 11.016C9.00485 10.8922 8.9738 10.7882 8.93034 10.8583C8.90107 10.7865 8.90524 10.8226 8.88516 10.6875C8.8651 10.5523 8.98454 10.0551 8.96247 10.0617C8.85069 10.0954 8.84337 10.1315 8.78702 10.1453C8.82607 10.0682 8.86912 10.014 8.90863 9.92758C8.9612 9.81265 9.04766 9.60681 9.0892 9.52461C9.13073 9.44239 9.24699 9.28329 9.26247 9.25107C9.17747 9.28114 9.08394 9.37505 9.06614 9.37534C9.05665 9.32443 9.18084 9.16623 9.18701 9.00735C9.1907 8.91271 9.11052 8.83288 9.04922 8.77155C8.98795 8.71027 8.90154 8.67927 8.80979 8.67927C8.7521 8.67927 8.71458 8.72802 8.68959 8.73083C8.66878 8.73317 8.65703 8.68907 8.65703 8.58883C8.65703 8.56288 8.65791 8.53081 8.67976 8.52712C8.72678 8.48687 8.84914 8.48886 8.95327 8.51852C9.02772 8.53971 9.09834 8.59692 9.13343 8.60529C9.36943 8.66165 9.40809 8.44745 9.24915 8.34762C9.16405 8.29418 9.01681 8.30366 8.88085 8.30965C8.8007 8.3132 8.73062 8.33992 8.67211 8.32717C8.64534 8.32134 8.61693 8.27704 8.60328 8.25391C8.58592 8.22447 8.55902 8.15714 8.51473 8.10334C8.47295 8.05258 8.41528 8.01317 8.41195 7.97213C8.41032 7.95209 8.43892 7.92084 8.45526 7.90858C8.57452 7.81921 8.81912 7.76348 9.00519 7.73284C9.1191 7.71407 9.17997 7.73053 9.26801 7.67868C9.34936 7.63079 9.50966 7.5006 9.59989 7.49591C9.7183 7.48976 9.85472 7.51125 9.97893 7.52834C10.0221 7.53428 10.0572 7.55612 10.0986 7.55612C10.2502 7.51354 10.5034 7.34964 10.5899 7.57693C10.6055 7.61794 10.6219 7.67527 10.6274 7.72848C10.6303 7.75634 10.6191 7.78653 10.6267 7.8058C10.6358 7.82909 10.7066 7.83517 10.7564 7.88266C10.901 8.02064 11.1091 8.27495 11.1802 8.34762C11.2235 8.39194 11.2496 8.42466 11.2414 8.43464C11.2334 8.44446 11.1649 8.41715 11.1412 8.42824C11.1346 8.44442 11.1468 8.48426 11.1726 8.54545C11.2144 8.64435 11.4427 8.72855 11.5441 8.79046C11.5694 8.80591 11.6004 8.85039 11.5971 8.86419C11.5704 8.86347 11.4568 8.87099 11.4932 8.97324C11.5008 8.99471 11.562 9.01527 11.643 9.04278C11.8041 9.09746 12.0118 9.26602 12.0537 9.32375C12.0956 9.38147 12.1211 9.41312 12.1513 9.45374C12.1827 9.49594 12.2236 9.52587 12.1551 9.53289C12.1364 9.53479 12.1623 9.63831 12.2062 9.63831C11.7373 10.2851 11.365 10.9757 11.8139 11.7233C11.9382 11.9303 12.5976 12.2992 12.8584 12.2011C12.9075 12.2595 13.1278 12.4923 13.089 12.6131C13.0282 12.5894 13.0504 12.5698 13.0565 12.6383L13.0753 12.8512C13.0864 12.9761 12.9895 12.8399 12.9207 12.8399C12.8243 12.8399 12.9326 12.8696 12.9868 12.9474C13.0466 13.0331 13.1164 13.3733 13.1512 13.6208C13.1675 13.7363 13.3325 13.8372 13.3794 13.8928C13.2557 13.8536 13.3491 14.0843 13.4717 14.2879C13.5615 14.4369 13.6759 14.5876 13.7437 14.7298C13.7912 14.8295 13.9472 15.1178 13.8723 15.2218C13.8349 15.2738 13.748 15.3206 13.6704 15.4187C13.519 15.5947 13.3897 15.907 13.3706 16.1301C13.3445 16.4437 13.0103 16.4687 12.7844 16.5266C12.6725 16.6596 12.6497 16.6407 12.6305 16.6447C12.5929 16.6008 12.6079 16.5563 12.6154 16.4483C12.6163 16.4355 12.5771 16.4776 12.5209 16.5068C12.4403 16.5488 12.3313 16.5874 12.3128 16.5937C12.3045 16.5577 12.3585 16.446 12.3509 16.4594C12.3397 16.4794 12.2824 16.4844 12.2258 16.5114C12.1735 16.5363 12.1271 16.5713 12.1053 16.5805C12.1034 16.537 12.0787 16.574 12.1066 16.4709C12.1213 16.4165 12.1324 16.3978 12.1283 16.3977C12.1243 16.3977 12.0286 16.4066 11.9899 16.4425C11.9284 16.4996 11.8808 16.5195 11.8637 16.5238C11.8592 16.4843 11.8934 16.3847 11.9456 16.3189C12.0051 16.2366 12.0634 16.168 12.1585 16.1461C12.2598 16.1229 12.3741 16.1326 12.4573 16.0526C12.5709 15.9432 12.7336 15.7404 12.7799 15.5635C12.8534 15.2833 12.8102 14.8991 12.475 14.8151C12.423 14.8021 12.441 14.8859 12.4993 14.9363C12.4534 14.9933 12.2818 14.7792 12.2645 14.8016C12.2587 14.8545 12.2612 14.9236 12.298 14.9621C12.2664 14.9677 12.2298 14.9082 12.1636 14.858C12.0238 14.752 11.9938 14.7499 11.8361 14.7499C12.0242 14.4944 12.2103 14.1892 12.0103 13.8149C11.421 12.7122 10.42 13.6441 10.0247 14.1858C9.91408 14.3375 9.87522 14.4951 9.87655 14.5245L9.8766 14.5245Z" fill="#252525" stroke="#252525" stroke-width="0.0131762"/>
<path d="M10.1387 7.65832C10.2344 7.68874 10.3102 7.52465 10.4374 7.59733C10.5155 7.64193 10.5156 7.73232 10.5156 7.81457" stroke="#252525" stroke-width="0.0131762"/>
<path fill-rule="evenodd" clip-rule="evenodd" d="M12.8979 12.304C12.9725 12.3539 12.9234 12.3238 12.981 12.3982C12.9779 12.402 12.9664 12.3906 12.946 12.3898C13.0415 12.4959 13.0295 12.4291 13.0709 12.5681C13.034 12.5448 13.0048 12.4986 12.9599 12.4886C12.999 12.5393 13.0359 12.6236 13.041 12.6868C13.0254 12.669 12.9798 12.6215 12.9732 12.6113C12.9726 12.6771 13.0574 12.7534 13.0361 12.845C12.9806 12.8064 12.9612 12.7778 12.8886 12.7566C12.897 12.7795 12.8916 12.784 12.9018 12.8087C12.8642 12.7929 12.7463 12.8119 12.71 12.793L12.7703 12.2875C12.8143 12.3007 12.8539 12.2745 12.8979 12.304Z" fill="#A92211" stroke="#252525" stroke-width="0.0131762"/>
<path d="M9.81358 7.7451C9.74064 7.76592 9.84206 7.83899 9.74076 7.85532C9.67053 7.86663 9.61272 7.90027 9.53516 7.90027" stroke="#252525" stroke-width="0.0131762"/>
<path fill-rule="evenodd" clip-rule="evenodd" d="M9.16799 8.84864L9.20306 8.82789C9.20506 8.83556 9.20662 8.84363 9.20763 8.85211L9.24095 8.83418L9.22636 8.87702L9.27233 8.84094C9.27384 8.85435 9.27379 8.8712 9.27261 8.89021L9.25785 8.9385L9.26896 8.93506C9.26117 9.01334 9.24696 9.10749 9.2581 9.15431L9.50167 9.07072L9.51104 9.10089L9.48972 9.1513L9.51985 9.12923L9.52884 9.1582L9.49762 9.21593L9.53622 9.18193L9.54762 9.21861C9.54762 9.21861 9.6042 9.19386 9.63051 9.18345L9.58121 9.26006L9.56228 9.2837L9.54178 9.31996L9.51023 9.30735L9.42978 9.34833L9.4424 9.18598L9.34617 9.26163L9.29727 9.35149L9.34617 9.3373L9.12415 9.60213C9.04541 9.72625 8.95401 9.8578 8.89122 9.99099L9.08256 9.8786L9.08775 9.96441L9.24522 9.71088L9.23656 9.97637L9.31619 9.82911L9.35027 9.76478C9.38501 9.84493 9.3699 9.86753 9.40644 9.99611L9.45973 9.84487L9.47237 9.96308L9.50865 9.87324L9.53577 9.95706L9.5566 9.87932L9.58809 9.94766L9.63484 9.86378L9.66311 9.9098L10.7138 9.74872L10.7201 9.66517L10.7122 9.61631L10.8353 9.41769V9.44607L10.8826 9.38617L10.717 9.15604L10.6886 9.28213L10.463 9.10085L10.4614 9.19543L10.4283 9.31208L10.3747 9.25691L10.321 9.15761L10.3037 9.21908L10.2469 9.28686L10.1854 9.2506L10.1759 9.20805L10.2469 9.25376L10.2832 9.20962L10.2926 9.12766L10.3194 9.1245L10.4188 9.26322L10.4346 9.17495L10.4283 9.05358L10.6444 9.20489L10.6491 9.04411L10.7059 9.07721L10.7154 9.04727L10.8815 9.22908L10.8932 9.08671L10.9973 9.11343L10.9207 8.97794L11.122 9.07L11.0469 8.95744L11.315 9.04368L11.1605 8.85657L11.3787 8.95054L11.2394 8.76514L11.4341 8.86031L11.2488 8.69578L11.2851 8.69892L10.9993 8.53339L11.1495 8.56567L11.0815 8.42978L11.1635 8.38959L11.0232 8.26267L10.9858 8.3645L10.8274 8.38995L10.8463 8.44196L10.7706 8.43093L10.7801 8.52551L10.7201 8.49241L10.8047 8.59469L10.7858 8.59311L10.7874 8.64355L10.6917 8.59329L10.6933 8.70836L10.5782 8.64846L10.5892 8.79506L10.4378 8.7052L10.4094 8.92115L10.2816 8.77299L10.3605 8.80925L10.4062 8.65634L10.5308 8.71467L10.5482 8.5854L10.6602 8.65634L10.6302 8.50816L10.7075 8.54915L10.6586 8.46403L10.7454 8.47822L10.7107 8.37261L10.7927 8.39626C10.7927 8.39626 10.7548 8.3395 10.7643 8.34107C10.7738 8.34266 10.8816 8.33927 10.8816 8.33927L10.8077 8.26345L10.958 8.28691L10.868 8.22668C10.8752 8.22516 10.8823 8.22361 10.8896 8.22199L10.9822 8.21275C10.9639 8.17416 10.8706 8.18153 10.8982 8.11723C10.9074 8.09152 10.8161 8.04195 10.7931 8.02909V8.00338H10.8391C10.8391 7.98409 10.8023 7.94552 10.7747 7.94552L10.6525 7.89764C10.6125 7.89762 10.6029 7.85009 10.6069 7.81128L10.6012 7.70839C10.5874 7.58623 10.5678 7.5533 10.5035 7.51472C10.3702 7.43112 10.1111 7.57836 10.1019 7.57194C10.0779 7.57194 9.84454 7.52021 9.76066 7.5116C9.68795 7.5116 9.62884 7.4998 9.58213 7.51312C9.3946 7.56661 9.36992 7.69151 9.20142 7.72491C8.98477 7.76785 8.90634 7.77711 8.75263 7.81078C8.63316 7.85578 8.60528 7.905 8.5823 8.0143C8.55013 8.16219 8.65191 8.25782 8.71704 8.28918C8.7538 8.2956 9.13367 8.24487 9.1833 8.25281C9.35915 8.25937 9.58283 8.55979 9.43275 8.65921C9.33625 8.71709 8.91347 8.54347 8.77561 8.54347C8.62396 8.54347 8.66532 8.65279 8.70209 8.64635C8.81237 8.62706 8.76183 8.62064 8.86752 8.64635C8.97756 8.6729 9.12517 8.69068 9.18365 8.78294L9.16794 8.84864L9.16799 8.84864Z" fill="#A92211"/>
<path fill-rule="evenodd" clip-rule="evenodd" d="M12.6082 13.0768C12.6027 13.0811 12.5413 13.0648 12.5165 13.0653C12.553 13.1289 12.4467 13.0347 12.4371 13.0325C12.3719 13.017 12.6605 13.2594 12.6154 13.2407C12.63 13.2713 12.6889 12.7578 12.8126 12.8344C12.86 12.8638 13.0439 13.0961 13.0563 13.2765C13.0584 13.3075 12.9618 13.2252 12.9707 13.2539C12.9883 13.3105 13.0729 13.4112 13.0878 13.4604C13.0965 13.4892 12.9579 13.4328 12.9663 13.4599C13.0724 13.4716 13.0734 13.5705 13.1188 13.6458L13.0526 13.6356L13.2264 13.8301L13.0291 13.6983L13.2355 13.8956L13.082 13.8347L13.2795 13.9828L13.0469 13.9042L13.3431 14.1147L13.098 14.098L13.395 14.2349C13.3336 14.2405 13.2355 14.2391 13.1798 14.2356C13.2047 14.2784 13.3361 14.2267 13.4498 14.3333C13.4876 14.3688 13.5337 14.4479 13.5781 14.5194L13.7291 14.7848L13.8181 14.9546C13.83 14.9774 13.8548 15.1727 13.8296 15.1922C13.7026 15.2904 13.4619 15.6084 13.4172 15.7788L13.3821 15.9184C13.3577 15.9937 13.2937 16.2635 13.2319 16.3084C13.1655 16.3566 13.1783 16.3595 13.1051 16.3873L13.0899 16.426L13.0797 16.3905L13.0229 16.4155L13.0002 16.378L12.9465 16.4519L12.9323 16.382L12.8847 16.438L12.8738 16.3874L12.8375 16.374L12.7184 16.4164L12.797 16.3019C12.571 16.4674 12.6189 16.4128 12.5709 16.3437C12.5674 16.3387 12.509 16.3466 12.5063 16.3405C12.5016 16.33 12.6797 16.2224 12.6729 16.2122C12.6691 16.2065 12.4948 16.2999 12.4878 16.2989L12.4378 16.3243L12.373 16.2973L12.3632 16.2788L12.4657 16.2302L12.5942 16.1522C12.6413 16.0976 12.7049 16.0621 12.7857 15.9726C12.7111 15.9496 12.5632 16.1139 12.513 16.153L12.3683 16.2216L12.3196 16.2361L12.3013 16.2435L12.2682 16.2306L12.2437 16.1626L12.3529 16.1429L12.4057 16.1209L12.4937 16.0696L12.4569 16.0598L12.674 15.9306L12.5886 15.9209L12.7327 15.8651L12.6628 15.8313L12.8381 15.5987L12.7832 15.601L12.8664 15.5432L12.8059 15.5408L12.9082 15.4637L12.8539 15.4623L12.947 15.4025L12.8803 15.3991L12.982 15.3255L12.9019 15.3051L12.8308 15.2402L12.8507 14.9883L12.8015 14.9953L12.8209 14.9159L12.7714 14.9641L12.7673 14.832L12.7249 14.9152L12.6941 14.8301L12.7296 14.7308L12.6676 14.8215L12.6817 14.6516L12.6374 14.7756L12.6107 14.5762L12.6 14.7734L12.528 14.5139L12.5471 14.7295L12.4353 14.5659L12.467 14.7578L12.3489 14.613L12.3735 14.8015L12.205 14.5894C12.2087 14.6603 12.2009 14.7249 12.217 14.8078L11.9424 14.6703L11.9884 14.4256L12.2234 14.3019L12.4556 13.9393C12.5747 13.6625 12.4792 13.0706 12.6881 12.8664C12.736 12.8544 12.7652 12.8484 12.7968 12.869C12.8176 12.8826 12.6113 13.0744 12.6082 13.0768Z" fill="#A92211" stroke="#252525" stroke-width="0.0131762"/>
<path fill-rule="evenodd" clip-rule="evenodd" d="M8.1146 10.9781L8.13923 10.8429C8.15617 10.8916 8.18414 11.0228 8.19793 11.0613L8.19734 10.865L8.26387 11.1227L8.28005 10.9678L8.33384 11.167L8.3306 11.0128L8.4835 11.343C8.4835 11.3365 8.47766 11.1093 8.50064 11.0193L8.54461 11.1489L8.57876 11.0321L8.59255 11.0193L8.62471 11.0321L8.64309 11.0707L8.67067 11.0578L8.70742 11.0771L8.7396 11.0386L8.78095 11.1093L8.80853 11.0707L8.8361 11.1029L8.86827 11.09L8.90502 11.1543L8.95098 11.135L9.03752 11.2922L9.03708 11.2675C8.844 10.7965 8.84336 10.1479 9.04391 9.64292C8.94932 9.68533 8.68983 9.90825 8.59339 9.93196C8.54003 9.93312 8.55 9.92424 8.4369 9.89331C8.17582 9.82189 7.9843 9.71169 7.7876 9.52549C7.63213 9.37802 7.17652 8.81906 7.04843 8.85245V8.9296C7.04843 8.98746 7.00708 8.98746 7.04383 9.05176C7.06681 9.09034 7.08979 9.11606 7.11277 9.15464C7.1771 9.26395 7.11277 9.2768 7.10817 9.41183C7.00696 9.47848 6.97926 9.70545 7.08363 9.78761C7.11901 9.81547 7.1789 9.78626 7.23717 9.84166C7.29543 9.89706 7.4038 10.0545 7.41758 10.0802C7.44908 10.1242 7.48381 10.3243 7.56002 10.3894C7.60172 10.4251 7.66695 10.3353 7.70151 10.3897C7.83515 10.5923 7.96647 10.7852 8.11456 10.9781L8.1146 10.9781Z" fill="#A92211"/>
<path fill-rule="evenodd" clip-rule="evenodd" d="M10.9853 9.80782L10.8379 9.605L10.8968 9.50686L10.9853 9.45124L11.0479 9.40871L11.0554 9.34656L10.9596 9.36946L11.1143 9.16335L10.9521 9.23859L11.0296 9.15027L11.1548 9.11101L11.2101 9.08157L11.3908 9.0783L11.3723 9.00633L11.7962 9.15682L11.6303 9.12083L11.9473 9.29093L11.7851 9.25495L11.903 9.34001L11.6856 9.29748L11.9251 9.39563L11.7482 9.35964L12.0358 9.49377L11.8588 9.44798L12.0431 9.54612L11.903 9.52975L12.0579 9.605L11.9325 9.58863L12.0358 9.65407L11.5198 9.82745L10.9853 9.80782Z" fill="#A92211" stroke="#252525" stroke-width="0.0131762"/>
<path fill-rule="evenodd" clip-rule="evenodd" d="M9.75744 13.4948L9.76664 13.5398C9.6977 13.5591 9.69311 13.4177 9.61958 13.6749L9.57822 13.6877L9.56904 13.7649L9.52767 13.7584L9.36684 13.9192L9.37144 13.9835L9.25195 14.0864L9.25655 14.1185L9.27033 14.0864C9.31169 14.0864 9.34386 14.2085 9.34386 14.2342C9.34386 14.2857 9.30709 14.2728 9.33467 14.3307L9.34386 14.3114C9.44495 14.3243 9.33007 14.2664 9.44495 14.2985C9.50929 14.2021 9.47253 14.0413 9.55524 13.9449C9.59201 13.9128 9.66093 13.6941 9.7023 13.6749C9.73906 13.6749 9.83097 13.7327 9.85395 13.7713C9.84935 13.6427 9.94586 13.9449 9.91368 13.7777C9.88152 13.617 9.89071 13.6749 9.94586 13.7842C10.0056 13.8935 9.92288 13.6234 9.92746 13.617C9.93666 13.5784 10.024 13.8485 10.0378 13.7392C10.0423 13.7006 9.94126 13.5077 9.97802 13.527C9.99181 13.5398 10.0975 13.7777 10.0561 13.6234C10.0561 13.617 9.96423 13.3405 10.0332 13.4948C10.1067 13.6491 10.0469 13.4177 10.024 13.3726L10.0286 13.4048L9.94126 13.3984L9.91368 13.3598L9.89071 13.4241L9.85855 13.4112L9.86313 13.4562L9.85395 13.4498L9.75744 13.4948Z" fill="#252525"/>
<path fill-rule="evenodd" clip-rule="evenodd" d="M9.25482 14.1185L9.28698 14.4079L9.2686 14.4143L9.16751 14.3243L9.13074 14.3307C9.12614 14.3693 9.19049 14.5365 9.19049 14.6072V14.6586C9.19049 14.6843 9.19049 14.6779 9.17669 14.6972L9.11236 14.6393L9.10318 14.6457L9.09398 14.7229L9.06641 14.7358L9.12156 14.7808V14.8579H9.13074L9.14912 14.8386L9.15831 14.8001L9.25022 14.7679L9.25482 14.7293L9.25941 14.7229L9.24563 14.6457V14.5815C9.24563 14.5429 9.24563 14.5622 9.264 14.5364L9.30078 14.62C9.35591 14.6007 9.33294 14.3885 9.33294 14.3307C9.30536 14.2728 9.34213 14.2857 9.34213 14.2342C9.34213 14.2085 9.30996 14.0864 9.2686 14.0864L9.25482 14.1185Z" fill="#252525"/>
<path fill-rule="evenodd" clip-rule="evenodd" d="M12.1112 16.5645L12.3627 16.3712C12.3903 16.1452 12.0921 16.4506 12.1112 16.5645Z" fill="#D1A345"/>
<path d="M8.92369 10.3355L8.83984 10.7766L8.97214 10.6305" stroke="#252525" stroke-width="0.117121"/>
<path fill-rule="evenodd" clip-rule="evenodd" d="M12.345 16.5737L12.5716 16.4348C12.6238 16.2306 12.2807 16.4573 12.345 16.5737Z" fill="#D1A345"/>
<path fill-rule="evenodd" clip-rule="evenodd" d="M11.9074 16.4849L12.1925 16.2659L12.1534 16.2033H12.1198C12.0416 16.1877 11.9018 16.438 11.9074 16.4849Z" fill="#D1A345"/>
<path fill-rule="evenodd" clip-rule="evenodd" d="M10.1504 7.67552C10.155 7.77195 10.2653 7.8041 10.3342 7.74624L10.3066 7.68194L10.3204 7.66908L10.3985 7.70123L10.4353 7.66908C10.541 7.68194 10.4951 7.77839 10.5226 7.81697C10.5686 7.74624 10.5042 7.62408 10.4123 7.59193C10.3388 7.5662 10.1872 7.6305 10.1504 7.67552Z" fill="#252525"/>
<path fill-rule="evenodd" clip-rule="evenodd" d="M9.79803 7.46996L10.0921 7.49567H10.1105L10.1427 7.48924C10.1335 7.43781 10.037 7.37994 9.97725 7.37994H9.92669C9.88075 7.37994 9.79343 7.41852 9.79803 7.46996Z" fill="#A92211"/>
<path d="M9.5498 7.90938C9.59511 7.90938 9.62374 7.90909 9.66332 7.89547C9.67522 7.89136 9.68424 7.87727 9.69759 7.87727C9.7209 7.87727 9.81512 7.85137 9.81752 7.83018C9.81972 7.81074 9.79611 7.79749 9.79611 7.77348C9.79611 7.74595 9.81522 7.74847 9.82757 7.73912" stroke="#252525" stroke-width="0.0585607"/>
<path d="M10.0762 7.87055C10.0915 7.87307 10.1052 7.87591 10.121 7.87591H10.1515" stroke="#252525" stroke-width="0.0585607" stroke-linejoin="round"/>
<path d="M10.0225 7.93029C10.0572 7.93029 10.0839 7.94286 10.1158 7.94956C10.1308 7.9527 10.1399 7.95335 10.1499 7.94742" stroke="#252525" stroke-width="0.0585607" stroke-linejoin="round"/>
<path d="M9.9834 7.99824C10.0123 7.99925 10.0357 8.00679 10.066 8.00679C10.0866 8.00679 10.0905 8.00648 10.1072 8.00252" stroke="#252525" stroke-width="0.0585607" stroke-linejoin="round"/>
<path d="M9.91504 8.06246C9.93346 8.06246 9.93431 8.06749 9.94914 8.0721C9.97365 8.07972 10.0111 8.07959 10.0389 8.07959" stroke="#252525" stroke-width="0.0585607" stroke-linejoin="round"/>
<path d="M9.87012 8.11772C9.92109 8.1346 9.96671 8.14019 10.0244 8.14019" stroke="#252525" stroke-width="0.0585607" stroke-linejoin="round"/>
<path d="M9.77148 8.14759C9.77148 8.17199 9.87102 8.18183 9.90429 8.18183" stroke="#252525" stroke-width="0.0585607" stroke-linejoin="round"/>
<path d="M9.66992 8.20061C9.6881 8.20061 9.70447 8.20915 9.72017 8.21452C9.75932 8.22789 9.79591 8.22844 9.84041 8.22844" stroke="#252525" stroke-width="0.0585607" stroke-linejoin="round"/>
<path d="M8.05957 10.4849C8.09277 10.6079 8.12489 10.6646 8.12489 10.6646L8.15059 10.5619L8.20521 10.7609C8.20521 10.7609 8.23947 10.5994 8.23947 10.6058C8.23947 10.6122 8.29087 10.7823 8.29087 10.7888C8.29087 10.7952 8.32942 10.6775 8.32835 10.6871C8.32732 10.6967 8.38725 10.8551 8.38725 10.8551C8.38725 10.8551 8.4108 10.7299 8.41295 10.7374C8.41509 10.7449 8.46864 10.8444 8.46864 10.8444C8.46864 10.8444 8.48148 10.746 8.48255 10.7524C8.48358 10.7588 8.51575 10.8412 8.51575 10.8412C8.51575 10.8412 8.51896 10.7406 8.5286 10.7535C8.53822 10.7663 8.58535 10.8508 8.58535 10.8508L8.59392 10.7535L8.63569 10.8187C8.63569 10.8187 8.6464 10.7149 8.65282 10.7213C8.65925 10.7278 8.69351 10.7995 8.69351 10.7995" stroke="#252525" stroke-width="0.0292804" stroke-linejoin="round"/>
<path fill-rule="evenodd" clip-rule="evenodd" d="M7.68581 16.2564L7.76854 16.2242L7.77772 16.2178C7.77312 16.1856 7.75474 16.1535 7.75474 16.1535L7.71339 16.1406C7.6123 16.1406 7.46524 16.2499 7.45605 16.34C7.58472 16.34 7.56634 16.2692 7.68581 16.2564Z" fill="#D1A345"/>
<path fill-rule="evenodd" clip-rule="evenodd" d="M7.81229 16.3741V16.3548L7.81689 16.342L7.7066 16.3034C7.63307 16.3484 7.54116 16.432 7.56414 16.5284C7.60091 16.5349 7.64685 16.4963 7.66983 16.4706C7.72498 16.4191 7.73418 16.4384 7.80769 16.4063L7.81229 16.3741Z" fill="#D1A345"/>
<path fill-rule="evenodd" clip-rule="evenodd" d="M7.90326 16.3953C7.82975 16.4403 7.76081 16.511 7.78379 16.6075C7.82055 16.6139 7.85731 16.556 7.88029 16.5303C7.98599 16.4789 8.13304 16.5239 7.90326 16.3953Z" fill="#D1A345"/>
<path fill-rule="evenodd" clip-rule="evenodd" d="M7.41162 16.205C7.44557 16.189 7.55854 16.123 7.65323 16.1003C7.65519 16.0811 7.66629 16.0628 7.66758 16.05L7.65714 16.0167C7.58139 16.0348 7.40049 16.0875 7.41162 16.205Z" fill="#D1A345"/>
<path d="M8.66347 8.13116C8.64917 8.15039 8.64894 8.16777 8.65558 8.19577C8.6557 8.1962 8.65523 8.20151 8.65558 8.20208C8.6563 8.20324 8.65796 8.20371 8.65874 8.20682" stroke="#252525" stroke-width="0.0292804"/>
<path d="M8.71268 8.15282C8.6994 8.17269 8.70481 8.21902 8.71899 8.23793" stroke="#252525" stroke-width="0.0292804"/>
<path d="M8.75345 8.16103C8.74609 8.17818 8.74812 8.24178 8.78344 8.24178" stroke="#252525" stroke-width="0.0292804"/>
<path d="M8.80577 8.1558C8.77592 8.18464 8.81484 8.22998 8.83653 8.23315" stroke="#252525" stroke-width="0.0292804"/>
<path d="M8.84664 8.14983C8.81371 8.18454 8.8645 8.23426 8.89483 8.21953" stroke="#252525" stroke-width="0.0292804"/>
<path d="M8.89941 8.15431C8.90107 8.17962 8.91387 8.21632 8.94755 8.20718" stroke="#252525" stroke-width="0.0292804"/>
<path d="M8.95312 8.15431C8.95523 8.16761 8.96696 8.19784 8.99713 8.1916" stroke="#252525" stroke-width="0.0292804"/>
<path fill-rule="evenodd" clip-rule="evenodd" d="M8.94299 12.9076L8.68596 13.0683C8.57589 13.1372 8.45069 13.2955 8.3417 13.4551C8.21759 13.6367 8.19492 13.8343 8.15875 14.0436L8.16335 14.1868L8.22057 14.0553L8.12494 14.344L8.30375 14.0634L8.15883 14.4326L8.34356 14.1461L8.21383 14.5653L8.42684 14.1983L8.17691 14.789L8.42172 14.3077L8.20956 14.8824L8.4257 14.3698L8.31048 14.7998L8.46159 14.4869L8.36952 14.8436L8.48333 14.6059L8.40428 14.9426L8.51687 14.6903L8.44872 15.0653L8.56526 14.8022L8.49477 15.088L8.6072 14.9078L8.59627 15.094L8.66492 15.0311C8.66046 15.0705 8.66551 15.1348 8.66294 15.1756C8.68288 15.1617 8.71567 15.1138 8.73888 15.0926L8.70244 15.2742L8.77613 15.1694L8.73804 15.3465C8.76679 15.3251 8.7798 15.3281 8.80425 15.3089L8.7559 15.4129L8.79521 15.4072L8.72948 15.497L8.78256 15.4729L8.72129 15.5512L8.78883 15.5383L8.69886 15.604L8.77603 15.5975L8.67336 15.6602L8.77552 15.6433L8.65395 15.7065L8.7328 15.7048L8.63267 15.7565L8.69584 15.7894C8.65405 15.8092 8.63243 15.7911 8.59316 15.808L8.66002 15.8438L8.54625 15.8544L8.70885 15.9203L8.49556 15.8878C8.36938 15.9417 8.40145 15.9424 8.1404 15.9577C7.95387 15.9687 7.94432 15.9765 7.76074 16.0419C7.77135 16.0667 7.76267 16.0876 7.77054 16.1008C7.79417 16.1407 7.82416 16.1352 7.82924 16.1458C7.84607 16.181 7.87733 16.1737 7.89007 16.2174C7.90038 16.2527 7.88791 16.3238 7.91241 16.3484C7.93355 16.3697 7.96093 16.3796 7.97461 16.3962C7.99683 16.4232 8.02772 16.4313 8.04438 16.4424C8.09045 16.4733 8.10902 16.4658 8.15729 16.4705L8.18654 16.4396L8.19857 16.4147L8.21872 16.3996L8.21784 16.4307L8.1986 16.4713L8.21313 16.4857C8.24794 16.4377 8.2513 16.4378 8.28034 16.4048L8.28878 16.4276L8.27827 16.4507L8.25988 16.4846L8.27568 16.486L8.3067 16.4517L8.32027 16.4252L8.33413 16.4102L8.35167 16.418L8.33643 16.4413L8.30642 16.4856L8.3333 16.4883L8.37747 16.442L8.39744 16.4187L8.36539 16.4818L8.39075 16.4862L8.45113 16.4208C8.44941 16.5335 8.61589 16.464 8.71096 16.4684C8.84558 16.4691 8.91123 16.4137 9.00791 16.328C9.08432 16.2603 9.13294 16.1727 9.19137 16.1283C9.36668 15.9952 9.52804 15.9793 9.53873 15.8834C9.56461 15.6511 9.47065 15.4009 9.46402 15.206C9.46175 15.1388 9.46974 15.1336 9.48544 15.0526C9.48997 15.0293 9.56112 15.1118 9.59132 15.1865C9.5988 15.1214 9.56461 14.9481 9.55991 14.9211C9.5781 14.9398 9.61348 14.9781 9.62329 14.9912C9.63098 14.8986 9.58149 14.8129 9.55932 14.7244C9.57719 14.7597 9.58019 14.7436 9.62139 14.8115C9.61175 14.7322 9.53767 14.5784 9.53764 14.5345C9.56883 14.5605 9.61941 14.6493 9.62966 14.6641C9.63384 14.6538 9.61865 14.5632 9.58126 14.4033L9.63335 14.5135L9.6006 14.3134L9.63491 14.3515L9.64186 14.2437L9.69838 14.2969L9.71165 14.2032L9.78054 14.3539L9.76356 14.1862L9.84304 14.412L9.8265 14.1834L9.88042 14.2404L9.83436 14.0269C9.89652 14.1571 9.89013 14.1496 9.91376 14.1762C9.90719 14.1239 9.87242 14.0445 9.86675 13.9648L9.92334 14.0499L9.89339 13.8561L9.94609 13.9481L9.9367 13.8402L9.99546 13.952L10.018 13.8745L10.0435 14.105L10.145 13.8106L9.97858 12.8763L10.005 12.8179L9.78288 12.3541L9.72659 12.3868L9.68212 12.4054C9.86966 12.685 10.0474 12.1435 9.70435 12.3961L9.48853 12.0933L9.47012 12.3975L9.44916 12.2228L9.43014 12.4091L9.39368 12.5764L9.36991 12.572L9.38768 12.418C9.35316 12.5157 9.35683 12.6006 9.32427 12.7018L9.31975 12.4951L9.27764 12.7135L9.26367 12.7542L9.25806 12.5852L9.22306 12.7409L9.19146 12.8062L9.19641 12.6345L9.12066 12.8681L9.14726 12.7009L9.06612 12.9732L9.08138 12.7993L8.9989 13.0258L9.00047 12.8686L8.90111 13.0517L8.94294 12.9076L8.94299 12.9076Z" fill="#A92211" stroke="#252525" stroke-width="0.0131762"/>
<path fill-rule="evenodd" clip-rule="evenodd" d="M8.97946 10.6648L9.07036 10.8335L9.10079 10.6285L9.13947 10.7501L9.19949 10.5493L9.23665 10.6502L9.30495 10.5136L9.34468 10.6449L9.46203 10.3617L9.35746 10.5106L9.33227 10.349L9.24589 10.5137L9.20161 10.4464L9.15483 10.6111C9.15716 10.4221 9.14456 10.3504 9.13184 10.3002C9.10066 10.382 9.09412 10.4693 9.03167 10.6413L9.00888 10.4679L8.87207 10.7243L8.97959 10.0804L9.0478 9.9384L9.09046 10.0677L9.1921 9.85313L9.18056 10.1437L9.31331 9.93209L9.40496 10.1153L9.51558 9.91946L9.52751 10.0437L9.56444 9.93483L9.58942 9.97806L9.64378 9.89931L9.66574 9.90985L9.70206 9.85945L9.80444 12.3498L9.69697 12.2455C9.71005 11.9929 9.63554 12.1542 9.63998 11.8621L9.61824 12.1447L9.57132 11.9346L9.51819 12.0398L9.53322 11.7667L9.47389 11.8563L9.49845 11.7036L9.42708 11.7698L9.43891 11.5557L9.3598 11.6834L9.34221 11.4561L9.2848 11.5915L9.27809 11.3867L9.20208 11.5779L9.18533 11.2769L9.12905 11.3662L9.11419 11.0312L9.0279 11.0723L8.97946 10.6648Z" fill="#A92211" stroke="#252525" stroke-width="0.0131762"/>
<path d="M13.6064 14.8794C13.6398 14.9268 13.6927 14.9378 13.7082 15.0013C13.7135 15.0228 13.7171 15.0458 13.7222 15.0675C13.7259 15.0828 13.7244 15.1062 13.7296 15.1227" stroke="#252525" stroke-width="0.0439206" stroke-linejoin="round"/>
<path d="M13.5732 14.972C13.5997 15.0044 13.6537 15.0489 13.6627 15.0874C13.6667 15.1044 13.665 15.1179 13.6791 15.1306C13.6899 15.1403 13.6857 15.1632 13.6875 15.1755" stroke="#252525" stroke-width="0.0439206" stroke-linejoin="round"/>
<path d="M13.5615 15.0459C13.6055 15.1064 13.634 15.1648 13.6408 15.2355" stroke="#252525" stroke-width="0.0439206" stroke-linejoin="round"/>
<path d="M13.5586 15.1266C13.557 15.169 13.5972 15.2124 13.6108 15.2512C13.616 15.2659 13.628 15.2864 13.6261 15.3046" stroke="#252525" stroke-width="0.0439206" stroke-linejoin="round"/>
<path d="M13.5195 15.1945C13.5264 15.2202 13.5328 15.243 13.5461 15.2646C13.5514 15.2732 13.5581 15.2799 13.5618 15.2896C13.5697 15.3106 13.5685 15.3308 13.5735 15.353" stroke="#252525" stroke-width="0.0439206" stroke-linejoin="round"/>
<path d="M13.4746 15.2781C13.485 15.2979 13.4913 15.3273 13.5017 15.3432C13.5178 15.3676 13.5459 15.412 13.5465 15.4385" stroke="#252525" stroke-width="0.0439206" stroke-linejoin="round"/>
<path d="M13.5039 15.4458L13.4655 15.4507L13.4653 15.4485L13.4648 15.4464L13.4644 15.4443L13.4638 15.4423L13.4633 15.4402L13.4626 15.4382L13.4618 15.4361L13.461 15.434L13.4601 15.4319L13.4592 15.4299L13.4582 15.4278L13.4572 15.4256L13.4561 15.4234L13.455 15.4212L13.4538 15.4191L13.4525 15.4168L13.4512 15.4145L13.4499 15.4122L13.4485 15.4098L13.4472 15.4074L13.4457 15.4049L13.4444 15.4024L13.4429 15.3997L13.4415 15.3971L13.44 15.3943L13.4386 15.3916L13.4372 15.3887L13.4358 15.3859L13.4345 15.3828L13.4332 15.3797L13.4319 15.3765L13.4307 15.3733L13.4672 15.3603L13.468 15.3627L13.4689 15.3651L13.47 15.3674L13.471 15.3697L13.4721 15.372L13.4733 15.3743L13.4744 15.3767L13.4756 15.379L13.4769 15.3813L13.4781 15.3836L13.4795 15.3859L13.4808 15.3883L13.4822 15.3907L13.4835 15.3931L13.485 15.3955L13.4863 15.398L13.4877 15.4005L13.4891 15.4031L13.4905 15.4057L13.4918 15.4084L13.4931 15.4111L13.4945 15.4138L13.4957 15.4168L13.4969 15.4197L13.4981 15.4226L13.4992 15.4256L13.5002 15.4289L13.5011 15.4321L13.502 15.4354L13.5028 15.4388L13.5034 15.4422L13.5039 15.4458ZM13.5041 15.4995L13.4657 15.4956L13.4658 15.4938L13.466 15.4922L13.4661 15.4906L13.4662 15.4891L13.4663 15.4875L13.4664 15.4861L13.4666 15.4846L13.4667 15.4831L13.4668 15.4817V15.4803V15.479V15.4776V15.4763V15.475L13.4669 15.4737V15.4725V15.4711V15.4698V15.4685V15.4673L13.4668 15.466V15.4647L13.4667 15.4635L13.4666 15.4621V15.4607L13.4664 15.4594L13.4663 15.458L13.4662 15.4566L13.466 15.4552L13.4658 15.4537L13.4657 15.4522L13.4655 15.4507L13.5039 15.4458L13.5041 15.4476L13.5044 15.4493L13.5045 15.451L13.5046 15.4527L13.5049 15.4545L13.505 15.4561L13.5051 15.4578L13.5052 15.4594L13.5054 15.461L13.5055 15.4627L13.5056 15.4643V15.466V15.4677L13.5057 15.4693V15.4709V15.4724V15.4741V15.4757V15.4773V15.479L13.5056 15.4806L13.5055 15.4823L13.5054 15.4839L13.5052 15.4856L13.5051 15.4872L13.505 15.4889L13.5049 15.4907L13.5048 15.4924L13.5046 15.4942L13.5045 15.4959L13.5043 15.4977L13.5042 15.4995L13.5041 15.4995Z" fill="#252525"/>
<path d="M13.4004 15.4185C13.4113 15.4435 13.4281 15.4622 13.4321 15.4892C13.4341 15.5025 13.4453 15.5129 13.4439 15.5267" stroke="#252525" stroke-width="0.0439206" stroke-linejoin="round"/>
<path d="M13.3865 15.5343C13.3793 15.5597 13.3848 15.5781 13.3846 15.6041C13.3845 15.6135 13.3891 15.6192 13.3954 15.6259C13.3999 15.6308 13.3999 15.6438 13.4007 15.6498" stroke="#252525" stroke-width="0.0439206" stroke-linejoin="round"/>
<path d="M9.19919 14.804L9.17969 14.5945L9.28693 14.6871L9.21381 14.3071L9.40394 14.5215C9.40394 14.5215 9.30644 14.0246 9.33081 14.0733C9.35519 14.122 9.47218 14.312 9.47218 14.312" stroke="#252525" stroke-width="0.0146402" stroke-linejoin="round"/>
<path d="M9.39453 13.9714C9.4358 14.0238 9.4626 14.0499 9.4774 14.1126C9.48748 14.1552 9.49691 14.2091 9.49691 14.2539" stroke="#252525" stroke-width="0.0146402" stroke-linejoin="round"/>
<path d="M9.45801 13.8788C9.47731 13.9232 9.51165 13.9606 9.52138 14.0054C9.52998 14.045 9.53669 14.0949 9.55062 14.1321" stroke="#252525" stroke-width="0.0146402" stroke-linejoin="round"/>
<path d="M9.47852 13.8108C9.49456 13.8669 9.54438 13.9302 9.57115 13.9813C9.59824 14.033 9.59065 14.0146 9.59065 13.9569C9.59065 13.9054 9.5864 13.8512 9.59553 13.801C9.59553 13.826 9.5993 13.8514 9.60527 13.8741C9.62349 13.9433 9.61016 13.8101 9.61016 13.7815C9.61016 13.642 9.65402 13.9416 9.65402 13.8059C9.65402 13.7896 9.6489 13.6216 9.6784 13.7328C9.70567 13.8356 9.70277 13.6718 9.70277 13.6549C9.70277 13.6249 9.69897 13.5911 9.70765 13.5623C9.71861 13.5261 9.75401 13.6378 9.76615 13.6256C9.78828 13.6036 9.80028 13.5433 9.80028 13.5136" stroke="#252525" stroke-width="0.0146402" stroke-linejoin="round"/>
<path d="M9.38281 14.8652C9.40892 14.8838 9.43515 14.9171 9.44611 14.9479C9.45483 14.9725 9.45827 14.9991 9.45827 15.0257" stroke="#252525" stroke-width="0.0585607" stroke-linejoin="round"/>
<path d="M9.30273 14.8211C9.32463 14.8613 9.34855 14.9023 9.37089 14.9403C9.38602 14.9661 9.40397 14.9975 9.40984 15.0255C9.41422 15.0464 9.41108 15.0827 9.422 15.1009" stroke="#252525" stroke-width="0.0585607" stroke-linejoin="round"/>
<path d="M9.2998 14.8943C9.34701 14.9637 9.41907 15.0746 9.41907 15.1595" stroke="#252525" stroke-width="0.0585607" stroke-linejoin="round"/>
<path d="M9.31445 14.9817C9.32232 15.0027 9.33103 15.0305 9.34124 15.0498C9.36292 15.0908 9.368 15.1218 9.368 15.169" stroke="#252525" stroke-width="0.0585607" stroke-linejoin="round"/>
<path d="M9.30273 15.0549C9.30273 15.1 9.33736 15.1289 9.33925 15.1741C9.3404 15.2018 9.34169 15.2305 9.34169 15.2592" stroke="#252525" stroke-width="0.0585607" stroke-linejoin="round"/>
<path d="M9.26367 15.1788C9.26847 15.2148 9.31056 15.2352 9.31966 15.2688C9.32305 15.2814 9.32218 15.3286 9.31722 15.3418" stroke="#252525" stroke-width="0.0585607" stroke-linejoin="round"/>
<path d="M9.23435 15.2177C9.23435 15.2544 9.23914 15.287 9.24165 15.3222C9.24361 15.3497 9.24383 15.3638 9.22461 15.3831" stroke="#252525" stroke-width="0.0585607" stroke-linejoin="round"/>
<path d="M9.17384 15.2908V15.3687C9.17384 15.3862 9.18138 15.4099 9.1568 15.3881C9.14328 15.3761 9.13964 15.3583 9.13004 15.3444C9.10507 15.3082 9.10569 15.4003 9.10569 15.4149C9.10569 15.4214 9.09928 15.43 9.09838 15.4295C9.07999 15.4194 9.07621 15.3784 9.05945 15.3784C9.04711 15.3784 9.05067 15.4059 9.04727 15.4173C9.02946 15.4772 9.03337 15.4074 9.03266 15.3857C9.03193 15.3629 9.01562 15.3493 9.01562 15.3249" stroke="#252525" stroke-width="0.0585607" stroke-linejoin="round"/>
<path d="M8.81543 16.1215C8.83052 16.1065 8.88144 16.0989 8.88144 16.0989L8.92857 16.0405L8.97006 16.0556L9.03418 15.9651" stroke="#252525" stroke-width="0.0292804"/>
<path d="M9.09093 15.8837C9.08633 15.8937 9.08982 15.8927 9.08715 15.9007C9.08533 15.9062 9.08297 15.9093 9.0815 15.9158C9.0805 15.9201 9.07621 15.9225 9.07583 15.929C9.07514 15.9412 9.06641 15.9462 9.06641 15.9591V15.9798" stroke="#252525" stroke-width="0.0292804"/>
<path d="M9.16285 15.8292C9.15927 15.8567 9.15984 15.8781 9.14965 15.9008C9.14884 15.9026 9.15037 15.9065 9.14965 15.9084C9.14646 15.9167 9.13564 15.9429 9.12891 15.948" stroke="#252525" stroke-width="0.0292804"/>
<path d="M9.2038 15.771C9.19364 15.8218 9.2128 15.8975 9.16797 15.9274" stroke="#252525" stroke-width="0.0292804"/>
<path d="M9.2659 15.6806C9.2659 15.7288 9.27412 15.7961 9.2527 15.8389C9.24857 15.8472 9.21875 15.895 9.21875 15.903" stroke="#252525" stroke-width="0.0292804"/>
<path d="M9.30273 15.7505C9.30696 15.7787 9.31634 15.8068 9.32536 15.8334C9.32842 15.8424 9.33337 15.8498 9.33668 15.8579C9.34824 15.8862 9.34366 15.8629 9.34989 15.8372C9.35607 15.8115 9.35365 15.7718 9.35365 15.7448C9.35365 15.6521 9.35081 15.8461 9.38382 15.8315C9.40568 15.8218 9.39891 15.6672 9.39891 15.6318C9.39891 15.5676 9.40051 15.6146 9.40834 15.645C9.41099 15.6552 9.42677 15.7795 9.44982 15.7467C9.48177 15.7013 9.47057 15.6372 9.47057 15.5865" stroke="#252525" stroke-width="0.0292804"/>
<path d="M7.24989 9.74037C7.24349 9.75421 7.24424 9.78575 7.24424 9.80067C7.24424 9.81035 7.2435 9.82039 7.24612 9.82895C7.24982 9.84077 7.25367 9.85569 7.25367 9.86851" stroke="#252525" stroke-width="0.0146402" stroke-linejoin="round"/>
<path d="M7.29778 9.7665C7.29287 9.78781 7.29591 9.81427 7.29591 9.83623C7.29591 9.85734 7.29142 9.90787 7.30157 9.92479" stroke="#252525" stroke-width="0.0146402" stroke-linejoin="round"/>
<path d="M7.33729 9.82475C7.33181 9.85399 7.33362 9.89195 7.33919 9.92086C7.34104 9.93051 7.34321 9.99631 7.34862 9.99811" stroke="#252525" stroke-width="0.0146402" stroke-linejoin="round"/>
<path d="M7.39471 9.89644C7.37934 9.95014 7.39293 10.0271 7.40037 10.0792" stroke="#252525" stroke-width="0.0146402" stroke-linejoin="round"/>
<path d="M7.41113 9.8591C7.42503 9.89383 7.42245 9.98966 7.42245 10.0287C7.42245 10.0625 7.42491 10.1106 7.43188 10.1455" stroke="#252525" stroke-width="0.0146402" stroke-linejoin="round"/>
<path d="M7.44616 10.0284L7.44702 10.0219L7.44787 10.016L7.44861 10.0106L7.44934 10.0059L7.44995 10.0018L7.45044 9.99845L7.4508 9.99593L7.45105 9.99426L7.46288 9.99792L7.46264 9.99959L7.46228 10.0021L7.46179 10.0054L7.46118 10.0094L7.46057 10.0141L7.45983 10.0195L7.45898 10.0254L7.45813 10.0318L7.45715 10.0386L7.45617 10.0459L7.4552 10.0534L7.45422 10.0613L7.45324 10.0693L7.45215 10.0775L7.45117 10.0857L7.45019 10.094L7.44934 10.1023L7.44848 10.1105L7.44763 10.1186L7.4469 10.1264L7.44629 10.134L7.4458 10.1412L7.44531 10.148L7.44507 10.1544L7.44482 10.1602L7.4447 10.1654L7.44482 10.1699L7.44507 10.1735L7.44543 10.1761L7.44568 10.1773L7.44543 10.1769L7.44372 10.1754L7.43994 10.1921L7.43628 10.1886L7.43445 10.1844L7.43347 10.1801L7.43298 10.1756L7.43274 10.1708L7.43262 10.1654V10.1596L7.43286 10.1533L7.43323 10.1466L7.43372 10.1394L7.4342 10.132L7.43494 10.1242L7.43567 10.1161L7.4364 10.108L7.43725 10.0996L7.43823 10.0913L7.43921 10.0829L7.44018 10.0744L7.44116 10.0662L7.44226 10.0581L7.44324 10.0502L7.44421 10.0426L7.44519 10.0353L7.44616 10.0284Z" fill="#252525"/>
<path d="M7.49607 10.0473C7.46407 10.1165 7.46948 10.2192 7.47919 10.2875" stroke="#252525" stroke-width="0.0146402" stroke-linejoin="round"/>
<path d="M7.51262 10.0659C7.48519 10.172 7.50246 10.3307 7.51597 10.3626" stroke="#252525" stroke-width="0.0146402" stroke-linejoin="round"/>
<path d="M7.52539 10.1475L7.52551 10.1363L7.52588 10.1256L7.52661 10.1153L7.52759 10.1057L7.52893 10.0966L7.53064 10.0882L7.53271 10.0804L7.53528 10.0734L7.5465 10.078L7.54431 10.084L7.54248 10.0909L7.54089 10.0986L7.53967 10.1071L7.53869 10.1164L7.53808 10.1262L7.5376 10.1366L7.53747 10.1475L7.5376 10.1589L7.53796 10.1707L7.53857 10.1827L7.5393 10.1951L7.54028 10.2077L7.54138 10.2204L7.54272 10.2332L7.54418 10.2461L7.54577 10.259L7.54736 10.2718L7.54919 10.2845L7.55102 10.297L7.5531 10.3092L7.55505 10.3212L7.55712 10.3329L7.5592 10.3441L7.56127 10.3549L7.56335 10.3651L7.56542 10.3748L7.5675 10.3839L7.56945 10.3922L7.5714 10.3998L7.57323 10.4067L7.57494 10.4126L7.56335 10.4161L7.56152 10.4099L7.55956 10.4029L7.55761 10.3951L7.55566 10.3866L7.55358 10.3774L7.55151 10.3676L7.54931 10.3572L7.54724 10.3463L7.54516 10.335L7.54309 10.3233L7.54101 10.3112L7.53906 10.2988L7.53723 10.2862L7.5354 10.2734L7.53369 10.2605L7.5321 10.2475L7.53064 10.2345L7.5293 10.2215L7.52808 10.2087L7.52722 10.1959L7.52637 10.1834L7.52576 10.1711L7.52551 10.1591L7.52539 10.1475Z" fill="#252525"/>
<path d="M7.58209 10.16C7.57452 10.1831 7.57222 10.2187 7.57364 10.241C7.57481 10.2602 7.60614 10.3924 7.60939 10.4121" stroke="#252525" stroke-width="0.0146402" stroke-linejoin="round"/>
<path d="M7.62109 10.1847C7.62399 10.2459 7.63979 10.3498 7.67289 10.3994" stroke="#252525" stroke-width="0.0146402" stroke-linejoin="round"/>
<path d="M7.7062 10.2302C7.69872 10.2627 7.69661 10.4154 7.72129 10.4319" stroke="#252525" stroke-width="0.0146402" stroke-linejoin="round"/>
<path d="M7.78647 10.3811C7.76688 10.4398 7.79246 10.5109 7.80343 10.5657" stroke="#252525" stroke-width="0.0146402" stroke-linejoin="round"/>
<path d="M7.86523 10.4714C7.85273 10.5089 7.88272 10.6988 7.90861 10.7334" stroke="#252525" stroke-width="0.0146402" stroke-linejoin="round"/>
<path d="M7.91016 10.5394C7.91307 10.5921 7.93825 10.6467 7.94033 10.7014C7.94165 10.7364 7.96235 10.7706 7.96672 10.8013" stroke="#252525" stroke-width="0.0146402" stroke-linejoin="round"/>
<path d="M7.99462 10.5879C7.96692 10.6571 8.00779 10.8111 8.03235 10.8724" stroke="#252525" stroke-width="0.0146402" stroke-linejoin="round"/>
<path d="M8.08704 10.7559C8.08704 10.7752 8.08557 10.791 8.0927 10.8087C8.10316 10.835 8.10245 10.8611 8.10968 10.8878C8.11432 10.9051 8.11925 10.9697 8.12853 10.9821" stroke="#252525" stroke-width="0.0146402" stroke-linejoin="round"/>
<path d="M8.14355 10.9292C8.1555 10.9735 8.16098 11.0231 8.18504 11.0592C8.20682 11.0919 8.2205 11.1312 8.24162 11.1628" stroke="#252525" stroke-width="0.0146402" stroke-linejoin="round"/>
<path d="M8.36004 11.1554C8.34212 11.2136 8.36193 11.1364 8.36193 11.1762C8.36193 11.1901 8.36697 11.2075 8.37137 11.2214C8.37717 11.2397 8.38268 11.2645 8.38833 11.2798C8.39534 11.2987 8.41663 11.3193 8.42039 11.3382" stroke="#252525" stroke-width="0.0146402" stroke-linejoin="round"/>
<path d="M8.79559 9.88747C8.79559 9.94053 8.73219 9.98793 8.72017 10.0401C8.70902 10.0885 8.70508 10.1345 8.70508 10.1871" stroke="#252525" stroke-width="0.0146402" stroke-linejoin="round"/>
<path d="M8.74237 9.92406C8.72899 9.95881 8.67037 10.0325 8.66028 10.0688C8.65229 10.0976 8.65461 10.1337 8.65461 10.1668" stroke="#252525" stroke-width="0.0146402" stroke-linejoin="round"/>
<path d="M8.68903 9.96341L8.68018 9.95508L8.68146 9.95373L8.68271 9.95231L8.68399 9.95089L8.68523 9.94945L8.68647 9.94801L8.6877 9.94654L8.68895 9.94504L8.69016 9.94354L8.69139 9.94201L8.69263 9.94046L8.69382 9.93892L8.69502 9.93736L8.69624 9.93576L8.69747 9.93419L8.69864 9.93259L8.69985 9.931L8.70105 9.92937L8.70226 9.92774L8.70344 9.92613L8.70465 9.92449L8.70584 9.92286L8.70705 9.92119L8.70826 9.91955L8.70946 9.91789L8.71067 9.91625L8.71191 9.91457L8.71313 9.91292L8.71434 9.91127L8.71558 9.90959L8.71685 9.90796L8.71808 9.90634L8.71935 9.90465L8.72895 9.91208L8.72775 9.91365L8.72651 9.91528L8.7253 9.91691L8.7241 9.9185L8.72289 9.92014L8.72166 9.9218L8.72048 9.92341L8.71928 9.92505L8.71807 9.92671L8.71686 9.92835L8.71566 9.92999L8.71446 9.93164L8.71326 9.93328L8.71202 9.93495L8.71081 9.93658L8.70961 9.93821L8.7084 9.93986L8.70714 9.94149L8.70592 9.94312L8.70469 9.94472L8.70344 9.94636L8.70216 9.94796L8.70091 9.94954L8.69966 9.95113L8.69833 9.95271L8.69708 9.95427L8.69576 9.95583L8.69444 9.95738L8.69308 9.95891L8.69177 9.96039L8.6904 9.96189L8.68903 9.96341ZM8.68018 9.95508L8.68903 9.96341L8.6888 9.96364L8.68857 9.96387L8.68834 9.96407L8.6881 9.96427L8.68782 9.96442L8.68753 9.96456L8.68724 9.96471L8.68695 9.96482L8.68666 9.96494L8.68637 9.96502L8.68611 9.96511L8.68582 9.9652L8.68554 9.96528L8.68525 9.96531L8.68496 9.96534L8.68467 9.96535H8.68436L8.68407 9.96534L8.68378 9.96531L8.68349 9.96529L8.6832 9.9652L8.68291 9.96511L8.68262 9.96503L8.68234 9.96494L8.68205 9.96483L8.68176 9.96471L8.68147 9.96457L8.68118 9.96442L8.68089 9.96428L8.68066 9.96413L8.68043 9.96393L8.6802 9.96373L8.67997 9.9635L8.67974 9.96327L8.67954 9.96304L8.67934 9.9628L8.67919 9.96255L8.67905 9.96226L8.6789 9.96197L8.67879 9.96168L8.67867 9.96142L8.67856 9.96113L8.67844 9.96084L8.67833 9.96058V9.96029V9.96001V9.95972V9.95946V9.95914V9.95888V9.95859V9.95831V9.95802L8.67844 9.95776L8.67856 9.95747L8.67867 9.95718L8.67879 9.95689L8.6789 9.95663L8.67905 9.95634L8.67919 9.95606L8.67934 9.9558L8.67948 9.95556L8.67968 9.95533L8.67988 9.9551L8.68018 9.95508ZM8.63036 10.1175H8.61816V10.1107L8.61828 10.1041L8.61848 10.0977L8.61877 10.0914L8.61912 10.0854L8.61957 10.0795L8.62014 10.0738L8.62079 10.0683L8.62158 10.0629L8.62247 10.0576L8.62344 10.0524L8.62459 10.0474L8.62586 10.0424L8.62726 10.0376L8.62879 10.0328L8.63048 10.0281L8.63231 10.0234L8.6343 10.0189L8.63646 10.0143L8.63874 10.0098L8.6412 10.0054L8.64385 10.0009L8.64667 9.99648L8.64964 9.99203L8.65278 9.98756L8.65612 9.98311L8.65963 9.97857L8.66334 9.97401L8.66723 9.96941L8.67133 9.96472L8.67561 9.95995L8.68012 9.95508L8.68897 9.96341L8.6846 9.96813L8.68041 9.97276L8.67646 9.97731L8.67268 9.98176L8.66914 9.98612L8.66578 9.99043L8.66264 9.99471L8.65964 9.99891L8.65685 10.0031L8.65424 10.0072L8.65179 10.0114L8.6495 10.0155L8.64736 10.0197L8.6454 10.0239L8.64355 10.0281L8.64187 10.0323L8.64032 10.0367L8.63888 10.0411L8.63757 10.0456L8.63638 10.0502L8.63535 10.0549L8.63439 10.0597L8.63355 10.0647L8.63282 10.0698L8.63219 10.0751L8.63167 10.0806L8.63122 10.0862L8.63087 10.092L8.63058 10.0981L8.63038 10.1044L8.63026 10.1108V10.1175H8.63036Z" fill="#252525"/>
<path d="M8.66324 9.89345C8.66152 9.91949 8.63401 9.95873 8.618 9.97825C8.61187 9.98571 8.60683 10.0008 8.60102 10.0103C8.5942 10.0214 8.59358 10.0366 8.58594 10.0461" stroke="#252525" stroke-width="0.0146402" stroke-linejoin="round"/>
<path d="M8.58818 9.89121C8.58193 9.89924 8.56084 9.94642 8.55566 9.97984" stroke="#252525" stroke-width="0.0146402" stroke-linejoin="round"/>
<path d="M8.53222 9.89121C8.511 9.89296 8.49154 9.92983 8.48438 9.94776" stroke="#252525" stroke-width="0.0146402" stroke-linejoin="round"/>
<path d="M8.46507 9.87479C8.45145 9.89111 8.42417 9.91824 8.40918 9.93322" stroke="#252525" stroke-width="0.0146402" stroke-linejoin="round"/>
<path d="M8.40051 9.87668C8.3808 9.87214 8.33957 9.90696 8.33496 9.92547" stroke="#252525" stroke-width="0.0146402" stroke-linejoin="round"/>
<path d="M9.55859 7.83973C9.59049 7.83535 9.61267 7.805 9.60812 7.77193C9.60358 7.73887 9.57403 7.71561 9.54213 7.71999C9.51024 7.72437 9.48806 7.75472 9.4926 7.78779C9.49715 7.82085 9.52669 7.84411 9.55859 7.83973Z" fill="#252525" stroke="#252525" stroke-width="0.00642695"/>
<path fill-rule="evenodd" clip-rule="evenodd" d="M9.41602 7.74458C9.41696 7.7739 9.43324 7.80513 9.45936 7.82562C9.47967 7.84155 9.50729 7.85061 9.52984 7.84961C9.56665 7.84797 9.62208 7.80398 9.60638 7.72434C9.50811 7.70802 9.5021 7.71938 9.41602 7.74458Z" fill="white" stroke="#252525" stroke-width="0.0585607"/>
<path fill-rule="evenodd" clip-rule="evenodd" d="M9.45225 7.73951C9.45094 7.74936 9.46284 7.78709 9.46715 7.79579C9.48716 7.83619 9.57864 7.83521 9.57901 7.77397C9.57901 7.76524 9.5801 7.71462 9.5635 7.71301C9.54474 7.71118 9.52 7.71236 9.5025 7.71959C9.49247 7.72374 9.45803 7.73241 9.45225 7.73951Z" fill="#252525" stroke="#252525" stroke-width="0.0131762"/>
<path fill-rule="evenodd" clip-rule="evenodd" d="M9.52051 7.80369C9.53612 7.79645 9.54065 7.78965 9.54877 7.77592C9.54955 7.77463 9.54986 7.77085 9.55026 7.77231C9.55297 7.782 9.55513 7.79193 9.5529 7.80181C9.55094 7.81055 9.53971 7.81283 9.53221 7.81034C9.52963 7.80949 9.52277 7.80395 9.52051 7.80369Z" fill="white" stroke="#252525" stroke-width="0.0131762"/>
<path d="M8.2114 8.49892C8.45021 8.49892 8.57059 8.36115 8.81351 8.36115C8.93438 8.36115 9.03699 8.37237 9.13494 8.39255C9.18988 8.40388 9.25218 8.40269 9.30923 8.4313C9.39826 8.48424 9.3882 8.58811 9.31516 8.60526C9.26348 8.61739 9.1792 8.61618 9.14117 8.6044C8.99048 8.55768 8.70345 8.44398 8.55577 8.51545C8.49034 8.54711 8.41691 8.56427 8.33702 8.56873C8.30199 8.57069 8.27152 8.57513 8.23955 8.55954C8.21944 8.54975 8.17441 8.51051 8.2114 8.49892Z" stroke="#252525" stroke-width="0.0292804" stroke-linejoin="round"/>
<path fill-rule="evenodd" clip-rule="evenodd" d="M8.2114 8.49892C8.45021 8.49892 8.57059 8.36115 8.81351 8.36115C8.93438 8.36115 9.03699 8.37237 9.13494 8.39255C9.18988 8.40388 9.25218 8.40269 9.30923 8.4313C9.39826 8.48424 9.3882 8.58811 9.31516 8.60526C9.26348 8.61739 9.1792 8.61618 9.14117 8.6044C8.99048 8.55768 8.70345 8.44398 8.55577 8.51545C8.49034 8.54711 8.41691 8.56427 8.33702 8.56873C8.30199 8.57069 8.27152 8.57513 8.23955 8.55954C8.21944 8.54975 8.17441 8.51051 8.2114 8.49892Z" fill="#A92211"/>
<path fill-rule="evenodd" clip-rule="evenodd" d="M8.94007 8.27901C8.94404 8.28239 8.92992 8.34467 8.92885 8.35385C8.92582 8.37972 8.92371 8.41368 8.91649 8.43836C8.91492 8.44374 8.90284 8.49661 8.89464 8.48861C8.85801 8.45295 8.81678 8.34751 8.81543 8.29391L8.94007 8.27901Z" fill="white" stroke="#252525" stroke-width="0.0439206"/>
<path fill-rule="evenodd" clip-rule="evenodd" d="M7.87271 16.2213L7.91071 16.2127C7.91976 16.2055 7.99444 16.1717 8.0041 16.1709C8.01291 16.1702 8.17333 16.1465 8.17333 16.1465L8.21173 16.1252L8.25312 16.1157L8.30125 16.1048C8.30125 16.1048 8.30125 16.1048 8.28694 16.1177C8.27264 16.1306 8.23911 16.1408 8.23911 16.1408L8.27183 16.1605L8.24651 16.172L8.056 16.1893L7.89014 16.2815L7.8623 16.2215H7.87271L7.87271 16.2213Z" fill="#252525" stroke="#252525" stroke-width="0.0131762"/>
<path fill-rule="evenodd" clip-rule="evenodd" d="M7.95508 16.3822L8.01274 16.3191L8.07083 16.3012L8.16427 16.3187L8.06989 16.3414C8.06989 16.3414 8.01921 16.3709 8.0136 16.3717C8.00799 16.3725 7.97545 16.3963 7.97545 16.3963L7.95508 16.3822Z" fill="#252525" stroke="#252525" stroke-width="0.0131762"/>
<path d="M7.78516 16.1233C7.80401 16.1139 7.82692 16.0988 7.8455 16.0988C7.85367 16.0988 7.87114 16.0896 7.88133 16.0875C7.90223 16.0831 7.92358 16.0705 7.94544 16.0705C7.95619 16.0705 7.98129 16.0667 7.98692 16.0592" stroke="#252525" stroke-width="0.0878411"/>
<path fill-rule="evenodd" clip-rule="evenodd" d="M12.8346 16.4202L12.7968 16.4184L12.7422 16.4222L12.6724 16.4787L12.6422 16.5504L12.6328 16.5974V16.6257L12.6951 16.5843L12.7563 16.5221L12.8364 16.4768L12.8798 16.4599L12.8346 16.4202Z" fill="#D1A345" stroke="#252525" stroke-width="0.0131762"/>
<path d="M9.1709 7.72841L9.31986 7.70301M9.31986 7.70301C9.40455 7.67864 9.49216 7.60404 9.57467 7.57287L9.57409 7.56588L9.53368 7.56833L9.47451 7.60503L9.39342 7.65968L9.31986 7.70301Z" stroke="#252525" stroke-width="0.0131762"/>
<path fill-rule="evenodd" clip-rule="evenodd" d="M9.37389 7.68703L9.32324 7.70253L9.32507 7.69817L9.40709 7.64846L9.4376 7.62789L9.47397 7.60319L9.50119 7.58212L9.52181 7.56614L9.58503 7.55841L9.5738 7.57647L9.52096 7.60223L9.46506 7.63278L9.41258 7.66229L9.37389 7.68703Z" fill="#252525" stroke="#252525" stroke-width="0.0131762"/>
<path fill-rule="evenodd" clip-rule="evenodd" d="M8.59131 7.87129C8.54247 7.8823 8.39508 7.90117 8.41027 7.97446C8.41646 8.00435 8.43264 8.0284 8.45418 8.05091C8.47102 8.06852 8.52624 8.17576 8.5634 8.14724C8.60245 8.11725 8.5983 8.12217 8.60731 8.07872C8.61267 8.05282 8.5978 8.03374 8.58267 8.01417C8.56891 7.99635 8.63441 7.97284 8.64157 7.9536C8.65925 7.90611 8.59929 7.8917 8.59131 7.87129Z" fill="#252525" stroke="#252525" stroke-width="0.0131762"/>
<path fill-rule="evenodd" clip-rule="evenodd" d="M8.53253 7.86845C8.52035 7.86845 8.51337 7.87417 8.50505 7.88248C8.50196 7.88557 8.48611 7.89079 8.48137 7.89327C8.44859 7.91037 8.48704 7.94533 8.51314 7.91915C8.52413 7.90813 8.53652 7.89788 8.54707 7.88733C8.56201 7.87241 8.54455 7.86737 8.53253 7.86845Z" fill="white"/>
<path d="M9.09195 9.6067C9.03087 9.71446 8.87108 9.93294 8.84277 10.0475C8.88449 10.0099 9.04429 9.93837 9.07282 9.91446" stroke="#252525" stroke-width="0.117121"/>
<path d="M6.73412 5.98132L6.63312 5.99967L6.4908 7.40351L5.48535 7.45857V7.63749L6.73412 7.80265L7.97831 7.63749V7.45857L6.97286 7.40351L6.83054 5.99967L6.73412 5.98132Z" fill="#405A9F"/>
<path d="M7.00438 7.55767H6.45898V16.2516H7.00438V7.55767Z" fill="#405A9F"/>
<path d="M6.93989 6.0263L6.73047 5.81703L6.52105 6.0263L6.73047 6.23557L6.93989 6.0263Z" fill="#D1A345" stroke="#405A9F" stroke-width="0.132175"/>
<path d="M5.60493 7.55114L5.39551 7.34187L5.18609 7.55114L5.39551 7.76041L5.60493 7.55114Z" fill="#D1A345" stroke="#405A9F" stroke-width="0.132175"/>
<path d="M7.85894 7.55114L8.06836 7.34187L8.27778 7.55114L8.06836 7.76041L7.85894 7.55114Z" fill="#D1A345" stroke="#405A9F" stroke-width="0.132175"/>
<path d="M6.83497 7.55767H6.62891V10.2484H6.83497V7.55767Z" fill="#D4CAC6"/>
<path d="M7.33461 7.32394H6.12695V7.85596H7.33461V7.32394Z" fill="#D1A345" stroke="#103E6F" stroke-width="0.0440583"/>
<path d="M6.73445 15.5193C6.65726 15.5859 6.62418 15.6478 6.60131 15.7029C6.6208 15.7486 6.64706 15.798 6.67477 15.8634C6.63877 15.8663 6.54481 15.8622 6.45898 15.8818V16.2534C6.45898 16.3191 6.53645 16.4736 6.73445 16.4736C6.93245 16.4736 7.00532 16.3191 7.00532 16.2534V15.8818C6.9195 15.8622 6.83013 15.8663 6.79413 15.8634C6.82184 15.798 6.8435 15.7486 6.863 15.7029C6.84013 15.6478 6.81163 15.5859 6.73445 15.5193Z" fill="#D1A345" stroke="#103E6F" stroke-width="0.0440583"/>
<path d="M6.73391 13.7802C6.58123 13.7802 6.5216 13.7967 6.45845 13.8215C6.41101 13.8692 6.41096 14.0039 6.45845 14.06C6.54656 14.0694 6.60629 14.083 6.73391 14.083C6.86153 14.083 6.91667 14.0694 7.00479 14.06C7.05228 14.0039 7.05222 13.8692 7.00479 13.8215C6.94163 13.7967 6.8866 13.7802 6.73391 13.7802Z" fill="#D1A345" stroke="#103E6F" stroke-width="0.0440583"/>
<path d="M6.73098 11.1838C6.5783 11.1838 6.51867 11.2003 6.45552 11.2251C6.40808 11.2728 6.40803 11.4075 6.45552 11.4637C6.54363 11.473 6.60336 11.4866 6.73098 11.4866C6.8586 11.4866 6.91374 11.473 7.00186 11.4637C7.04935 11.4075 7.04929 11.2728 7.00186 11.2251C6.9387 11.2003 6.88367 11.1838 6.73098 11.1838Z" fill="#D1A345" stroke="#103E6F" stroke-width="0.0440583"/>
<path d="M12.4431 14.0362C12.9498 12.9509 12.7925 11.2262 12.8772 9.8088C12.8772 9.8088 12.4451 9.72245 11.3185 9.72245C10.1918 9.72245 9.75977 9.8088 9.75977 9.8088C9.84445 11.2262 9.68712 12.9509 10.1938 14.0362C10.4355 14.5538 10.7201 14.9156 11.3185 15.2055C11.9168 14.9156 12.2014 14.5538 12.4431 14.0362Z" fill="#405A9F" stroke="#D1A345" stroke-width="0.135313"/>
<path fill-rule="evenodd" clip-rule="evenodd" d="M11.0992 11.7067L11.3451 11.4609L11.5911 11.7067L11.3451 11.9525L11.0992 11.7067ZM11.3451 12.1164L10.9352 11.7067L11.3451 11.2971L11.7551 11.7067L11.3451 12.1164ZM12.4109 12.1983L12.165 12.4441L11.7551 12.0344L11.837 11.9525L12.165 12.2802L12.247 12.1983L11.837 11.7887L11.4271 12.1983L11.837 12.6079L11.919 12.526L11.5911 12.1983L11.6731 12.1164L12.083 12.526L11.837 12.7718L11.3451 12.2802L10.8532 12.7718L10.6072 12.526L11.0172 12.1164L11.0992 12.1983L10.7712 12.526L10.8532 12.6079L11.2631 12.1983L10.8532 11.7887L10.4433 12.1983L10.5253 12.2802L10.8532 11.9525L10.9352 12.0344L10.5253 12.4441L10.2793 12.1983L10.7712 11.7067L10.2793 11.2152L10.5253 10.9694L10.9352 11.379L10.8532 11.4609L10.5253 11.1332L10.4433 11.2152L10.8532 11.6248L11.2631 11.2152L10.8532 10.8055L10.7712 10.8875L11.0992 11.2152L11.0172 11.2971L10.6072 10.8875L10.8532 10.6417L11.3451 11.1332L11.837 10.6417L12.083 10.8875L11.6731 11.2971L11.5911 11.2152L11.919 10.8875L11.837 10.8055L11.4271 11.2152L11.837 11.6248L12.247 11.2152L12.165 11.1332L11.837 11.4609L11.7551 11.379L12.165 10.9694L12.4109 11.2152L11.919 11.7067L12.4109 12.1983Z" fill="#D1A345"/>
<path fill-rule="evenodd" clip-rule="evenodd" d="M6.45775 8.71137C6.2994 9.00532 6.28056 9.21525 6.40831 9.5448C6.4237 9.58451 6.43988 9.61253 6.4857 9.61568C6.49493 9.61631 6.5529 9.7423 6.58457 9.76176C6.59697 9.76936 6.72 9.86929 6.72 9.809C6.72 9.74685 6.64474 9.65516 6.61467 9.60064C6.61125 9.59443 6.66723 9.64828 6.74364 9.67369C6.85366 9.71025 6.66028 9.41791 6.63402 9.38584C6.62823 9.37877 6.71075 9.41288 6.75439 9.42236C6.9014 9.45432 6.772 9.32311 6.73935 9.27415C6.70472 9.22224 6.58344 9.16461 6.6899 9.16461C6.87065 9.16461 6.74922 9.09705 6.68776 9.00995C6.61751 8.91037 6.5451 8.79865 6.45775 8.71137Z" fill="#252525"/>
<path fill-rule="evenodd" clip-rule="evenodd" d="M6.41978 8.83927C6.41978 9.01352 6.32385 9.17369 6.38873 9.34219C6.39787 9.36593 6.48619 9.58778 6.51295 9.48987C6.53813 9.39774 6.47675 9.3543 6.49261 9.27478C6.5142 9.16649 6.45517 9.06287 6.5001 8.94947C6.52224 8.89356 6.49186 8.80055 6.41978 8.83927Z" fill="#A92211"/>
<path fill-rule="evenodd" clip-rule="evenodd" d="M6.54225 8.91673C6.48649 8.91673 6.51006 9.00305 6.52298 9.03229C6.56069 9.11771 6.62953 9.1425 6.71788 9.1425C6.74786 9.1425 6.72178 9.13101 6.70717 9.11254C6.6938 9.09563 6.66697 9.08238 6.65149 9.0676C6.6272 9.04445 6.60472 9.01648 6.58188 8.98948C6.56324 8.96747 6.55528 8.93257 6.54225 8.91673Z" fill="#BB9858"/>
<path fill-rule="evenodd" clip-rule="evenodd" d="M6.59052 9.19967C6.57409 9.18404 6.50042 9.1865 6.52734 9.24675C6.56252 9.32545 6.65481 9.39042 6.74259 9.39656C6.77739 9.399 6.6942 9.31932 6.67941 9.30453C6.66202 9.28717 6.60412 9.21724 6.59052 9.19967Z" fill="#BB9858"/>
<path fill-rule="evenodd" clip-rule="evenodd" d="M6.60695 9.414C6.58422 9.39256 6.57136 9.35993 6.5427 9.39794C6.47567 9.48685 6.64666 9.59945 6.69797 9.64727C6.72161 9.66931 6.72158 9.66895 6.71939 9.6355C6.71717 9.60125 6.68133 9.53247 6.66049 9.50389C6.63845 9.47364 6.63104 9.43806 6.60695 9.414Z" fill="#BB9858"/>
<path fill-rule="evenodd" clip-rule="evenodd" d="M6.58503 9.61874C6.5777 9.60296 6.5626 9.54319 6.54005 9.54062C6.4866 9.53453 6.49607 9.60383 6.52069 9.63791C6.54866 9.67661 6.57088 9.70894 6.59787 9.74714C6.61576 9.77247 6.71802 9.85929 6.67712 9.77069C6.66444 9.74321 6.65046 9.71781 6.63535 9.69043C6.6242 9.67019 6.59233 9.63449 6.58503 9.61874Z" fill="#BB9858"/>
<path fill-rule="evenodd" clip-rule="evenodd" d="M7.04911 8.79103C7.02059 8.78295 6.99174 8.75638 6.95465 8.76806C6.909 8.78242 6.82761 8.88453 6.79339 8.93302C6.78577 8.94384 6.72215 9.0101 6.73138 9.0101C6.77262 9.0101 6.80219 9.01674 6.84015 8.99252C6.8767 8.96923 6.8995 8.94114 6.94129 8.94114C6.95673 8.94114 7.05102 8.95787 7.05102 8.93573C7.05102 8.8864 7.05598 8.83962 7.04911 8.79103Z" fill="#252525"/>
<path fill-rule="evenodd" clip-rule="evenodd" d="M7.02053 8.80048C6.99519 8.79875 6.96764 8.78451 6.93699 8.79731C6.89927 8.81307 6.84 8.89309 6.81566 8.9305C6.81023 8.93884 6.7625 8.99219 6.77041 8.99098C6.80585 8.98555 6.83192 8.98615 6.86201 8.96473C6.89098 8.94411 6.90764 8.92204 6.94354 8.91654C6.9568 8.91451 7.02608 8.91509 7.02377 8.90006C7.01863 8.86658 7.02141 8.83396 7.02053 8.80048Z" fill="#BB9858"/>
</svg>
