<svg width="20" height="20" viewBox="0 0 20 20" fill="none" xmlns="http://www.w3.org/2000/svg">
<g clip-path="url(#clip0_814_20296)">
<path fill-rule="evenodd" clip-rule="evenodd" d="M9.9996 16.7742C6.26996 16.7742 3.23535 13.7391 3.23535 9.99026C3.23535 6.26015 6.26996 3.22571 9.9996 3.22571C13.7291 3.22571 16.7637 6.26015 16.7637 9.99026C16.7637 13.6006 13.8875 16.7742 9.9996 16.7742ZM9.9996 16.6579C6.33389 16.6579 3.35138 13.675 3.35138 9.99044C3.35138 6.32425 6.33389 3.34191 9.9996 3.34191C13.6651 3.34191 16.6476 6.32425 16.6476 9.99044C16.6476 13.5388 13.8209 16.6579 9.9996 16.6579Z" fill="#1B1918"/>
<path fill-rule="evenodd" clip-rule="evenodd" d="M9.9981 19.0692C14.9936 19.0692 19.0669 15.0149 19.0669 10.0001C19.0669 4.98537 14.9936 0.931061 9.9981 0.931061C5.00196 0.931061 0.928711 4.98537 0.928711 10.0001C0.928711 15.0149 5.00196 19.0692 9.9981 19.0692ZM9.99804 17.597C14.1826 17.597 17.5947 14.2009 17.5947 10.0001C17.5947 5.79943 14.1826 2.40331 9.99804 2.40331C5.81292 2.40331 2.40093 5.79943 2.40093 10.0001C2.40093 14.2009 5.81292 17.597 9.99804 17.597Z" fill="#009035"/>
<path fill-rule="evenodd" clip-rule="evenodd" d="M10 19.1667C15.0492 19.1667 19.1663 15.0688 19.1663 9.99994C19.1663 4.93123 15.0492 0.833336 10 0.833336C4.95015 0.833336 0.833008 4.93123 0.833008 9.99994C0.833008 15.0688 4.95015 19.1667 10 19.1667ZM10 19.0691C14.9955 19.0691 19.0688 15.0148 19.0688 9.99994C19.0688 4.98521 14.9955 0.930911 10 0.930911C5.00387 0.930911 0.930623 4.98521 0.930623 9.99994C0.930623 15.0148 5.00387 19.0691 10 19.0691Z" fill="#FFCB00"/>
<path fill-rule="evenodd" clip-rule="evenodd" d="M6.40667 17.1176L6.29457 17.3087L6.27633 17.2977C6.29073 17.247 6.29741 17.2081 6.29532 17.1813C6.29313 17.1539 6.28336 17.1281 6.26643 17.1026C6.25749 17.0883 6.23623 17.072 6.20341 17.0527L6.15184 17.0218L5.8331 17.5658C5.81194 17.6021 5.80042 17.6254 5.79968 17.6368C5.79837 17.6482 5.80185 17.6603 5.80871 17.6739C5.81621 17.6881 5.82974 17.7007 5.84972 17.7122L5.87312 17.7259L5.86177 17.745L5.49539 17.5284L5.5063 17.51L5.53004 17.5232C5.5502 17.535 5.56875 17.5413 5.58538 17.5413C5.59725 17.5417 5.6091 17.5378 5.62128 17.5284C5.62996 17.5229 5.64428 17.502 5.66549 17.4663L5.98417 16.9226L5.93351 16.893C5.88625 16.8654 5.84598 16.8548 5.81273 16.8624C5.76678 16.8728 5.72396 16.9015 5.68604 16.949L5.66641 16.937L5.77846 16.7463L6.40667 17.1176ZM5.40514 16.4942C5.21331 16.2634 5.00159 16.3977 5.00159 16.3214C5.02131 16.2253 4.92479 16.1289 4.80941 16.1676C4.79034 16.1864 4.77096 16.0329 4.69434 15.9369C4.59825 15.8408 4.40558 15.7638 4.21422 15.7836C4.09876 15.7836 4.00259 15.7836 4.00259 15.7836C3.92548 15.7638 3.79111 15.7638 3.75293 15.7254H3.73373C3.61857 15.7062 3.52243 15.6487 3.44537 15.5529C3.36852 15.4373 3.33017 15.1876 3.50319 15.1102C3.59928 15.0913 3.77165 15.1876 3.71458 15.2071C3.6952 15.2071 3.6568 15.2071 3.61857 15.245C3.5412 15.3223 3.59929 15.4754 3.71458 15.4951C3.86809 15.514 3.84903 15.3411 3.8681 15.3985C3.88756 15.4754 3.98364 15.5529 4.07956 15.5914C4.1753 15.6296 4.27166 15.61 4.27166 15.61C4.27166 15.61 4.2332 15.5717 4.13685 15.4569C4.02165 15.3605 4.0413 15.303 3.92548 15.1296C3.75294 14.8608 3.59928 14.957 3.61857 14.8994C3.63721 14.8033 3.5412 14.6877 3.44537 14.7071C3.42617 14.7071 3.42617 14.5537 3.36853 14.4577C3.31071 14.323 3.17569 14.2265 3.02269 14.1883C2.86878 14.1692 2.75398 14.1116 2.75398 14.1116C2.69599 14.0925 2.63825 14.0733 2.5806 14.0347L2.54216 14.0151C2.44694 13.9769 2.33121 13.8806 2.29242 13.7853C2.23504 13.6505 2.25432 13.4007 2.44694 13.3622C2.56149 13.3622 2.69599 13.4775 2.63825 13.4775C2.61953 13.4775 2.60006 13.4967 2.54216 13.5153C2.44694 13.5542 2.46571 13.7271 2.56149 13.7462C2.69599 13.7853 2.73443 13.6697 2.73443 13.7271C2.73443 13.8041 2.81132 13.9193 2.88799 13.9769C2.98426 14.0151 3.08025 14.0347 3.08025 14.0347C3.08025 14.0347 3.04224 13.9958 2.96518 13.8616C2.88798 13.7271 2.92652 13.6697 2.84998 13.4775C2.77288 13.266 2.61953 13.17 2.63825 13.1508C2.71562 13.0155 2.63825 12.9011 2.52305 12.8818C2.52305 12.8818 2.54216 12.8242 2.48487 12.6898C2.42705 12.5552 2.34994 12.4202 2.19651 12.3629C2.06206 12.3053 1.92747 12.2092 1.92747 12.2092C1.88886 12.1709 1.81223 12.1128 1.77347 12.0746L1.75476 12.0555C1.67783 11.9784 1.62022 11.8825 1.60084 11.7674C1.58182 11.6329 1.6584 11.4024 1.85028 11.4211C1.96592 11.4211 2.08156 11.5943 2.00424 11.5749C1.9856 11.5561 1.96592 11.5561 1.90823 11.5749C1.79277 11.6329 1.77348 11.7674 1.86957 11.8438C1.9856 11.9212 2.06206 11.7674 2.04251 11.8438C2.02348 11.9212 2.06206 12.0364 2.13838 12.1128C2.1965 12.1709 2.29242 12.2092 2.29242 12.2092C2.29242 12.2092 2.27322 12.1709 2.23504 12.0166C2.1965 11.8631 2.23503 11.8252 2.21587 11.6134C2.1965 11.3062 2.00424 11.3834 2.04251 11.2677C2.13838 11.0755 1.9856 11.0568 2.00424 11.037C2.00424 11.0184 2.04251 10.8835 2.06206 10.7682C2.06206 10.6337 2.00423 10.4992 1.88886 10.4224C1.85028 10.3844 1.69719 10.23 1.69719 10.23C1.6584 10.1917 1.56258 10.076 1.52383 9.9995L1.50445 9.97999C1.44729 9.88416 1.40863 9.76896 1.42783 9.65375C1.44729 9.5193 1.58183 9.30766 1.75476 9.3654C1.85029 9.40406 1.88886 9.57669 1.86957 9.55797C1.85028 9.55797 1.81223 9.51931 1.73529 9.53825C1.63894 9.53825 1.58182 9.69225 1.6584 9.78842C1.75475 9.9035 1.86957 9.76896 1.83156 9.82669C1.81223 9.90349 1.81223 10.038 1.86957 10.115C1.90823 10.1917 1.9856 10.2686 1.9856 10.2686C1.9856 10.2686 1.9856 10.2107 1.9856 10.0573C1.96592 9.88416 2.02348 9.86505 2.06206 9.65375C2.10042 9.36539 1.9472 9.30766 1.9856 9.28894C2.08156 9.21166 2.08156 9.07673 1.9856 9.03859C1.96592 9.01965 2.08157 8.92365 2.11958 8.78929C2.13838 8.65467 2.11957 8.53929 2.02348 8.40528C1.9472 8.27044 1.86957 8.15528 1.86957 8.15528C1.85028 8.09706 1.79276 7.9826 1.77347 7.92452V7.90514C1.73529 7.7899 1.73529 7.67469 1.77347 7.5594C1.83156 7.42513 2.00423 7.27113 2.15801 7.36731C2.25432 7.42513 2.25432 7.6167 2.23504 7.57895C2.21588 7.5594 2.19651 7.54007 2.11958 7.52096C2.02349 7.50163 1.92748 7.63625 1.96592 7.75224C2.04251 7.88634 2.17696 7.7899 2.13838 7.82826C2.08156 7.88634 2.06205 8.0207 2.08155 8.11662C2.10041 8.21227 2.17696 8.28964 2.17696 8.28964C2.17696 8.28964 2.17695 8.23173 2.21587 8.07791C2.25432 7.92452 2.29242 7.92452 2.3886 7.71235C2.50367 7.44389 2.34993 7.3286 2.40757 7.34759C2.50366 7.34759 2.54216 7.15623 2.4657 7.09806C2.44694 7.09806 2.58061 7.00241 2.6575 6.88659C2.71562 6.77165 2.73443 6.63695 2.6575 6.50241C2.60007 6.36792 2.56149 6.15693 2.56149 6.15693C2.54216 6.07982 2.52304 6.02226 2.54216 5.96444V5.94529C2.52304 5.82991 2.56149 5.71483 2.61953 5.61861C2.69598 5.50327 2.92652 5.38825 3.04224 5.52261C3.11918 5.61861 3.09972 5.81084 3.06114 5.75319C3.04225 5.73408 3.04224 5.69546 2.98425 5.67617C2.86878 5.61861 2.75398 5.73408 2.77288 5.84928C2.7919 6.00328 2.96519 5.92582 2.90723 5.96444C2.83087 6.02226 2.79189 6.13755 2.79189 6.23356C2.79189 6.32947 2.83086 6.42556 2.83086 6.42556C2.83086 6.42556 2.84998 6.36792 2.92652 6.23356C2.98425 6.09893 3.04225 6.09893 3.1757 5.92582C3.36853 5.67617 3.1757 5.56097 3.29156 5.56097C3.484 5.54146 3.38782 5.35015 3.40698 5.35015C3.42618 5.33043 3.5412 5.27261 3.6372 5.17687C3.73373 5.08017 3.77165 4.96522 3.75293 4.81157C3.71457 4.65806 3.6952 4.42748 3.6952 4.42748C3.6952 4.36957 3.6952 4.33103 3.71458 4.27374V4.25449C3.73373 4.13903 3.82974 4.02383 3.92548 3.94619C4.02166 3.8512 4.29077 3.79329 4.38695 3.94619C4.42531 4.04346 4.32922 4.23529 4.30967 4.17747C4.30967 4.15832 4.30966 4.12014 4.25284 4.08173C4.15619 4.00476 4.02166 4.08173 4.00259 4.2164C4.00259 4.35041 4.1753 4.33104 4.11801 4.35041C4.04129 4.38912 3.96419 4.48512 3.92548 4.58112C3.90637 4.67686 3.92548 4.77313 3.92548 4.77313C3.92548 4.77313 3.96418 4.73503 4.06036 4.61987C4.15619 4.48512 4.21423 4.5045 4.38695 4.36957C4.61797 4.19659 4.54094 4.04346 4.57921 4.04346C4.8094 4.08173 4.73286 3.88973 4.75224 3.87022C4.77096 3.87022 4.90567 3.85119 5.02131 3.77382C5.11705 3.69711 5.19381 3.60145 5.21332 3.44711C5.21332 3.29363 5.36696 2.90936 5.36696 2.90936V2.89016C5.42426 2.77504 5.50145 2.69789 5.59745 2.64007C5.7127 2.58277 5.96262 2.58277 6.00111 2.75615C6.03938 2.87096 5.92418 3.02487 5.92418 2.96696C5.90454 2.94798 5.92418 2.89016 5.88573 2.85215C5.80871 2.75615 5.65528 2.79407 5.61645 2.92852C5.5588 3.06288 5.73191 3.06288 5.674 3.08243C5.59746 3.10145 5.50146 3.17782 5.44333 3.25536C5.40515 3.3511 5.40514 3.44711 5.40514 3.44711C5.40514 3.44711 5.44333 3.4088 5.55879 3.33234C5.69333 3.23599 5.73191 3.25536 5.94316 3.17782C6.21236 3.04372 6.09712 2.87096 6.21236 2.90936C6.40411 2.96696 6.4041 2.77504 6.42365 2.77504C6.44277 2.77504 6.57705 2.77504 6.69255 2.7366C6.82696 2.69789 6.92314 2.60223 6.96167 2.4677C7.0194 2.31366 7.09624 2.10259 7.09624 2.10259C7.13468 2.04468 7.17278 2.00614 7.21114 1.96774V1.94867C7.3074 1.87174 7.40341 1.85241 7.51914 1.87174C7.63426 1.89103 7.73026 1.94867 7.67253 2.08369C7.65372 2.15988 7.57612 2.17913 7.57612 2.17913C7.57612 2.17913 7.57613 2.10258 7.46114 2.08369C7.46114 2.08369 7.38452 2.08369 7.34586 2.14051C7.28852 2.21805 7.38452 2.25649 7.34586 2.27495C7.13469 2.39042 7.13469 2.58278 7.15406 2.5634C7.38451 2.33304 7.73026 2.29459 7.73026 2.29459C7.80745 2.39042 7.96054 2.37139 7.96054 2.23712H8.09507C8.26827 2.21805 8.42209 2.21805 8.6333 2.1217C8.6333 2.1217 8.17173 2.08369 7.92234 1.9104C7.73025 1.79467 7.55723 1.69867 7.42252 1.7184C7.32643 1.7184 7.2306 1.75693 7.15406 1.83329C7.13469 1.85241 7.07669 1.77565 6.98147 1.79468C6.86539 1.83329 6.88447 1.94867 6.84642 1.94867C6.76958 1.96774 6.71201 1.94867 6.55801 2.04468C6.42365 2.1405 6.42365 2.17912 6.23155 2.21805C6.05844 2.25649 5.98182 2.29459 5.98182 2.29459C5.98182 2.29459 6.03938 2.35206 6.11636 2.35206C6.17348 2.37139 6.28929 2.39042 6.38573 2.33304C6.38573 2.33304 6.36609 2.42886 6.46201 2.4677C6.53877 2.48703 6.59659 2.44833 6.63494 2.39042C6.6541 2.37139 6.65411 2.29459 6.59659 2.2565C6.53877 2.21805 6.69255 2.19867 6.75042 2.21805C6.84642 2.25649 6.84641 2.35206 6.80775 2.42886C6.78885 2.4677 6.73103 2.54398 6.63494 2.58277C6.53877 2.6217 6.38574 2.6217 6.2893 2.58277C6.1929 2.52522 6.07782 2.5058 5.90454 2.4677C5.75106 2.40923 5.57826 2.44833 5.44333 2.5634C5.30932 2.64007 5.30932 2.67878 5.25171 2.79407L5.23243 2.81305C5.21332 2.8326 5.15559 2.7366 5.05932 2.79407C4.96349 2.85215 5.00159 2.94798 4.96349 2.96696C4.88677 3.02487 4.84807 3.00554 4.71406 3.12044C4.59824 3.25536 4.61797 3.29363 4.44403 3.37066C4.27166 3.46692 4.21422 3.50493 4.21422 3.50493C4.21422 3.50493 4.29077 3.54337 4.36774 3.54337C4.4253 3.54337 4.52165 3.52448 4.61796 3.44711C4.61796 3.44711 4.63642 3.56236 4.73286 3.56236C4.82887 3.56236 4.88677 3.46692 4.88677 3.40879C4.88677 3.3511 4.8674 3.35111 4.79034 3.33234C4.73287 3.31284 4.82886 3.2177 4.94433 3.25536C5.00158 3.27417 5.05932 3.37065 5.05932 3.42817C5.04034 3.48616 5.00158 3.58208 4.92478 3.63938C4.82886 3.69711 4.69433 3.73573 4.57921 3.71675C4.48294 3.69711 4.36774 3.69711 4.1753 3.69711C4.02165 3.69711 3.84902 3.7551 3.77165 3.87022C3.67556 3.96622 3.63721 4.00476 3.61857 4.15832L3.59929 4.17747C3.59929 4.2164 3.52243 4.15832 3.44537 4.23529C3.34963 4.31184 3.42617 4.38912 3.38781 4.42748C3.33017 4.48512 3.272 4.48512 3.19563 4.63859C3.09972 4.77313 3.11918 4.81158 2.98425 4.94607C2.84997 5.06145 2.79189 5.11922 2.79189 5.11922C2.79189 5.11922 2.88799 5.13825 2.94581 5.11922C3.00342 5.09971 3.09972 5.06144 3.1757 4.96522C3.1757 4.96522 3.19563 5.08016 3.31071 5.06144C3.38781 5.04216 3.44537 4.98477 3.44537 4.88894C3.42617 4.83077 3.38781 4.81157 3.31071 4.81157C3.25319 4.81157 3.36852 4.69615 3.44537 4.69615C3.5412 4.69615 3.57991 4.77313 3.59929 4.85024C3.59929 4.90779 3.57991 5.00371 3.52244 5.08016C3.44537 5.15745 3.3107 5.23425 3.21553 5.23425C3.09971 5.23425 2.98425 5.27261 2.81131 5.31145C2.65749 5.35015 2.48486 5.50327 2.44694 5.61861C2.3886 5.75319 2.3886 5.82991 2.3886 5.92582V5.94529C2.1965 5.94529 2.13837 6.06053 2.21587 6.21383C2.21587 6.21383 2.11956 6.29146 2.08155 6.46409C2.0425 6.63694 2.06206 6.65623 1.96592 6.80993C1.85028 6.9836 1.81223 7.04033 1.81223 7.04033C1.81223 7.04033 1.90823 7.04033 1.96592 7.00241C2.02348 6.9836 2.10041 6.90623 2.13838 6.79103C2.13838 6.79103 2.1965 6.86788 2.29242 6.84833C2.36957 6.80992 2.40758 6.73295 2.3886 6.65623C2.36957 6.59841 2.27321 6.56019 2.21587 6.57921C2.1965 6.59841 2.27322 6.48386 2.33121 6.46409C2.40758 6.44493 2.50367 6.50241 2.52305 6.57921C2.54216 6.63694 2.56149 6.73294 2.50367 6.82912C2.44694 6.9253 2.34993 7.00241 2.23504 7.04033C2.13838 7.07886 2.04251 7.13686 1.86957 7.21331C1.7353 7.29068 1.60084 7.48199 1.60084 7.59772C1.58182 7.73208 1.60085 7.82826 1.63894 7.92452C1.44729 7.9627 1.40863 8.11661 1.52383 8.21227C1.52383 8.21227 1.46657 8.32774 1.44728 8.52035C1.44728 8.69294 1.48556 8.71201 1.42783 8.88538C1.35085 9.05823 1.35084 9.13503 1.35084 9.13503C1.35084 9.13503 1.42782 9.11566 1.48556 9.05823C1.52383 9.01965 1.58182 8.94229 1.60084 8.82747C1.60084 8.82747 1.67783 8.92365 1.75476 8.84637C1.83157 8.78929 1.83157 8.67356 1.79277 8.61574C1.7353 8.578 1.69719 8.578 1.6584 8.59681C1.60084 8.63538 1.6584 8.48099 1.71622 8.44303C1.79276 8.42426 1.86957 8.44302 1.90823 8.50084C1.96592 8.57799 1.96592 8.65467 1.9472 8.75045C1.92747 8.86592 1.85029 8.98073 1.75476 9.03859C1.65841 9.09637 1.58182 9.17313 1.44728 9.30767C1.33191 9.40406 1.2359 9.6147 1.27417 9.74976C1.29337 9.86505 1.29337 9.92313 1.35084 9.9995V10.0184C1.2359 10.1341 1.2359 10.2686 1.37 10.3454C1.37 10.3454 1.31261 10.4798 1.35084 10.653C1.38963 10.826 1.42782 10.8447 1.40862 11.0184C1.38964 11.2098 1.38965 11.2871 1.38965 11.2871C1.38965 11.2871 1.46658 11.2487 1.50445 11.1717C1.54329 11.1332 1.58183 11.037 1.56258 10.9224C1.56258 10.9224 1.6584 10.9988 1.73529 10.9028C1.77348 10.826 1.75475 10.7102 1.69719 10.6915C1.62022 10.653 1.62023 10.653 1.56258 10.6915C1.50446 10.7484 1.52383 10.5951 1.58183 10.5378C1.62023 10.4798 1.7353 10.4992 1.79277 10.5378C1.83157 10.5756 1.88886 10.653 1.88886 10.7682C1.88886 10.8835 1.85028 11.0184 1.77347 11.0948C1.6972 11.1716 1.63895 11.2677 1.52383 11.4211C1.44729 11.5369 1.40863 11.7674 1.46658 11.8825C1.52383 12.0166 1.54329 12.0746 1.63894 12.1324V12.1518C1.65841 12.1709 1.5433 12.2286 1.56258 12.3244C1.60085 12.4398 1.6972 12.4398 1.71622 12.4782C1.73529 12.5552 1.6972 12.5936 1.77347 12.7468C1.85028 12.9203 1.88886 12.9203 1.92747 13.0929C1.9472 13.2855 1.96592 13.3622 1.96592 13.3622C1.96592 13.3622 2.04251 13.3044 2.06206 13.2275C2.06206 13.17 2.10042 13.0738 2.04251 12.9588C2.04251 12.9588 2.13838 12.9967 2.19651 12.9011C2.21588 12.805 2.17696 12.7468 2.11958 12.7084C2.08157 12.6705 2.00424 12.7084 1.9856 12.7468C1.9856 12.7858 1.90823 12.6898 1.9856 12.574C2.02348 12.5171 2.11958 12.4973 2.17696 12.536C2.21588 12.574 2.29242 12.6318 2.33121 12.728C2.34993 12.8429 2.33121 12.9778 2.29242 13.0738C2.23504 13.17 2.1965 13.2855 2.13838 13.4582C2.08156 13.5928 2.10042 13.8235 2.19651 13.9193C2.27322 14.0347 2.33121 14.0925 2.42704 14.1305L2.44694 14.1498C2.4657 14.1692 2.34993 14.2265 2.40757 14.323C2.44693 14.4192 2.54216 14.3998 2.56149 14.4382C2.60007 14.4958 2.58061 14.5537 2.69598 14.6877C2.81132 14.823 2.84998 14.8033 2.92652 14.9757C3.00341 15.1489 3.04224 15.226 3.04224 15.226C3.04224 15.226 3.08025 15.1489 3.08025 15.0724C3.09971 15.0144 3.08025 14.919 3.02269 14.823C3.02269 14.823 3.11919 14.823 3.13799 14.7071C3.13799 14.6303 3.08025 14.5727 3.02269 14.5537C2.98425 14.5537 2.92652 14.5727 2.90723 14.6302C2.88799 14.6687 2.83087 14.5537 2.84998 14.4765C2.86879 14.4192 2.96518 14.3612 3.04224 14.3805C3.09972 14.3998 3.17569 14.4382 3.23425 14.5343C3.29155 14.6303 3.31071 14.7649 3.27201 14.8608C3.2532 14.9757 3.25319 15.0913 3.21553 15.2829C3.19563 15.418 3.29155 15.6296 3.38781 15.7254C3.50319 15.8024 3.5607 15.8408 3.67556 15.8601V15.879C3.6372 15.9557 3.6952 16.0715 3.6952 16.0715C3.79112 16.1479 3.84902 16.0906 3.88755 16.1289C3.94502 16.1864 3.90636 16.2059 4.04129 16.3214C4.19467 16.417 4.23322 16.3977 4.32922 16.552C4.44403 16.6863 4.50233 16.7438 4.50233 16.7438C4.50233 16.7438 4.52165 16.6668 4.52165 16.5903C4.50232 16.5322 4.48295 16.4368 4.38695 16.3597C4.38695 16.3597 4.50233 16.3406 4.48295 16.244C4.48295 16.1479 4.4253 16.1289 4.34867 16.1094C4.29077 16.0906 4.23321 16.1289 4.23321 16.2059C4.21423 16.244 4.15619 16.1479 4.15619 16.0715C4.15619 16.0133 4.21423 15.9369 4.29077 15.9369C4.34868 15.9369 4.44402 15.9557 4.52165 16.0329C4.59824 16.1094 4.65593 16.244 4.63642 16.3406C4.63642 16.4558 4.67496 16.571 4.69434 16.7629C4.69434 16.8213 4.73286 17.0511 4.94433 17.147L5.04033 17.0127C4.88677 16.9361 4.8094 16.6668 4.96349 16.552C5.04034 16.4942 5.23243 16.5322 5.1747 16.552C5.15559 16.571 5.13616 16.5903 5.11705 16.648C5.05932 16.7629 5.09789 16.8017 5.15558 16.84L5.40514 16.4942ZM10.0138 1.42964C9.96657 1.58587 9.7465 1.80563 9.87331 1.9708C9.93777 2.05436 10.0729 2.07025 10.1463 1.97699C10.2723 1.81706 10.0642 1.58019 10.0138 1.42964ZM9.99489 2.25514C9.55022 2.25514 9.74275 1.69317 9.53329 1.64064C9.41786 1.6213 9.34136 1.69858 9.34136 1.69858C9.34136 1.28987 9.75719 1.39823 9.7832 1.44863C9.7832 1.2876 9.88728 1.15224 9.99489 1.0452C10.1222 1.15159 10.1807 1.27525 10.2134 1.43815C10.239 1.42022 10.642 1.29192 10.7056 1.65949C10.6822 1.64989 10.5903 1.6213 10.5326 1.64064C10.2538 1.7112 10.4396 2.25514 9.99489 2.25514ZM14.5524 16.4942C14.7442 16.2634 14.956 16.3977 14.956 16.3214C14.9363 16.2253 15.0328 16.1289 15.1482 16.1676C15.1672 16.1864 15.1866 16.0329 15.2632 15.9369C15.3593 15.8408 15.552 15.7638 15.7433 15.7836C15.8588 15.7836 15.9549 15.7836 15.9549 15.7836C16.032 15.7638 16.1664 15.7638 16.2046 15.7254H16.2238C16.3389 15.7062 16.4351 15.6487 16.5121 15.5529C16.589 15.4373 16.6274 15.1876 16.4543 15.1102C16.3582 15.0913 16.1859 15.1876 16.2429 15.2071C16.2623 15.2071 16.3008 15.2071 16.3389 15.245C16.4163 15.3223 16.3582 15.4754 16.2429 15.4951C16.0895 15.514 16.1085 15.3411 16.0895 15.3985C16.07 15.4754 15.9739 15.5529 15.878 15.5914C15.7822 15.6296 15.6859 15.61 15.6859 15.61C15.6859 15.61 15.7243 15.5717 15.8207 15.4569C15.9359 15.3605 15.9163 15.303 16.032 15.1296C16.2046 14.8608 16.3582 14.957 16.3389 14.8994C16.3203 14.8033 16.4163 14.6877 16.5121 14.7071C16.5314 14.7071 16.5314 14.5537 16.589 14.4577C16.6469 14.323 16.7819 14.2265 16.9349 14.1883C17.0888 14.1692 17.2036 14.1116 17.2036 14.1116C17.2615 14.0925 17.3193 14.0733 17.377 14.0347L17.4154 14.0151C17.5106 13.9769 17.6263 13.8806 17.6651 13.7853C17.7225 13.6505 17.7032 13.4007 17.5106 13.3622C17.3961 13.3622 17.2615 13.4775 17.3193 13.4775C17.338 13.4775 17.3575 13.4967 17.4154 13.5153C17.5106 13.5542 17.4918 13.7271 17.3961 13.7462C17.2615 13.7853 17.2231 13.6697 17.2231 13.7271C17.2231 13.8041 17.1462 13.9193 17.0695 13.9769C16.9733 14.0151 16.8773 14.0347 16.8773 14.0347C16.8773 14.0347 16.9153 13.9958 16.9923 13.8616C17.0695 13.7271 17.031 13.6697 17.1076 13.4775C17.1847 13.266 17.338 13.17 17.3193 13.1508C17.2419 13.0155 17.3193 12.9011 17.4345 12.8818C17.4345 12.8818 17.4154 12.8242 17.4727 12.6898C17.5305 12.5552 17.6076 12.4202 17.761 12.3629C17.8955 12.3053 18.0301 12.2092 18.0301 12.2092C18.0687 12.1709 18.1453 12.1128 18.1841 12.0746L18.2028 12.0555C18.2797 11.9784 18.3373 11.8825 18.3567 11.7674C18.3757 11.6329 18.2991 11.4024 18.1073 11.4211C17.9916 11.4211 17.876 11.5943 17.9533 11.5749C17.9719 11.5561 17.9916 11.5561 18.0493 11.5749C18.1648 11.6329 18.1841 11.7674 18.088 11.8438C17.9719 11.9212 17.8955 11.7674 17.915 11.8438C17.9341 11.9212 17.8955 12.0364 17.8192 12.1128C17.761 12.1709 17.6651 12.2092 17.6651 12.2092C17.6651 12.2092 17.6843 12.1709 17.7225 12.0166C17.761 11.8631 17.7225 11.8252 17.7416 11.6134C17.761 11.3062 17.9533 11.3834 17.915 11.2677C17.8192 11.0755 17.9719 11.0568 17.9533 11.037C17.9533 11.0184 17.915 10.8835 17.8955 10.7682C17.8955 10.6337 17.9533 10.4992 18.0687 10.4224C18.1073 10.3844 18.2604 10.23 18.2604 10.23C18.2991 10.1917 18.3949 10.076 18.4337 9.9995L18.4531 9.97999C18.5103 9.88416 18.5489 9.76896 18.5297 9.65375C18.5103 9.5193 18.3757 9.30766 18.2028 9.3654C18.1073 9.40406 18.0687 9.57669 18.088 9.55797C18.1073 9.55797 18.1453 9.51931 18.2223 9.53825C18.3186 9.53825 18.3757 9.69225 18.2991 9.78842C18.2028 9.9035 18.088 9.76896 18.126 9.82669C18.1453 9.90349 18.1453 10.038 18.088 10.115C18.0493 10.1917 17.9719 10.2686 17.9719 10.2686C17.9719 10.2686 17.9719 10.2107 17.9719 10.0573C17.9916 9.88416 17.9341 9.86505 17.8955 9.65375C17.8571 9.36539 18.0104 9.30766 17.9719 9.28894C17.876 9.21166 17.876 9.07673 17.9719 9.03859C17.9916 9.01965 17.876 8.92365 17.838 8.78929C17.8192 8.65467 17.838 8.53929 17.9341 8.40528C18.0104 8.27044 18.088 8.15528 18.088 8.15528C18.1073 8.09706 18.1648 7.9826 18.1841 7.92452V7.90514C18.2223 7.7899 18.2223 7.67469 18.1841 7.5594C18.126 7.42513 17.9533 7.27113 17.7996 7.36731C17.7032 7.42513 17.7032 7.6167 17.7225 7.57895C17.7416 7.5594 17.761 7.54007 17.838 7.52096C17.9341 7.50163 18.0301 7.63625 17.9916 7.75224C17.915 7.88634 17.7806 7.7899 17.8192 7.82826C17.876 7.88634 17.8955 8.0207 17.876 8.11662C17.8571 8.21227 17.7806 8.28964 17.7806 8.28964C17.7806 8.28964 17.7806 8.23173 17.7416 8.07791C17.7032 7.92452 17.6651 7.92452 17.569 7.71235C17.4539 7.44389 17.6076 7.3286 17.55 7.34759C17.4539 7.34759 17.4154 7.15623 17.4918 7.09806C17.5106 7.09806 17.377 7.00241 17.3001 6.88659C17.2419 6.77165 17.2231 6.63695 17.3001 6.50241C17.3574 6.36792 17.3961 6.15693 17.3961 6.15693C17.4154 6.07982 17.4345 6.02226 17.4154 5.96444V5.94529C17.4345 5.82991 17.3961 5.71483 17.338 5.61861C17.2615 5.50327 17.031 5.38825 16.9153 5.52261C16.8383 5.61861 16.8578 5.81084 16.8964 5.75319C16.9153 5.73408 16.9153 5.69546 16.9733 5.67617C17.0888 5.61861 17.2036 5.73408 17.1847 5.84928C17.1656 6.00328 16.9923 5.92582 17.0503 5.96444C17.1267 6.02226 17.1656 6.13755 17.1656 6.23356C17.1656 6.32947 17.1267 6.42556 17.1267 6.42556C17.1267 6.42556 17.1076 6.36792 17.031 6.23356C16.9733 6.09893 16.9153 6.09893 16.7819 5.92582C16.589 5.67617 16.7819 5.56097 16.666 5.56097C16.4736 5.54146 16.5697 5.35015 16.5506 5.35015C16.5314 5.33043 16.4163 5.27261 16.3203 5.17687C16.2238 5.08017 16.1859 4.96522 16.2046 4.81157C16.2429 4.65806 16.2623 4.42748 16.2623 4.42748C16.2623 4.36957 16.2623 4.33103 16.2429 4.27374V4.25449C16.2238 4.13903 16.1278 4.02383 16.032 3.94619C15.9359 3.8512 15.6667 3.79329 15.5706 3.94619C15.5323 4.04346 15.6283 4.23529 15.6479 4.17747C15.6479 4.15832 15.6479 4.12014 15.7047 4.08173C15.8014 4.00476 15.9359 4.08173 15.9549 4.2164C15.9549 4.35041 15.7822 4.33104 15.8396 4.35041C15.9163 4.38912 15.9934 4.48512 16.032 4.58112C16.0512 4.67686 16.032 4.77313 16.032 4.77313C16.032 4.77313 15.9934 4.73503 15.8972 4.61987C15.8014 4.48512 15.7433 4.5045 15.5706 4.36957C15.3395 4.19659 15.4166 4.04346 15.3784 4.04346C15.1482 4.08173 15.2247 3.88973 15.2053 3.87022C15.1866 3.87022 15.0519 3.85119 14.9362 3.77382C14.8405 3.69711 14.7637 3.60145 14.7442 3.44711C14.7442 3.29363 14.5906 2.90936 14.5906 2.90936V2.89016C14.5333 2.77504 14.4561 2.69789 14.3601 2.64007C14.2449 2.58277 13.9949 2.58277 13.9564 2.75615C13.9181 2.87096 14.0334 3.02487 14.0334 2.96696C14.053 2.94798 14.0334 2.89016 14.0718 2.85215C14.1488 2.75615 14.3022 2.79407 14.3411 2.92852C14.3988 3.06288 14.2257 3.06288 14.2835 3.08243C14.3601 3.10145 14.4561 3.17782 14.5142 3.25536C14.5524 3.3511 14.5524 3.44711 14.5524 3.44711C14.5524 3.44711 14.5142 3.4088 14.3988 3.33234C14.2642 3.23599 14.2257 3.25536 14.0144 3.17782C13.7452 3.04372 13.8604 2.87096 13.7452 2.90936C13.5535 2.96696 13.5535 2.77504 13.5339 2.77504C13.5147 2.77504 13.3805 2.77504 13.265 2.7366C13.1306 2.69789 13.0344 2.60223 12.9959 2.4677C12.9382 2.31366 12.8613 2.10259 12.8613 2.10259C12.8229 2.04468 12.7847 2.00614 12.7464 1.96774V1.94867C12.6502 1.87174 12.5541 1.85241 12.4384 1.87174C12.3233 1.89103 12.2273 1.94867 12.285 2.08369C12.3038 2.15988 12.3814 2.17913 12.3814 2.17913C12.3814 2.17913 12.3814 2.10258 12.4964 2.08369C12.4964 2.08369 12.5731 2.08369 12.6117 2.14051C12.6691 2.21805 12.5731 2.25649 12.6117 2.27495C12.8229 2.39042 12.8229 2.58278 12.8035 2.5634C12.573 2.33304 12.2273 2.29459 12.2273 2.29459C12.1501 2.39042 11.997 2.37139 11.997 2.23712H11.8625C11.6893 2.21805 11.5355 2.21805 11.3242 2.1217C11.3242 2.1217 11.7858 2.08369 12.0352 1.9104C12.2273 1.79467 12.4003 1.69867 12.535 1.7184C12.6311 1.7184 12.7269 1.75693 12.8035 1.83329C12.8229 1.85241 12.8808 1.77565 12.9761 1.79468C13.0922 1.83329 13.0731 1.94867 13.1111 1.94867C13.188 1.96774 13.2456 1.94867 13.3995 2.04468C13.5339 2.1405 13.5339 2.17912 13.726 2.21805C13.8991 2.25649 13.9757 2.29459 13.9757 2.29459C13.9757 2.29459 13.9181 2.35206 13.8412 2.35206C13.784 2.37139 13.6683 2.39042 13.5718 2.33304C13.5718 2.33304 13.5915 2.42886 13.4956 2.4677C13.4187 2.48703 13.3609 2.44833 13.3226 2.39042C13.3035 2.37139 13.3035 2.29459 13.3609 2.2565C13.4187 2.21805 13.265 2.19867 13.2071 2.21805C13.1111 2.25649 13.1111 2.35206 13.1498 2.42886C13.1687 2.4677 13.2265 2.54398 13.3226 2.58277C13.4188 2.6217 13.5718 2.6217 13.6683 2.58277C13.7647 2.52522 13.8797 2.5058 14.053 2.4677C14.2065 2.40923 14.3793 2.44833 14.5142 2.5634C14.6482 2.64007 14.6482 2.67878 14.7058 2.79407L14.7251 2.81305C14.7442 2.8326 14.802 2.7366 14.8982 2.79407C14.9941 2.85215 14.956 2.94798 14.9941 2.96696C15.0708 3.02487 15.1094 3.00554 15.2435 3.12044C15.3593 3.25536 15.3395 3.29363 15.5135 3.37066C15.6859 3.46692 15.7433 3.50493 15.7433 3.50493C15.7433 3.50493 15.6667 3.54337 15.5898 3.54337C15.5323 3.54337 15.4359 3.52448 15.3396 3.44711C15.3396 3.44711 15.3211 3.56236 15.2247 3.56236C15.1287 3.56236 15.0708 3.46692 15.0708 3.40879C15.0708 3.3511 15.0902 3.35111 15.1672 3.33234C15.2247 3.31284 15.1287 3.2177 15.0132 3.25536C14.956 3.27417 14.8982 3.37065 14.8982 3.42817C14.9172 3.48616 14.956 3.58208 15.0328 3.63938C15.1287 3.69711 15.2632 3.73573 15.3784 3.71675C15.4746 3.69711 15.5898 3.69711 15.7822 3.69711C15.9359 3.69711 16.1085 3.7551 16.1859 3.87022C16.282 3.96622 16.3203 4.00476 16.3389 4.15832L16.3582 4.17747C16.3582 4.2164 16.4351 4.15832 16.5121 4.23529C16.6079 4.31184 16.5314 4.38912 16.5697 4.42748C16.6274 4.48512 16.6855 4.48512 16.7619 4.63859C16.8578 4.77313 16.8383 4.81158 16.9733 4.94607C17.1076 5.06145 17.1656 5.11922 17.1656 5.11922C17.1656 5.11922 17.0695 5.13825 17.0117 5.11922C16.9541 5.09971 16.8578 5.06144 16.7819 4.96522C16.7819 4.96522 16.7619 5.08016 16.6469 5.06144C16.5697 5.04216 16.5121 4.98477 16.5121 4.88894C16.5314 4.83077 16.5697 4.81157 16.6469 4.81157C16.7043 4.81157 16.589 4.69615 16.5121 4.69615C16.4163 4.69615 16.3776 4.77313 16.3582 4.85024C16.3582 4.90779 16.3777 5.00371 16.4351 5.08016C16.5121 5.15745 16.6469 5.23425 16.742 5.23425C16.8578 5.23425 16.9733 5.27261 17.1462 5.31145C17.3001 5.35015 17.4727 5.50327 17.5106 5.61861C17.569 5.75319 17.569 5.82991 17.569 5.92582V5.94529C17.761 5.94529 17.8192 6.06053 17.7416 6.21383C17.7416 6.21383 17.838 6.29146 17.876 6.46409C17.915 6.63694 17.8955 6.65623 17.9916 6.80993C18.1073 6.9836 18.1453 7.04033 18.1453 7.04033C18.1453 7.04033 18.0493 7.04033 17.9916 7.00241C17.9341 6.9836 17.8571 6.90623 17.8192 6.79103C17.8192 6.79103 17.761 6.86788 17.6651 6.84833C17.588 6.80992 17.55 6.73295 17.569 6.65623C17.588 6.59841 17.6843 6.56019 17.7416 6.57921C17.761 6.59841 17.6843 6.48386 17.6263 6.46409C17.55 6.44493 17.4539 6.50241 17.4345 6.57921C17.4154 6.63694 17.3961 6.73294 17.4539 6.82912C17.5106 6.9253 17.6076 7.00241 17.7225 7.04033C17.8192 7.07886 17.915 7.13686 18.088 7.21331C18.2223 7.29068 18.3567 7.48199 18.3567 7.59772C18.3757 7.73208 18.3567 7.82826 18.3186 7.92452C18.5103 7.9627 18.5489 8.11661 18.4337 8.21227C18.4337 8.21227 18.4909 8.32774 18.5103 8.52035C18.5103 8.69294 18.472 8.71201 18.5297 8.88538C18.6067 9.05823 18.6067 9.13503 18.6067 9.13503C18.6067 9.13503 18.5297 9.11566 18.472 9.05823C18.4337 9.01965 18.3757 8.94229 18.3567 8.82747C18.3567 8.82747 18.2797 8.92365 18.2028 8.84637C18.126 8.78929 18.126 8.67356 18.1647 8.61574C18.2223 8.578 18.2604 8.578 18.2991 8.59681C18.3567 8.63538 18.2991 8.48099 18.2413 8.44303C18.1648 8.42426 18.088 8.44302 18.0493 8.50084C17.9916 8.57799 17.9916 8.65467 18.0104 8.75045C18.0301 8.86592 18.1073 8.98073 18.2028 9.03859C18.2991 9.09637 18.3757 9.17313 18.5103 9.30767C18.6257 9.40406 18.7217 9.6147 18.6834 9.74976C18.6642 9.86505 18.6642 9.92313 18.6067 9.9995V10.0184C18.7217 10.1341 18.7217 10.2686 18.5876 10.3454C18.5876 10.3454 18.6449 10.4798 18.6067 10.653C18.5679 10.826 18.5297 10.8447 18.5489 11.0184C18.5679 11.2098 18.5679 11.2871 18.5679 11.2871C18.5679 11.2871 18.4909 11.2487 18.4531 11.1717C18.4143 11.1332 18.3757 11.037 18.3949 10.9224C18.3949 10.9224 18.2991 10.9988 18.2223 10.9028C18.1841 10.826 18.2028 10.7102 18.2604 10.6915C18.3373 10.653 18.3373 10.653 18.3949 10.6915C18.4531 10.7484 18.4337 10.5951 18.3757 10.5378C18.3373 10.4798 18.2223 10.4992 18.1647 10.5378C18.126 10.5756 18.0687 10.653 18.0687 10.7682C18.0687 10.8835 18.1073 11.0184 18.1841 11.0948C18.2604 11.1716 18.3186 11.2677 18.4337 11.4211C18.5103 11.5369 18.5489 11.7674 18.4909 11.8825C18.4337 12.0166 18.4143 12.0746 18.3186 12.1324V12.1518C18.2991 12.1709 18.4143 12.2286 18.3949 12.3244C18.3567 12.4398 18.2604 12.4398 18.2413 12.4782C18.2223 12.5552 18.2604 12.5936 18.1841 12.7468C18.1073 12.9203 18.0687 12.9203 18.0301 13.0929C18.0104 13.2855 17.9916 13.3622 17.9916 13.3622C17.9916 13.3622 17.915 13.3044 17.8955 13.2275C17.8955 13.17 17.8571 13.0738 17.915 12.9588C17.915 12.9588 17.8192 12.9967 17.761 12.9011C17.7416 12.805 17.7806 12.7468 17.838 12.7084C17.876 12.6705 17.9533 12.7084 17.9719 12.7468C17.9719 12.7858 18.0493 12.6898 17.9719 12.574C17.9341 12.5171 17.838 12.4973 17.7806 12.536C17.7416 12.574 17.6651 12.6318 17.6263 12.728C17.6076 12.8429 17.6263 12.9778 17.6651 13.0738C17.7225 13.17 17.761 13.2855 17.8192 13.4582C17.876 13.5928 17.8571 13.8235 17.761 13.9193C17.6843 14.0347 17.6263 14.0925 17.5305 14.1305L17.5106 14.1498C17.4918 14.1692 17.6076 14.2265 17.55 14.323C17.5106 14.4192 17.4154 14.3998 17.3961 14.4382C17.3574 14.4958 17.377 14.5537 17.2615 14.6877C17.1462 14.823 17.1076 14.8033 17.031 14.9757C16.9542 15.1489 16.9153 15.226 16.9153 15.226C16.9153 15.226 16.8773 15.1489 16.8773 15.0724C16.8578 15.0144 16.8773 14.919 16.9349 14.823C16.9349 14.823 16.8383 14.823 16.8196 14.7071C16.8196 14.6303 16.8773 14.5727 16.9349 14.5537C16.9733 14.5537 17.031 14.5727 17.0503 14.6302C17.0695 14.6687 17.1267 14.5537 17.1076 14.4765C17.0888 14.4192 16.9923 14.3612 16.9153 14.3805C16.8578 14.3998 16.7819 14.4382 16.7233 14.5343C16.666 14.6303 16.6469 14.7649 16.6855 14.8608C16.7043 14.9757 16.7043 15.0913 16.742 15.2829C16.7619 15.418 16.666 15.6296 16.5697 15.7254C16.4543 15.8024 16.3968 15.8408 16.2819 15.8601V15.879C16.3203 15.9557 16.2623 16.0715 16.2623 16.0715C16.1664 16.1479 16.1085 16.0906 16.07 16.1289C16.0125 16.1864 16.0512 16.2059 15.9163 16.3214C15.7628 16.417 15.7243 16.3977 15.6283 16.552C15.5135 16.6863 15.4552 16.7438 15.4552 16.7438C15.4552 16.7438 15.4359 16.6668 15.4359 16.5903C15.4552 16.5322 15.4746 16.4368 15.5706 16.3597C15.5706 16.3597 15.4552 16.3406 15.4746 16.244C15.4746 16.1479 15.5323 16.1289 15.6088 16.1094C15.6668 16.0906 15.7243 16.1289 15.7243 16.2059C15.7433 16.244 15.8014 16.1479 15.8014 16.0715C15.8014 16.0133 15.7433 15.9369 15.6667 15.9369C15.6088 15.9369 15.5135 15.9557 15.4359 16.0329C15.3593 16.1094 15.3016 16.244 15.3211 16.3406C15.3211 16.4558 15.2826 16.571 15.2632 16.7629C15.2632 16.8213 15.2247 17.0511 15.0132 17.147L14.9172 17.0127C15.0708 16.9361 15.1482 16.6668 14.9941 16.552C14.9172 16.4942 14.7251 16.5322 14.7829 16.552C14.802 16.571 14.8214 16.5903 14.8405 16.648C14.8982 16.7629 14.8596 16.8017 14.802 16.84L14.5524 16.4942ZM6.80732 17.934L6.5427 17.8245L6.48039 17.8848C6.4604 17.9051 6.4467 17.923 6.44002 17.9389C6.43142 17.9604 6.43343 17.9794 6.44631 17.9964C6.45355 18.0067 6.47645 18.0211 6.51406 18.0406L6.50578 18.061L6.25639 17.9571L6.26481 17.9362C6.29339 17.944 6.31997 17.9421 6.34511 17.9304C6.37003 17.9194 6.40703 17.89 6.45643 17.8432L6.97344 17.3514L6.98387 17.3558L6.99866 18.0874C7.00041 18.1572 7.00644 18.2031 7.01656 18.2253C7.02416 18.2421 7.03934 18.2554 7.06107 18.2674L7.05321 18.2881L6.69002 18.1373L6.69804 18.1165L6.71324 18.1228C6.74256 18.1351 6.76504 18.1397 6.77974 18.1359C6.79039 18.1333 6.79823 18.1271 6.80273 18.1155C6.80535 18.1084 6.80709 18.1022 6.80775 18.0937C6.80818 18.0898 6.8095 18.0737 6.80819 18.045L6.80732 17.934ZM6.80556 17.8851L6.80165 17.5786L6.57905 17.7913L6.80556 17.8851ZM8.23742 17.7786L8.17463 17.9911L8.15398 17.9848C8.15617 17.9316 8.1531 17.893 8.14477 17.8672C8.13617 17.8415 8.12038 17.8183 8.09817 17.7975C8.08587 17.7867 8.06107 17.7756 8.02494 17.7645L7.9669 17.7474L7.78816 18.3524C7.77655 18.3925 7.77145 18.4184 7.77254 18.4294C7.77385 18.4411 7.78004 18.4522 7.79052 18.4634C7.80121 18.4751 7.81775 18.484 7.83987 18.4904L7.86553 18.4984L7.85942 18.5195L7.45202 18.3985L7.45813 18.3776L7.48445 18.3849C7.50683 18.3915 7.52616 18.3933 7.54201 18.3888C7.55348 18.3862 7.56373 18.3795 7.57394 18.3681C7.58044 18.36 7.59013 18.337 7.60152 18.297L7.7804 17.6923L7.72406 17.6756C7.67179 17.6602 7.63015 17.6599 7.59974 17.6752C7.55723 17.6965 7.52355 17.7349 7.49723 17.7905L7.47519 17.784L7.53794 17.5716L8.23742 17.7786ZM8.82456 18.4538L8.54074 18.4117L8.49518 18.4858C8.48026 18.5104 8.4714 18.5309 8.4687 18.5481C8.46564 18.5705 8.47218 18.5892 8.48894 18.6022C8.49801 18.6103 8.52376 18.6186 8.56505 18.6285L8.562 18.6501L8.29453 18.6106L8.2976 18.5892C8.32736 18.5883 8.35265 18.5801 8.37404 18.5637C8.39599 18.5464 8.42531 18.5091 8.46136 18.4513L8.84537 17.8484L8.85633 17.8502L9.04637 18.5564C9.06496 18.6234 9.08158 18.6662 9.09733 18.6855C9.10872 18.6997 9.12667 18.7094 9.15067 18.7152L9.14761 18.7374L8.75901 18.6794L8.76207 18.6576L8.77835 18.6602C8.8095 18.6642 8.83198 18.6629 8.84595 18.6563C8.85563 18.6516 8.86108 18.6429 8.863 18.6309C8.86431 18.6237 8.86431 18.616 8.86257 18.6085C8.86257 18.6046 8.85864 18.589 8.8517 18.5609L8.82456 18.4538ZM8.81051 18.4067L8.733 18.1105L8.56853 18.3704L8.81051 18.4067ZM9.80842 18.3969L9.79864 18.6235C9.79646 18.6681 9.79734 18.6955 9.80301 18.7069C9.80773 18.7193 9.8168 18.7286 9.83019 18.7361C9.84398 18.7432 9.86912 18.7475 9.90573 18.7492L9.90442 18.7714L9.49256 18.7544L9.49292 18.7318C9.53067 18.7336 9.55601 18.7309 9.56994 18.7246C9.58333 18.7185 9.59324 18.7095 9.59935 18.6984C9.60564 18.6873 9.60903 18.6598 9.61095 18.6159L9.63496 18.0856C9.63671 18.0414 9.63539 18.0139 9.63059 18.0018C9.62501 17.9902 9.61624 17.9806 9.60328 17.9735C9.58993 17.9653 9.56471 17.9614 9.52775 17.9597L9.52817 17.9377L9.88242 17.9525C9.99824 17.9569 10.0812 17.9818 10.1305 18.0257C10.1787 18.0693 10.2019 18.1224 10.1992 18.1857C10.1961 18.2381 10.1783 18.2827 10.1438 18.3198C10.1099 18.3557 10.0635 18.3794 10.0052 18.3914C9.96647 18.3985 9.90041 18.4007 9.80842 18.3969ZM9.82622 17.9972L9.8106 18.3501C9.82396 18.3514 9.83346 18.3523 9.84031 18.3523C9.88897 18.3544 9.9268 18.3411 9.9546 18.3134C9.98188 18.286 9.9978 18.2407 10.0005 18.1794C10.0031 18.1188 9.99213 18.0742 9.96691 18.0449C9.9416 18.0157 9.90334 18.0003 9.85093 17.998L9.82622 17.9972ZM11.2332 17.8346L11.2695 18.115L11.2465 18.1177C11.2196 18.047 11.18 17.9956 11.1273 17.9626C11.0749 17.9301 11.0183 17.9178 10.9579 17.9259C10.9078 17.9328 10.8634 17.9537 10.8253 17.9886C10.7873 18.0231 10.761 18.0652 10.7482 18.1147C10.7312 18.1784 10.7271 18.2469 10.7367 18.3206C10.7455 18.3931 10.7636 18.4581 10.7901 18.515C10.8155 18.5721 10.85 18.6136 10.8926 18.639C10.9356 18.6643 10.9876 18.6726 11.0493 18.6643C11.1003 18.657 11.1449 18.6396 11.1848 18.6116C11.2239 18.5843 11.2626 18.5394 11.3028 18.478L11.3121 18.5486C11.273 18.6017 11.2302 18.6427 11.1843 18.6704C11.1379 18.6984 11.0817 18.7165 11.0169 18.7254C10.931 18.7371 10.8522 18.7297 10.7815 18.7044C10.7099 18.6787 10.652 18.6357 10.6073 18.576C10.5631 18.5153 10.5356 18.4483 10.526 18.3757C10.5163 18.2986 10.5268 18.2223 10.5586 18.1481C10.5891 18.0729 10.6366 18.0112 10.6996 17.9646C10.7636 17.917 10.8333 17.8882 10.91 17.8776C10.9667 17.8707 11.0277 17.8746 11.0944 17.8907C11.1327 17.9004 11.1569 17.9044 11.1666 17.9026C11.1786 17.9013 11.1896 17.895 11.1977 17.8844C11.2059 17.8733 11.2099 17.8585 11.2099 17.8374L11.2332 17.8346ZM12.289 17.6273L12.3358 17.8432L12.3148 17.8478C12.2914 17.801 12.2696 17.7679 12.2493 17.7497C12.23 17.7314 12.2051 17.7188 12.1758 17.7119C12.1594 17.708 12.133 17.711 12.0958 17.7188L12.0369 17.7324L12.1714 18.3471C12.1803 18.388 12.1882 18.4129 12.1947 18.4224C12.2016 18.4315 12.2127 18.4383 12.227 18.4432C12.2423 18.448 12.2606 18.4479 12.283 18.4428L12.3101 18.437L12.314 18.4589L11.8987 18.552L11.8939 18.5306L11.9205 18.5243C11.9433 18.5193 11.9612 18.5111 11.9738 18.4993C11.9824 18.4917 11.9882 18.4805 11.9909 18.4656C11.9931 18.4557 11.99 18.4305 11.9813 18.3907L11.8462 17.7748L11.7892 17.7881C11.7356 17.7999 11.6992 17.8202 11.6803 17.8481C11.6532 17.8876 11.6419 17.938 11.6457 17.999L11.6231 18.0036L11.5761 17.7878L12.289 17.6273ZM13.1371 17.9371L12.8698 18.0437L12.8668 18.1302C12.8663 18.1591 12.869 18.1815 12.8752 18.1975C12.8837 18.2191 12.8981 18.231 12.9192 18.2341C12.9315 18.2363 12.9583 18.231 12.9984 18.2184L13.0069 18.2388L12.7551 18.3389L12.7471 18.3184C12.7724 18.3034 12.7908 18.2831 12.8008 18.2577C12.8111 18.2325 12.8179 18.1858 12.8205 18.1171L12.8542 17.4034L12.8651 17.399L13.3808 17.9136C13.4301 17.9626 13.4661 17.991 13.4887 17.9997C13.5059 18.0062 13.5265 18.0058 13.5503 17.9989L13.5585 18.0197L13.1924 18.1654L13.1845 18.1444L13.1996 18.1383C13.2294 18.1269 13.2482 18.1145 13.2565 18.1016C13.2626 18.0923 13.2631 18.0819 13.2591 18.0704C13.2565 18.0642 13.2524 18.0578 13.2473 18.0516C13.2451 18.0481 13.2342 18.0366 13.2142 18.016L13.1371 17.9371ZM13.1017 17.9034L12.8868 17.6864L12.8728 17.9944L13.1017 17.9034ZM13.9428 17.3845L14.066 17.6044C14.0863 17.641 14.1012 17.6627 14.1105 17.6697C14.1195 17.676 14.1318 17.6796 14.1471 17.6796C14.1627 17.6799 14.1799 17.6746 14.2 17.6632L14.2235 17.6501L14.2345 17.6694L13.8645 17.8804L13.8537 17.8605L13.8772 17.8475C13.8975 17.8358 13.9117 17.8226 13.9204 17.8083C13.9268 17.7975 13.9287 17.7858 13.9271 17.771C13.9262 17.7609 13.9157 17.7374 13.8958 17.7013L13.6335 17.2345C13.6134 17.198 13.5984 17.1764 13.5894 17.1694C13.5804 17.1627 13.5677 17.1591 13.5529 17.1591C13.5374 17.1591 13.5195 17.1646 13.4999 17.1758L13.4767 17.189L13.4654 17.1694L13.8354 16.9584L13.8464 16.9781L13.8227 16.9912C13.8023 17.0032 13.7879 17.0161 13.7793 17.0308C13.773 17.0409 13.7703 17.053 13.7721 17.0681C13.7725 17.0788 13.7838 17.1024 13.8035 17.1373L13.9165 17.3384L14.1662 17.1958L14.0533 16.9946C14.0331 16.9584 14.0178 16.9365 14.0097 16.93C14 16.9226 13.9874 16.9195 13.9728 16.9195C13.9568 16.9195 13.939 16.9247 13.9194 16.9364L13.8968 16.9494L13.8851 16.93L14.2549 16.7185L14.2662 16.7383L14.2428 16.7514C14.2224 16.7633 14.2074 16.7767 14.1994 16.7907C14.1931 16.8008 14.1907 16.813 14.1922 16.8281C14.1931 16.8388 14.2033 16.8617 14.2235 16.8973L14.486 17.3648C14.5062 17.4012 14.5207 17.4228 14.5298 17.4298C14.5387 17.4364 14.5515 17.4401 14.5665 17.4402C14.5827 17.4402 14.6002 17.4347 14.6202 17.4235L14.6431 17.4103L14.6541 17.4298L14.2844 17.6404L14.2736 17.6211L14.2963 17.6084C14.3172 17.5964 14.3317 17.583 14.3398 17.5689C14.3461 17.5588 14.3488 17.546 14.3473 17.5312C14.346 17.5207 14.3356 17.4976 14.3158 17.4617L14.1924 17.2419L13.9428 17.3845Z" fill="#FFCB00"/>
<path fill-rule="evenodd" clip-rule="evenodd" d="M9.99835 17.6089C14.1874 17.6089 17.5884 14.2079 17.5884 10C17.5884 5.79226 14.1874 2.39095 9.99835 2.39095C5.80934 2.39095 2.4082 5.79226 2.4082 10C2.4082 14.2079 5.80934 17.6089 9.99835 17.6089ZM9.99835 17.4871C14.1204 17.4871 17.467 14.1406 17.467 10C17.467 5.85951 14.1204 2.5127 9.99835 2.5127C5.87633 2.5127 2.52962 5.85951 2.52962 10C2.52962 14.1406 5.87633 17.4871 9.99835 17.4871Z" fill="#FFCB00"/>
<path fill-rule="evenodd" clip-rule="evenodd" d="M10.0001 16.679C6.32295 16.679 3.33105 13.6867 3.33105 9.99058C3.33105 6.31291 6.32295 3.3212 10.0001 3.3212C13.6771 3.3212 16.669 6.31291 16.669 9.99058C16.669 13.5501 13.8334 16.679 10.0001 16.679Z" fill="#E30016"/>
<path fill-rule="evenodd" clip-rule="evenodd" d="M7.22168 5.28613V5.29547L7.22709 5.29071L7.22168 5.28613Z" fill="#ECEDED"/>
<path fill-rule="evenodd" clip-rule="evenodd" d="M9.71584 9.91347C10.2692 9.91347 10.7178 10.3531 10.7178 10.8954C10.7178 11.4376 10.2692 11.8773 9.71584 11.8773C9.16247 11.8773 8.71387 11.4376 8.71387 10.8954C8.71387 10.3531 9.16247 9.91347 9.71584 9.91347Z" fill="#1B1918"/>
<path fill-rule="evenodd" clip-rule="evenodd" d="M6.46114 14.6586C6.43317 14.7462 6.45162 14.7875 6.47366 14.875C6.35449 14.8404 6.25186 14.8065 6.22306 14.6651C6.18645 14.6465 6.15873 14.6213 6.13879 14.5929L6.11239 14.5796C5.99584 14.5211 5.97258 14.3928 6.00456 14.315L6.00761 14.2866C6.03934 13.9659 6.40707 13.8336 6.68604 13.8997C6.75263 13.9015 6.85418 13.9474 6.90738 13.9742C6.98841 14.0148 7.09459 14.0534 7.18352 14.0152C7.32774 13.9526 7.40346 13.6717 7.44422 13.5348L7.61261 12.9746C7.68737 12.7259 7.77302 12.4686 7.83847 12.2183C7.85772 12.144 7.85065 11.992 7.8424 11.9097C7.8366 11.8936 7.83123 11.877 7.82617 11.8599L7.78747 11.844C7.76242 11.8337 7.73811 11.8233 7.71437 11.8127L7.69635 11.8241C7.46498 11.9704 7.17894 11.942 6.9398 11.832C6.77956 11.7582 6.62107 11.6738 6.46546 11.5907C6.32761 11.5171 6.1905 11.4422 6.05344 11.3672C5.99038 11.3328 5.90834 11.282 5.8438 11.2545C5.77193 11.2254 5.68151 11.1739 5.601 11.1942C5.52088 11.2143 5.52437 11.3202 5.51787 11.3843C5.42004 11.3342 5.365 11.3002 5.365 11.1742C5.365 11.1431 5.36968 11.1052 5.38168 11.071C5.2546 11.068 5.09781 11.0995 5.06835 11.236C5.05146 11.3267 5.10257 11.4364 5.06923 11.5477C5.07054 11.5474 5.07185 11.5468 5.07316 11.5464L5.1946 11.5336C5.16492 11.613 5.1442 11.6901 5.0598 11.7296L5.05631 11.7369C5.02507 11.8029 4.97187 11.8412 4.9168 11.8576C4.8407 11.9916 4.6658 11.9916 4.61234 11.9211C4.39834 11.9079 4.29273 11.5231 4.31556 11.3557C4.35099 11.0908 4.57407 10.781 4.79885 10.6444C5.01538 10.513 5.28501 10.4975 5.53187 10.5005C5.88298 10.5049 6.21822 10.6031 6.55789 10.6768C6.66956 10.7015 6.79279 10.7061 6.90682 10.7026L6.909 10.7025C6.9042 10.6606 6.90018 10.6173 6.89687 10.5726C6.87933 10.3353 6.87889 10.1241 6.89861 9.88808C6.92257 9.60356 6.90036 9.39559 6.84865 9.11155C6.81404 8.91793 6.78485 8.80259 6.67697 8.64179C6.60144 8.5302 6.47838 8.41121 6.3352 8.40741C6.31068 8.40697 6.26451 8.44856 6.24702 8.46348C6.19155 8.51148 6.13975 8.54447 6.06936 8.56612C5.97048 8.59732 5.88805 8.62075 5.7889 8.57092C5.74758 8.55015 5.72471 8.52811 5.6984 8.49202C5.68657 8.47605 5.67527 8.46309 5.65947 8.45092C5.62448 8.42386 5.58197 8.38485 5.58323 8.33742C5.58323 8.32035 5.58787 8.30652 5.59576 8.29491L5.56399 8.18543C5.52498 8.15462 5.4946 8.12245 5.48204 8.07362C5.45057 8.0511 5.42893 8.02065 5.40606 7.98709C5.37896 7.94795 5.36644 7.89911 5.36234 7.85212L5.36104 7.83798C5.32115 7.78644 5.30596 7.69838 5.30596 7.64235C5.30596 7.54194 5.40981 7.48905 5.48299 7.44498C5.56146 7.3954 5.61068 7.31472 5.70812 7.28155L5.80142 7.25794C5.90279 7.23582 5.9528 7.21702 6.01319 7.12979C6.16143 6.91805 6.43522 6.88428 6.6741 6.89449C6.73118 6.89667 6.78785 6.90217 6.84445 6.90915L6.84577 6.9074L6.85012 6.9071C6.89359 6.85482 6.94172 6.79848 7.00386 6.77187C7.09524 6.73124 7.171 6.72819 7.2636 6.77217C7.36436 6.82039 7.38081 6.88087 7.3977 6.98276C7.4042 7.02352 7.41322 7.07986 7.4158 7.12459C7.51446 7.19332 7.67183 7.32772 7.74427 7.40357C8.07295 7.7497 8.18261 8.12791 8.38766 8.54216C8.47616 8.74307 8.58377 8.90414 8.73018 9.01485C8.7945 8.64397 8.83251 8.26663 8.83251 7.89017C8.83251 7.74054 8.82652 7.59077 8.81291 7.44166C8.75447 6.78395 8.53367 5.85438 8.00758 5.40591C7.85083 5.2795 7.59013 5.11717 7.38412 5.21662C7.27245 5.27055 7.2467 5.31942 7.15 5.44929L7.1586 5.24463C7.16772 5.02723 7.3171 4.85263 7.53114 4.80864C7.87967 4.74476 8.21778 4.95609 8.46517 5.19846C8.43514 5.02273 8.42637 4.84007 8.45478 4.66639C8.50937 4.3364 8.77874 3.87798 9.17733 4.00008C9.26993 4.02845 9.39137 4.09146 9.51456 4.13283L9.30147 4.18432C8.99706 4.25789 8.88321 4.61262 8.87767 4.89003C8.87985 5.14719 9.06073 5.48412 9.17563 5.71156L9.24706 5.85905C9.22546 5.34229 9.44994 4.70492 10.0363 4.94663C10.0996 4.97272 10.2112 5.08583 10.2977 5.14466L10.1117 5.15513C9.54904 5.18703 9.71473 5.94475 9.8456 6.28569C9.88021 6.37507 9.91407 6.46422 9.94427 6.5546C9.99201 6.31035 10.1047 6.06223 10.3279 5.9818C10.4255 5.94929 10.5206 5.94755 10.6134 5.99564C10.7412 6.06197 10.8725 6.17948 10.9947 6.26043L10.7163 6.22033C10.5115 6.19078 10.4121 6.42469 10.38 6.59086C10.3177 6.84116 10.4089 7.17429 10.4759 7.42674C10.5217 7.22033 10.6268 7.02492 10.8475 7.01873C10.9259 7.01384 10.998 7.02903 11.0655 7.06957C11.1407 7.11456 11.2396 7.21662 11.3345 7.28627L11.1327 7.28086C10.9274 7.27523 10.8811 7.30211 10.8676 7.51144C10.8514 7.75642 10.9142 8.06647 10.9553 8.35077C11.0034 8.25193 11.0821 8.16566 11.1884 8.14436C11.2529 8.12861 11.3184 8.13716 11.376 8.17063C11.4232 8.19812 11.4736 8.2775 11.5315 8.33209L11.4214 8.36098C11.2516 8.40558 11.2818 8.62656 11.2818 8.75987C11.2827 8.81123 11.2836 8.8622 11.2836 8.91356C11.2836 8.91618 11.2836 8.91906 11.2836 8.92177C11.394 8.88193 11.4487 8.84523 11.5514 8.7659L11.6058 8.72396C11.8611 8.52859 12.1765 8.37599 12.498 8.33353C12.751 8.3012 13.047 8.3519 13.2892 8.42582C13.5474 8.50546 13.7393 8.62996 13.9595 8.782C14.1338 8.90213 14.5053 9.07668 14.6757 8.86351C14.8559 8.63786 14.6321 8.33933 14.492 8.15623C14.2919 7.89397 13.4813 7.46623 13.1613 7.29138C12.648 7.00651 12.1359 6.73595 11.8645 6.1835C11.6805 5.80786 11.6796 5.36036 11.8933 4.99699C11.9907 4.83256 12.2522 4.52111 12.4674 4.64505C12.6699 4.76213 12.5932 5.0329 12.5027 5.19589C12.3688 5.44366 12.376 5.6334 12.5579 5.86385C12.8071 6.18066 13.4766 6.57292 13.8444 6.74931C14.2827 6.96043 14.7651 7.25393 15.0674 7.64322C15.3268 7.97509 15.4767 8.34353 15.44 8.76795C15.4099 9.12394 15.1788 9.39541 14.8768 9.56621C14.8556 9.57817 14.7716 9.62621 14.7428 9.65383C14.7694 9.67958 14.8252 9.69398 14.8307 9.74997C14.8711 10.0148 14.9001 10.2704 14.9001 10.5388C14.9001 10.8331 14.8497 11.1631 14.8118 11.4562C14.7912 11.6207 14.7562 11.8272 14.7562 11.9913C14.7562 12.227 15 12.3453 15 12.5854C15 12.7449 14.659 13.2572 14.5516 13.4103C14.4908 13.4973 14.1958 13.9017 14.1958 14.0006C14.1959 14.0028 14.196 14.0045 14.196 14.0045C14.2069 14.0706 14.319 14.0254 14.3661 14.0254C14.3599 14.19 14.1605 14.2763 14.0137 14.2361C13.9699 14.321 13.906 14.4025 13.8357 14.463C13.6606 14.6127 13.4602 14.615 13.2496 14.6703C13.1784 14.6893 13.1035 14.7107 13.0305 14.718C12.9513 14.727 12.8513 14.7178 12.7706 14.6996C12.7575 14.7408 12.7732 14.801 12.777 14.8435C12.6808 14.8165 12.6143 14.8072 12.5779 14.6981L12.5513 14.6848C12.4933 14.6556 12.4576 14.6096 12.4398 14.5609L12.4363 14.5591C12.2778 14.4797 12.2853 14.2757 12.3699 14.2293C12.3694 14.2227 12.369 14.2158 12.369 14.2084C12.369 14.174 12.3651 14.1793 12.3859 14.1531C12.45 14.058 12.485 14.0162 12.5885 13.9611C12.6982 13.9014 12.8946 13.8464 13.0188 13.8519C13.1358 13.8583 13.2515 13.9022 13.3663 13.9022C13.4909 13.9022 13.5213 13.8886 13.5985 13.7883C13.714 13.6376 13.8818 13.2717 13.9459 13.0879C14.0055 12.9174 14.0247 12.8136 14.0387 12.6372C14.0505 12.4885 13.9524 12.3544 13.901 12.2211C13.8277 12.0362 13.6908 11.8192 13.5895 11.645L13.4322 11.3685C13.3453 11.4954 13.2552 11.7394 13.2397 11.8852C13.2251 12.0234 13.2847 12.0736 13.2375 12.2295C13.1785 12.4252 13.1989 12.3514 13.0078 12.4586C12.8343 12.5564 12.1714 12.9531 12.1032 13.116C12.0968 13.1315 12.0611 13.2237 12.0934 13.2358L12.1318 13.2446C12.1556 13.366 12.0736 13.3844 11.9652 13.376C11.9124 13.3725 11.8552 13.3518 11.8153 13.3146C11.8144 13.315 11.8136 13.3159 11.8127 13.3164C11.8096 13.3185 11.8056 13.3212 11.8035 13.3246C11.7561 13.4025 11.752 13.4261 11.6804 13.5006C11.5305 13.6572 11.4054 13.6034 11.2327 13.6445C11.124 13.6717 10.8469 13.7255 10.7448 13.6982C10.7063 13.6875 10.6661 13.6735 10.6278 13.6569C10.6214 13.6755 10.6164 13.691 10.6213 13.7013L10.6484 13.8155L10.5359 13.7848C10.479 13.7563 10.4453 13.7104 10.4302 13.6624C10.4187 13.6559 10.4082 13.6487 10.3986 13.6408L10.3878 13.6472L10.3918 13.635C10.3628 13.6095 10.343 13.5787 10.331 13.5467C10.1983 13.4758 10.1912 13.3132 10.25 13.2482C10.2457 13.1856 10.2587 13.125 10.2937 13.0708C10.3773 12.9412 10.5573 12.8942 10.7014 12.8779C10.804 12.8663 11.0557 12.8622 11.1568 12.9147C11.388 12.9704 11.3901 12.8978 11.5531 12.765C11.7666 12.5903 11.9553 12.3407 12.1548 12.1466C12.2662 12.0367 12.3297 11.93 12.3458 11.7711C12.3646 11.5795 12.2095 11.2031 12.1255 11.0253C12.0653 10.899 12.0221 10.718 11.9974 10.5716C11.5348 10.9182 11.0953 11.5096 10.6548 11.7707C10.3529 12.0409 10.0826 12.1672 9.62178 12.147L9.51705 12.1613C9.30868 12.1898 9.09569 12.2021 8.88531 12.1963C8.86764 12.3057 8.83425 12.4017 8.78341 12.5151L8.77116 12.5442C8.67271 12.7635 8.50413 13.0277 8.38273 13.24C8.30288 13.3806 8.20845 13.5327 8.1371 13.6775C8.10223 13.7442 8.05963 13.8593 8.05963 13.9353C8.05963 13.9522 8.06182 13.9789 8.07531 13.992C8.12497 14.0421 8.20307 14.0275 8.26713 14.0275C8.20691 14.1278 8.17742 14.1796 8.0517 14.2022C8.00544 14.2111 7.94531 14.2137 7.89604 14.1962C7.8576 14.2907 7.7577 14.4018 7.73126 14.4307C7.5502 14.6286 7.31474 14.6425 7.0667 14.6696C7.01294 14.677 6.96027 14.6904 6.90734 14.7049C6.72043 14.7517 6.62077 14.68 6.46114 14.6593V14.6586ZM8.8435 10.884C8.8435 10.3887 9.24584 9.98566 9.74174 9.98566C10.2369 9.98566 10.6404 10.3887 10.6404 10.884C10.6404 11.3798 10.2369 11.7831 9.74174 11.7831C9.24584 11.7831 8.8435 11.3798 8.8435 10.884ZM5.69909 8.18136L5.7467 8.21759C5.768 8.21065 5.78764 8.20384 5.81382 8.20332C5.84271 8.20245 5.8911 8.21148 5.91667 8.19838C6.02502 8.14344 5.98631 8.04923 5.89668 8.0271C5.87979 8.06987 5.83939 8.10024 5.7899 8.10024C5.78113 8.10024 5.77275 8.09937 5.76472 8.09763C5.74993 8.11408 5.73012 8.12638 5.70616 8.13297C5.70053 8.13428 5.6949 8.13559 5.68936 8.13603C5.69023 8.13864 5.69067 8.14091 5.6911 8.14283L5.69909 8.18136Z" fill="#1B1918"/>
<path fill-rule="evenodd" clip-rule="evenodd" d="M8.90723 10.8839C8.90723 11.3471 9.28347 11.7126 9.7415 11.7178C10.2016 11.7126 10.5759 11.3488 10.5759 10.8839C10.5759 10.4247 10.2004 10.05 9.7415 10.05C9.28203 10.05 8.90723 10.4247 8.90723 10.8839ZM8.95859 10.8839C8.95859 11.3187 9.31166 11.6617 9.7415 11.6665C10.1732 11.6617 10.5244 11.3201 10.5244 10.8839C10.5244 10.4531 10.1721 10.1014 9.7415 10.1014C9.31035 10.1014 8.95859 10.4531 8.95859 10.8839Z" fill="white"/>
<path fill-rule="evenodd" clip-rule="evenodd" d="M10.9436 10.8841C10.9436 11.5467 10.4008 12.086 9.74178 12.086C9.08229 12.086 8.54004 11.5479 8.54004 10.8841C8.54004 10.4779 8.74209 10.1186 9.05105 9.90132H9.05191C9.11039 9.86074 9.17101 9.82456 9.2366 9.7938L9.23616 9.79511C9.25012 9.78917 9.26417 9.78241 9.27809 9.77647V9.77517C9.49619 9.68436 9.73873 9.65979 9.97084 9.70517C10.2331 9.75562 10.4745 9.89474 10.6505 10.0979L10.6497 10.0987C10.6581 10.1086 10.6665 10.1186 10.6746 10.1285L10.675 10.1281C10.7247 10.1885 10.7681 10.2545 10.8048 10.3245L10.8048 10.3253C10.8309 10.3757 10.8398 10.3887 10.8732 10.4817L10.8735 10.4808C10.9059 10.5711 10.9262 10.6649 10.9363 10.7599L10.9372 10.7595C10.9411 10.8004 10.9436 10.842 10.9436 10.8841ZM8.87535 10.8841C8.87535 10.4063 9.26343 10.0177 9.74178 10.0177C10.2194 10.0177 10.6086 10.4063 10.6086 10.8841C10.6086 11.3624 10.2194 11.7515 9.74178 11.7515C9.26343 11.7515 8.87535 11.3624 8.87535 10.8841Z" fill="#FFCB00"/>
<path fill-rule="evenodd" clip-rule="evenodd" d="M6.33916 14.5338C6.2621 14.4972 6.23933 14.7119 6.38491 14.785C6.33211 14.6728 6.49063 14.6063 6.33916 14.5338Z" fill="white"/>
<path fill-rule="evenodd" clip-rule="evenodd" d="M6.10401 14.319C6.04169 14.2887 6.02285 14.4633 6.14128 14.5227C6.09843 14.432 6.22715 14.3779 6.10401 14.319Z" fill="white"/>
<path fill-rule="evenodd" clip-rule="evenodd" d="M6.211 14.3937C6.14515 14.3624 6.12613 14.5457 6.25023 14.6084C6.20485 14.5126 6.34065 14.4555 6.211 14.3937Z" fill="white"/>
<path fill-rule="evenodd" clip-rule="evenodd" d="M4.91209 11.6415C4.88556 11.7 5.04789 11.7138 5.10082 11.6022C5.01708 11.6444 4.96402 11.5253 4.91209 11.6415Z" fill="white"/>
<path fill-rule="evenodd" clip-rule="evenodd" d="M4.78448 11.754C4.75476 11.8206 4.93864 11.8355 4.99834 11.7095C4.90294 11.7575 4.84339 11.6231 4.78448 11.754Z" fill="white"/>
<path fill-rule="evenodd" clip-rule="evenodd" d="M4.66422 11.8572C4.63586 11.9199 4.81062 11.9346 4.86779 11.8146C4.7772 11.8602 4.72052 11.7327 4.66422 11.8572Z" fill="white"/>
<path fill-rule="evenodd" clip-rule="evenodd" d="M10.5295 13.5377C10.471 13.5098 10.4539 13.672 10.5643 13.7272C10.524 13.642 10.6438 13.5923 10.5295 13.5377Z" fill="white"/>
<path fill-rule="evenodd" clip-rule="evenodd" d="M10.3264 13.288C10.2643 13.2581 10.2456 13.4319 10.3641 13.492C10.3214 13.4007 10.4496 13.3467 10.3264 13.288Z" fill="white"/>
<path fill-rule="evenodd" clip-rule="evenodd" d="M10.4306 13.397C10.3654 13.3659 10.3452 13.5489 10.4704 13.6116C10.4249 13.5156 10.5606 13.459 10.4306 13.397Z" fill="white"/>
<path fill-rule="evenodd" clip-rule="evenodd" d="M12.6743 14.5693C12.6171 14.5419 12.5991 14.7039 12.7098 14.7592C12.6695 14.6742 12.7894 14.6242 12.6743 14.5693Z" fill="white"/>
<path fill-rule="evenodd" clip-rule="evenodd" d="M12.4239 14.287C12.3586 14.2557 12.3383 14.4389 12.4635 14.5016C12.4182 14.4057 12.5543 14.3489 12.4239 14.287Z" fill="white"/>
<path fill-rule="evenodd" clip-rule="evenodd" d="M12.5403 14.4131C12.4745 14.3816 12.4548 14.565 12.5795 14.6277C12.5345 14.5317 12.6699 14.4746 12.5403 14.4131Z" fill="white"/>
<path fill-rule="evenodd" clip-rule="evenodd" d="M10.4124 13.3684C10.4406 13.3567 10.4762 13.3702 10.5069 13.4195C10.5535 13.3367 10.7065 13.2069 10.9143 13.2362C10.7552 13.2264 10.5453 13.3577 10.4977 13.5082C10.5192 13.4955 10.5783 13.5051 10.6008 13.5729C10.6536 13.6013 10.7176 13.6241 10.7617 13.6364C10.8365 13.6565 11.0838 13.6158 11.2176 13.5823C11.3511 13.5505 11.5055 13.5912 11.6349 13.4559C11.7645 13.3211 11.7225 13.3005 11.7772 13.2633C11.8312 13.2264 11.8312 13.2264 11.8312 13.2264C11.8312 13.2264 11.8563 13.3045 11.9695 13.3122C12.0825 13.3211 12.0776 13.2961 12.0776 13.2961C12.0776 13.2961 11.9695 13.2713 12.0448 13.0909C12.1201 12.9112 12.7507 12.5302 12.9767 12.4027C13.2023 12.2761 13.1311 12.3625 13.1769 12.2104C13.2229 12.0587 13.1599 12.0391 13.1769 11.8778C13.1938 11.7191 13.2943 11.4487 13.3904 11.3173L13.39 11.3143C13.2823 11.1187 13.1915 10.9521 13.147 10.774C13.0963 10.5785 13.0103 10.3157 12.593 10.3209C12.3921 10.3226 12.2095 10.4086 12.0606 10.5083L12.0531 10.5187C12.0531 10.5187 12.0989 10.8217 12.1825 10.9972C12.2661 11.1739 12.4292 11.5673 12.4087 11.7763C12.3875 11.9849 12.2871 12.1039 12.1992 12.1906C12.1113 12.276 11.7436 12.6897 11.5931 12.8128C11.4429 12.9354 11.4135 13.0424 11.1335 12.973C11.0349 12.9111 10.2575 12.8632 10.3156 13.2667C10.3409 13.2457 10.3912 13.2824 10.3978 13.3072C10.4521 13.135 10.6181 13.0717 10.7519 13.0905C10.5611 13.1001 10.4377 13.1954 10.4124 13.3684Z" fill="white"/>
<path fill-rule="evenodd" clip-rule="evenodd" d="M10.976 10.8842C10.976 11.2003 10.8573 11.4887 10.6621 11.7075C11.2643 11.3308 11.8907 10.2517 12.6337 10.2436C13.0847 10.2388 13.1634 10.5518 13.2053 10.7205C13.2518 10.9058 13.3476 11.0828 13.4582 11.2881L13.4804 11.3285L13.6425 11.6132C13.7661 11.826 13.9061 12.0669 13.9579 12.1976C14.0153 12.3464 14.1132 12.4729 14.0998 12.6418C14.0863 12.8126 14.0774 12.8972 14.0037 13.1083C13.928 13.3253 13.7379 13.7075 13.6466 13.8264C13.5532 13.9478 13.5028 13.965 13.3644 13.965C13.2444 13.965 13.1326 13.9211 13.0137 13.9146C12.923 13.9107 12.7366 13.951 12.6166 14.0163C12.5201 14.0676 12.493 14.104 12.4357 14.189C12.4322 14.1936 12.4303 14.1996 12.4303 14.208C12.4303 14.2213 12.4294 14.2361 12.4405 14.2584C12.4495 14.2602 12.4941 14.3125 12.5034 14.3198C12.6053 14.1289 12.7052 14.1186 12.8858 14.1218C12.7248 14.1442 12.575 14.1912 12.5266 14.3786C12.566 14.393 12.6096 14.4091 12.6189 14.45C12.6896 14.2754 12.8815 14.2775 13.0254 14.2337C12.9655 14.2712 12.6197 14.3402 12.6433 14.5333C12.6852 14.5329 12.7529 14.5744 12.7467 14.6163C12.7515 14.621 12.7611 14.6303 12.7655 14.6337C12.7893 14.6396 12.9154 14.6671 13.0217 14.655C13.0833 14.6488 13.1517 14.6303 13.2315 14.609C13.4313 14.5565 13.6311 14.5529 13.7927 14.4147C13.9196 14.3056 13.9734 14.1688 13.9742 14.1675L13.9865 14.1389C14.044 14.214 14.2574 14.1719 14.2937 14.0883C14.218 14.0883 14.1494 14.1231 14.1317 14.0133C14.1313 14.0093 14.1308 14.0047 14.1308 14.0005C14.1308 13.902 14.2726 13.6956 14.498 13.3739C14.7081 13.0745 14.9349 12.6878 14.9349 12.5853C14.9349 12.3692 14.6912 12.2541 14.6912 11.9911C14.6912 11.8944 14.7171 11.6875 14.7473 11.4481C14.7888 11.1268 14.8351 10.7632 14.8351 10.5386C14.8351 10.2637 14.8077 10.0302 14.7663 9.75846C14.7641 9.73454 14.6754 9.70208 14.6717 9.65647C14.67 9.62776 14.6969 9.59412 14.8438 9.51103C15.1608 9.33185 15.3495 9.06675 15.3753 8.76242C15.4077 8.38644 15.29 8.03275 15.0158 7.68191C14.7701 7.36562 14.3651 7.07098 13.8152 6.80609C13.4431 6.62766 12.7593 6.22436 12.5064 5.9028C12.2326 5.55588 12.3767 5.29256 12.4453 5.16553C12.4777 5.10728 12.6265 4.81093 12.4339 4.69957C12.2826 4.61243 12.058 4.8396 11.9458 5.02899C11.8716 5.15524 11.6511 5.60793 11.9194 6.15554C12.1845 6.69517 12.6953 6.96145 13.19 7.23597C13.6531 7.48899 14.3525 7.87151 14.5403 8.11772C14.746 8.38675 14.9109 8.66777 14.7231 8.90281C14.5512 9.11803 14.1967 9.02337 13.9218 8.83381C13.657 8.65106 13.5002 8.55741 13.2687 8.48602C12.9936 8.4021 12.7151 8.36907 12.5042 8.39604C12.3387 8.4179 12.0059 8.49571 11.6423 8.77394L11.5881 8.81575C11.4769 8.90171 11.4258 8.94177 11.2538 8.99798C11.252 9.11659 11.2459 9.24174 11.2286 9.36969C11.361 9.12405 11.577 9.25932 11.6323 9.46189C11.3828 9.39971 11.4008 9.60446 11.376 9.81278C11.3675 9.89042 11.3581 9.96294 11.345 10.0179C11.2816 10.2675 11.1412 10.5342 10.9663 10.7263C10.9726 10.7777 10.976 10.8308 10.976 10.8842Z" fill="white"/>
<path fill-rule="evenodd" clip-rule="evenodd" d="M7.35547 5.15933C7.58989 5.04627 7.87026 5.21471 8.04638 5.35662C8.48201 5.72798 8.79202 6.50547 8.87463 7.43565C8.88802 7.58245 8.89443 7.73365 8.89443 7.88979C8.89443 8.26045 8.85756 8.65516 8.78355 9.06867C8.81955 9.09245 8.85642 9.11196 8.8933 9.12819C8.96945 8.71123 9.00833 8.31085 9.00833 7.93142C9.00833 7.76084 9.00012 7.59406 8.98489 7.43308C8.88889 6.46432 8.5617 5.6887 8.08902 5.30517C7.91146 5.17303 7.56812 5.00101 7.35547 5.15933Z" fill="#FFCB00"/>
<path fill-rule="evenodd" clip-rule="evenodd" d="M8.52746 5.35517C8.29186 5.0878 7.92055 4.80067 7.54286 4.86988C7.34946 4.90963 7.22919 5.06694 7.22168 5.24647C7.45977 4.92682 7.85395 5.08383 8.11241 5.27566C8.59295 5.66613 8.92444 6.45069 9.0221 7.42888C9.07843 8.01384 9.03348 8.56146 8.93045 9.13822C9.01842 9.17178 9.1147 9.18836 9.2083 9.20044C9.43539 8.01838 9.34064 7.21532 8.86268 6.15021C8.75057 5.88127 8.62809 5.63026 8.52746 5.35517Z" fill="white"/>
<path fill-rule="evenodd" clip-rule="evenodd" d="M9.10437 9.82414C9.14936 9.79695 9.19675 9.77239 9.24532 9.75122C9.36829 9.24363 9.47956 8.67415 9.47956 8.08849C9.47956 7.38038 9.28189 6.74514 8.98297 6.10581C8.81047 5.71341 8.56128 5.33185 8.55522 4.8891C8.56264 4.54868 8.73392 4.02546 9.15721 4.05976C8.79894 3.94997 8.56264 4.3908 8.51551 4.67597C8.48095 4.88692 8.50338 5.11894 8.55815 5.34298C8.64455 5.61811 8.79732 5.90337 8.89459 6.13635C9.28445 7.00684 9.43505 7.69008 9.32967 8.64086L9.32618 8.67009C9.27935 9.05986 9.19893 9.44384 9.10437 9.82414Z" fill="#FFCB00"/>
<path fill-rule="evenodd" clip-rule="evenodd" d="M9.2865 9.73449C9.3729 9.6998 9.4648 9.67536 9.55985 9.66131C9.66318 9.23035 9.75062 8.79921 9.75839 8.35563V8.35519C9.75857 8.34524 9.75883 8.33442 9.75883 8.32407C9.75883 7.68622 9.61207 7.05687 9.41273 6.45528C9.37289 6.33131 9.34737 6.2693 9.31364 6.1462L9.11653 5.73923C8.96096 5.43119 8.81408 5.13913 8.81211 4.89C8.8184 4.57668 8.95154 4.20323 9.28427 4.1228C8.81408 3.96492 8.59837 4.50891 8.59082 4.88969C8.59619 5.32738 8.84549 5.70367 9.01524 6.09165C9.18757 6.4593 9.37478 6.89904 9.45407 7.36941C9.60226 8.19582 9.45668 9.02464 9.2865 9.73449Z" fill="white"/>
<path fill-rule="evenodd" clip-rule="evenodd" d="M9.60146 9.65634C9.64235 9.65158 9.68428 9.64857 9.726 9.64818C9.82043 9.24728 9.91107 8.80091 9.91107 8.34088C9.91107 8.17623 9.89985 8.00941 9.87245 7.84262C9.79163 7.35597 9.70143 6.87544 9.53102 6.41183C9.45544 6.20459 9.3776 5.99212 9.3776 5.77079C9.3776 5.42836 9.57261 4.85213 10.0127 5.00473C9.3552 4.73369 9.20439 5.72667 9.36899 6.1912L9.44959 6.44316C9.65111 7.05352 9.79917 7.68741 9.79738 8.33477V8.3565V8.35737C9.79001 8.79724 9.70322 9.2279 9.60146 9.65634Z" fill="#FFCB00"/>
<path fill-rule="evenodd" clip-rule="evenodd" d="M9.76239 9.64769C9.8364 9.64944 9.9095 9.65681 9.97941 9.67099C10.0817 9.31456 10.1787 8.90725 10.1787 8.50765C10.1787 8.46005 10.1783 8.41288 10.1748 8.36557C10.1541 8.03908 10.0891 7.7456 10.0192 7.44843C9.98176 7.28392 9.9414 7.07031 9.9414 6.85548C9.9414 6.82441 9.94227 6.79321 9.94401 6.76324C9.92848 6.71187 9.91298 6.6606 9.89548 6.60998C9.86127 6.50324 9.82349 6.40458 9.78596 6.30761C9.64519 5.94088 9.47613 5.12703 10.1075 5.09129C9.65823 4.78574 9.41211 5.41587 9.41211 5.7696C9.41211 5.98491 9.48953 6.19499 9.56415 6.39864C9.7353 6.86435 9.82706 7.34698 9.90696 7.83629C9.93454 8.00499 9.94646 8.17392 9.94646 8.34074C9.94646 8.80042 9.8563 9.24679 9.76239 9.64769Z" fill="white"/>
<path fill-rule="evenodd" clip-rule="evenodd" d="M10.0165 9.67869C10.0474 9.68572 10.0786 9.69392 10.1084 9.70305C10.2089 9.34862 10.3044 8.94262 10.3044 8.53033C10.3044 8.47395 10.3026 8.41735 10.299 8.36106C10.2912 8.10268 10.2283 7.84338 10.1672 7.59355C10.1012 7.32859 10.0386 7.07365 10.0386 6.82221C10.0386 6.62418 10.0857 6.33954 10.2061 6.17799C10.2983 6.05895 10.4414 6.0112 10.5847 6.0513C10.5088 6.0119 10.4321 6.01334 10.3486 6.04118C10.0602 6.14508 9.97852 6.58534 9.97852 6.85585C9.97852 7.06772 10.0182 7.27875 10.0552 7.44039C10.1265 7.73904 10.1902 8.03429 10.2122 8.36332C10.2152 8.41202 10.2166 8.45976 10.2166 8.50803C10.2166 8.91076 10.1185 9.32021 10.0165 9.67869Z" fill="#FFCB00"/>
<path fill-rule="evenodd" clip-rule="evenodd" d="M10.1405 9.7143C10.1868 9.73014 10.2321 9.74877 10.2754 9.7695C10.4256 9.47294 10.5133 9.20728 10.5409 8.95963C10.5707 8.70474 10.5448 8.44531 10.5156 8.22468C10.4923 8.05873 10.4648 7.86196 10.4716 7.6666C10.4556 7.60406 10.4396 7.5428 10.4236 7.48197C10.3321 7.13326 10.2532 6.83159 10.3169 6.57587C10.3543 6.38142 10.4757 6.12156 10.7237 6.1573C10.6502 6.1086 10.5409 6.05427 10.4301 6.07696C10.3321 6.09433 10.2689 6.15346 10.2321 6.19949C9.95759 6.57037 10.1049 7.20011 10.1993 7.585C10.2617 7.83687 10.3257 8.09761 10.3332 8.3593C10.365 8.83404 10.2563 9.30804 10.1405 9.7143Z" fill="white"/>
<path fill-rule="evenodd" clip-rule="evenodd" d="M10.3066 9.7852C10.334 9.79894 10.3599 9.81417 10.3863 9.82979C10.5416 9.52197 10.6306 9.24112 10.6591 8.97593C10.6945 8.71711 10.6551 8.4552 10.6173 8.19922C10.5899 8.01586 10.5628 7.83943 10.5628 7.66575C10.5628 7.39773 10.652 6.99072 11.0305 7.12289C10.9805 7.09296 10.9223 7.07642 10.8483 7.08096C10.5591 7.08912 10.5052 7.50778 10.5052 7.72606C10.5052 7.89616 10.5295 8.0646 10.5507 8.21982C10.5709 8.37177 10.59 8.54256 10.59 8.71816C10.59 8.79963 10.5861 8.88193 10.5758 8.96323C10.5478 9.21559 10.459 9.48479 10.3066 9.7852Z" fill="#FFCB00"/>
<path fill-rule="evenodd" clip-rule="evenodd" d="M10.417 9.85006C10.4753 9.88824 10.53 9.93161 10.5805 9.97809C10.6787 9.82461 10.7487 9.67904 10.7931 9.53412C10.8662 9.31083 10.883 9.08356 10.901 8.84229C10.9061 8.76727 10.9122 8.69108 10.9195 8.61397C10.8905 8.18017 10.7832 7.79891 10.8025 7.50697C10.8183 7.26181 10.8925 7.21085 11.1323 7.21735C10.7484 6.93553 10.5995 7.37885 10.5995 7.6659C10.5995 7.83704 10.6265 8.01151 10.6534 8.19448C10.6912 8.45404 10.7308 8.71861 10.6958 8.98057C10.6664 9.25195 10.5759 9.53626 10.417 9.85006Z" fill="white"/>
<path fill-rule="evenodd" clip-rule="evenodd" d="M10.6084 10.0027C10.6299 10.0239 10.65 10.0451 10.6702 10.0679C10.7807 9.89782 10.8582 9.734 10.9058 9.57019C10.9833 9.31752 10.993 9.05836 11.0014 8.80635C11.0066 8.6476 10.9892 8.41946 11.1035 8.28802C11.1567 8.21885 11.2638 8.19795 11.344 8.2244C11.3036 8.20096 11.2546 8.19232 11.2027 8.20511C11.0945 8.22675 10.9997 8.34899 10.9705 8.5012C10.9557 8.6154 10.9473 8.7323 10.939 8.84475C10.9223 9.07682 10.9034 9.31752 10.8299 9.54409C10.7836 9.69403 10.7103 9.84449 10.6084 10.0027Z" fill="#FFCB00"/>
<path fill-rule="evenodd" clip-rule="evenodd" d="M10.6953 10.097C10.7455 10.1581 10.7896 10.2229 10.8273 10.2923C11.0046 10.0319 11.0487 9.74295 11.1805 9.45734L11.1809 9.45647C11.2138 9.26844 11.2205 9.08154 11.2205 8.91292C11.2205 8.85977 11.2197 8.80889 11.2188 8.7601C11.2188 8.59236 11.1927 8.35519 11.4055 8.29929C11.3341 8.23195 11.1951 8.22912 11.1324 8.31133C11.0248 8.43387 11.0432 8.66096 11.038 8.80754C11.0291 9.06155 11.02 9.32412 10.9407 9.58049C10.8921 9.75064 10.811 9.92052 10.6953 10.097Z" fill="white"/>
<path fill-rule="evenodd" clip-rule="evenodd" d="M10.8467 10.3338C10.8591 10.3576 10.8701 10.3819 10.8806 10.4067C10.898 10.3816 10.9143 10.3562 10.9291 10.3301C11.0568 10.1155 11.1303 9.87012 11.1917 9.62915C11.22 9.50134 11.3147 9.22 11.5168 9.31221C11.3152 9.161 11.179 9.53084 11.1488 9.63827C11.0651 9.87745 10.99 10.122 10.8467 10.3338Z" fill="#FFCB00"/>
<path fill-rule="evenodd" clip-rule="evenodd" d="M10.8975 10.4477C10.9253 10.5218 10.9464 10.5988 10.9595 10.6791C11.1217 10.4927 11.2504 10.2464 11.3102 10.0097C11.3242 9.95687 11.3325 9.88404 11.3413 9.80885C11.3592 9.65712 11.3548 9.37513 11.5704 9.41135C11.3958 9.15725 11.2602 9.50212 11.2282 9.63831C11.1648 9.88185 11.091 10.1302 10.9607 10.3482C10.9425 10.3819 10.9215 10.4152 10.8975 10.4477Z" fill="white"/>
<path fill-rule="evenodd" clip-rule="evenodd" d="M8.90392 11.7935C8.65863 11.5673 8.50476 11.2436 8.50476 10.8836C8.50476 10.4531 8.72523 10.0739 9.05932 9.85276C9.10527 9.65063 9.15834 9.44776 9.19818 9.24445C8.75477 9.21146 8.50419 8.96481 8.32916 8.56754C8.12991 8.16511 8.02388 7.79005 7.69751 7.44635C7.60867 7.35341 7.36172 7.16415 7.35879 7.16227L7.35287 7.15716L7.35243 7.14918C7.35243 7.14831 7.3478 7.07648 7.33435 6.99208C7.32083 6.9107 7.31454 6.86632 7.23538 6.82844C7.15264 6.78908 7.09479 6.79946 7.02833 6.82888C6.96051 6.85789 6.8821 6.96716 6.8804 6.96729L6.87442 6.97642L6.86381 6.97467C6.86337 6.97467 6.77283 6.96114 6.67041 6.95678C6.45039 6.9474 6.19672 6.97563 6.06401 7.16519C5.99467 7.2653 5.93332 7.29284 5.81441 7.31872L5.72391 7.34167C5.64798 7.36754 5.58671 7.45276 5.51549 7.49771C5.46897 7.52577 5.36816 7.57508 5.36816 7.64154C5.36816 7.68749 5.38602 7.7917 5.42564 7.81274C5.44401 7.82277 5.46504 7.82984 5.47333 7.81492C5.4941 7.77744 5.52872 7.73729 5.52714 7.70465C5.55154 7.76264 5.51549 7.81082 5.49271 7.84538C5.47691 7.86933 5.43965 7.85044 5.42424 7.84568C5.42686 7.87448 5.43428 7.91747 5.45702 7.95037C5.4818 7.98663 5.50284 8.01704 5.53836 8.03302C5.54307 8.09402 5.58492 8.123 5.62834 8.15477C5.62263 8.12758 5.60626 8.07945 5.61429 8.05405C5.6156 8.05012 5.61604 8.04572 5.61778 8.04171C5.62302 8.04083 5.62856 8.03996 5.63406 8.03908C5.64366 8.06369 5.66635 8.07692 5.68925 8.07098C5.71561 8.0637 5.73115 8.04349 5.73115 8.01399V8.01094C5.73115 8.00745 5.73114 8.00317 5.72983 7.99898L5.73905 7.99396C5.74682 8.02067 5.76558 8.0366 5.78888 8.0366C5.81821 8.0366 5.84094 8.01294 5.84094 7.98161V7.979C5.84094 7.97284 5.84095 7.96616 5.84007 7.9594C5.84225 7.95922 5.84399 7.95896 5.84696 7.95853C6.03438 7.94836 6.13088 8.15944 5.94411 8.25422C5.89973 8.27687 5.85504 8.26496 5.81406 8.26596C5.78627 8.2664 5.76104 8.27966 5.73263 8.28668L5.63676 8.21364L5.66604 8.31466C5.65758 8.3195 5.645 8.32556 5.645 8.33713C5.64483 8.34442 5.64972 8.36392 5.69667 8.40018C5.72063 8.41869 5.73542 8.43706 5.74777 8.45373C5.7647 8.4769 5.7791 8.49527 5.81589 8.51382C5.8957 8.55392 5.96374 8.53206 6.0491 8.50514C6.1112 8.48602 6.15496 8.45779 6.2044 8.41494C6.24791 8.3778 6.2898 8.34263 6.33514 8.3435C6.47487 8.34743 6.61748 8.44256 6.72797 8.60572C6.79879 8.71124 6.85478 8.79376 6.90942 9.09966C6.98945 9.54027 6.97675 9.69557 6.96017 9.89264C6.94747 10.0452 6.93281 10.2183 6.95842 10.5672C7.00538 11.208 7.20253 11.5353 7.80979 11.785C7.65453 11.1763 7.92124 10.8384 8.08462 10.672C7.76039 11.0411 7.83256 11.7061 7.90273 11.8948C7.90361 11.904 7.92526 12.1285 7.89803 12.2335C7.88123 12.2978 7.77427 12.6504 7.67151 12.9923L7.50311 13.5523C7.42997 13.7982 7.357 14.0075 7.20702 14.0726C7.11795 14.1108 7.01026 14.0966 6.87747 14.0302C6.73482 13.9582 6.6773 13.9623 6.67695 13.9623C6.43018 13.9001 6.09653 14.0125 6.06886 14.2923C6.10517 14.2729 6.16753 14.3148 6.16469 14.3283C6.2425 14.0577 6.4822 14.1228 6.51183 14.136C6.43926 14.151 6.25106 14.1003 6.2017 14.3545C6.26589 14.3725 6.28526 14.3922 6.29953 14.4507C6.36346 14.2804 6.56458 14.3094 6.66988 14.3418C6.55852 14.336 6.3776 14.3379 6.31873 14.4984C6.36468 14.5105 6.41931 14.5319 6.43279 14.5918C6.59892 14.6049 6.71003 14.6876 6.89029 14.6424C6.94366 14.6278 6.99957 14.6137 7.05713 14.6057C7.28466 14.5809 7.51523 14.5705 7.68324 14.3868C7.86329 14.1904 7.84566 14.1238 7.84527 14.1235L7.87839 14.1082C7.8797 14.11 7.91199 14.1632 8.03854 14.1389C8.10766 14.1264 8.14039 14.1053 8.15628 14.0894C8.12263 14.0894 8.07328 14.0798 8.02921 14.0354C8.00464 14.0112 7.99507 13.9749 7.99507 13.934C7.99507 13.8193 8.0683 13.6688 8.07956 13.6473C8.10221 13.6013 8.20632 13.4192 8.32646 13.2075C8.49403 12.9144 8.68294 12.5822 8.71201 12.5175L8.72396 12.4891C8.77 12.3865 8.82747 12.2589 8.83528 12.0398C8.83991 11.9219 8.87124 11.8433 8.9034 11.7932L8.90392 11.7935ZM6.34788 7.34538C6.34788 7.33647 6.3505 7.32731 6.35369 7.31901C6.3533 7.32382 6.35063 7.32679 6.35063 7.33054C6.35063 7.36785 6.3834 7.39717 6.42424 7.39717C6.4499 7.39717 6.47121 7.3846 6.48408 7.36654C6.47531 7.39508 6.44947 7.41616 6.41857 7.41616C6.37947 7.41616 6.34788 7.38391 6.34788 7.34538ZM6.53408 7.34581C6.54373 7.35763 6.54975 7.37007 6.54975 7.38334C6.54975 7.43077 6.4914 7.46931 6.41984 7.46931C6.34788 7.46931 6.29015 7.43077 6.29015 7.38334C6.29015 7.37073 6.29478 7.35947 6.30276 7.34813C6.30407 7.4107 6.35509 7.4615 6.41849 7.4615C6.48216 7.4615 6.53408 7.40974 6.53408 7.34581ZM6.24454 7.37527C6.25043 7.30571 6.32558 7.25243 6.41984 7.25243C6.48398 7.25243 6.54212 7.27844 6.57314 7.32077C6.57707 7.32295 6.70336 7.38133 6.70336 7.38133L6.69445 7.4056C6.66931 7.3994 6.62641 7.39303 6.61393 7.40014L6.58593 7.42479L6.58854 7.42043C6.56711 7.47607 6.49777 7.51534 6.41984 7.51534C6.39317 7.51534 6.36809 7.50967 6.34505 7.50142C6.34112 7.50098 6.26252 7.48794 6.26252 7.48794L6.18311 7.48576L6.15775 7.42968L6.17267 7.42619C6.17311 7.42619 6.20375 7.41799 6.22351 7.40054C6.23111 7.39499 6.23787 7.38543 6.24454 7.37527ZM7.01472 6.91506C7.07982 6.82631 7.21644 6.8541 7.24939 6.94928C7.27322 7.01844 7.28849 7.15633 7.24245 7.1943C7.18681 7.18736 7.0985 7.17973 7.05713 7.20473C7.1177 7.11021 7.23443 7.22956 7.20642 7.01399C7.19503 6.92471 7.09977 6.85847 7.01472 6.91506ZM7.37175 7.71887C7.45104 7.91223 7.35055 8.22677 7.15977 8.31872C7.09043 8.35131 6.8166 8.38208 6.63956 8.27896C6.75546 8.3055 7.04046 8.33691 7.14716 8.27451C7.3379 8.18383 7.39955 7.91384 7.37175 7.71887Z" fill="white"/>
<path fill-rule="evenodd" clip-rule="evenodd" d="M4.61037 11.4064C4.61068 11.4787 4.63691 11.6873 4.75128 11.765C4.74509 11.7259 4.81666 11.666 4.84865 11.678C4.85881 11.6633 4.84179 11.6549 4.84284 11.6418C4.77136 11.5165 4.77327 11.4266 4.81643 11.3037C4.79723 11.3886 4.80631 11.5148 4.87884 11.6437C4.89175 11.6053 4.92688 11.5423 4.99015 11.569C5.04221 11.4773 4.99277 11.2794 5.00464 11.2229C5.04728 11.0254 5.28031 10.9936 5.44792 11.0124L5.46655 11.0482C5.46655 11.0482 5.42628 11.0794 5.42628 11.1742C5.42628 11.2674 5.4625 11.286 5.4625 11.286C5.4625 11.286 5.47542 11.1603 5.5836 11.1329C5.69081 11.106 5.81194 11.1743 5.86575 11.196C5.91964 11.2185 6.62335 11.6177 6.9643 11.7747C7.10913 11.8413 7.40468 11.9326 7.66075 11.7707C7.21699 11.6135 6.97167 11.2736 6.90726 10.7655C6.8164 10.7682 6.67196 10.7668 6.54279 10.7384C6.33656 10.6936 5.88831 10.5677 5.52961 10.5635C5.17051 10.559 4.97794 10.6085 4.83013 10.6982C4.68181 10.7883 4.41685 11.0632 4.37662 11.3639C4.36274 11.4659 4.43726 11.8756 4.63385 11.8576C4.65227 11.809 4.66939 11.7799 4.70862 11.7776C4.61065 11.6542 4.57058 11.513 4.61037 11.4064Z" fill="white"/>
<path fill-rule="evenodd" clip-rule="evenodd" d="M9.50799 12.0978C9.29068 12.0564 9.09295 11.9577 8.9321 11.8187C8.904 11.864 8.87652 11.935 8.87259 12.0412C8.87172 12.0732 8.86909 12.1028 8.86621 12.1317C9.06062 12.1381 9.28112 12.1291 9.50799 12.0978Z" fill="white"/>
<path fill-rule="evenodd" clip-rule="evenodd" d="M8.99125 10.9391C9.00369 11.1098 9.07302 11.2631 9.18016 11.3821C9.13966 11.3236 9.13429 11.2442 9.20394 11.174C9.24505 11.1328 9.54985 10.9267 9.62395 11.0001C9.69425 11.07 9.49715 11.3722 9.4495 11.4198C9.38352 11.4865 9.2917 11.4766 9.22738 11.43C9.35039 11.5445 9.51203 11.6184 9.6899 11.6318C9.6223 11.6141 9.56574 11.5597 9.56574 11.4684C9.56574 11.4123 9.63635 11.0478 9.74012 11.0478C9.84432 11.0478 9.91388 11.4129 9.91388 11.4684C9.91388 11.5598 9.8572 11.6143 9.7897 11.6319C9.95679 11.6195 10.1092 11.5546 10.2289 11.4526C10.1694 11.484 10.0935 11.4827 10.0303 11.4198C9.99095 11.3801 9.78218 11.0728 9.85588 11.0001C9.93029 10.9267 10.2372 11.1346 10.2766 11.174C10.3403 11.2377 10.341 11.3142 10.3085 11.3739C10.4107 11.2566 10.4766 11.1071 10.489 10.941C10.4691 11.0055 10.4143 11.0584 10.3247 11.0584C10.268 11.0584 9.90416 10.9878 9.90416 10.8835C9.90416 10.7795 10.2696 10.7097 10.3247 10.7097C10.4145 10.7097 10.4692 10.7625 10.489 10.827C10.4767 10.663 10.4112 10.5135 10.3098 10.3955C10.3207 10.4178 10.327 10.4432 10.327 10.4706C10.327 10.5169 10.309 10.5607 10.2766 10.5938C10.2271 10.6434 9.92889 10.841 9.85588 10.7676C9.78279 10.6943 9.99095 10.387 10.0303 10.3474C10.0897 10.2886 10.1687 10.2847 10.2302 10.3157C10.1117 10.2134 9.96089 10.1472 9.79585 10.135C9.86065 10.1547 9.91388 10.2097 9.91388 10.2999C9.91388 10.3544 9.84432 10.7196 9.74012 10.7196C9.63665 10.7196 9.56574 10.3698 9.56574 10.2999C9.56574 10.2097 9.61903 10.1547 9.68392 10.1351C9.51578 10.1476 9.36278 10.2159 9.24339 10.3215C9.30225 10.2826 9.38125 10.2788 9.4495 10.3474C9.48777 10.3858 9.69805 10.6938 9.62395 10.7676C9.55038 10.8417 9.24308 10.6326 9.20394 10.5938C9.13704 10.5262 9.14564 10.4367 9.19054 10.373C9.07735 10.4946 9.00387 10.6537 8.99121 10.8291C9.0105 10.7637 9.06553 10.7097 9.15625 10.7097C9.21106 10.7097 9.57569 10.7794 9.57569 10.8835C9.57569 10.9878 9.21307 11.0584 9.15625 11.0584C9.06562 11.0584 9.01063 11.0045 8.99125 10.9391ZM9.61448 10.8835C9.61448 10.8146 9.67065 10.7579 9.74012 10.7579C9.80976 10.7579 9.86566 10.8146 9.86566 10.8835C9.86566 10.9532 9.80976 11.0099 9.74012 11.0099C9.67065 11.0099 9.61448 10.9532 9.61448 10.8835Z" fill="#FFCB00"/>
<path fill-rule="evenodd" clip-rule="evenodd" d="M10.0548 11.3959C10.1849 11.5254 10.3817 11.3288 10.252 11.1993C10.2126 11.1599 9.92737 10.9791 9.88024 11.0256C9.83408 11.0711 10.0164 11.3573 10.0548 11.3959ZM9.93885 10.8842C9.93885 10.9502 10.2691 11.0243 10.3247 11.0243C10.5092 11.0243 10.5095 10.7452 10.3247 10.7452C10.2696 10.7452 9.93885 10.8189 9.93885 10.8842ZM10.0548 10.3726C10.0161 10.4116 9.83452 10.6977 9.88051 10.7438C9.92886 10.7924 10.2114 10.6106 10.2518 10.5701C10.2778 10.5435 10.2922 10.5086 10.2922 10.4714C10.2922 10.35 10.1434 10.285 10.0548 10.3726ZM9.60044 10.3006C9.60044 10.3579 9.67148 10.6856 9.74008 10.6856C9.80545 10.6856 9.87911 10.3557 9.87911 10.3006C9.87911 10.1155 9.60044 10.1157 9.60044 10.3006ZM9.22838 10.5698C9.26744 10.6086 9.55305 10.7904 9.59935 10.7437C9.64582 10.6975 9.46369 10.4116 9.42485 10.3726C9.29119 10.2384 9.11073 10.451 9.22838 10.5698ZM9.54092 10.8842C9.54092 10.8189 9.2112 10.7452 9.15622 10.7452C8.97137 10.7452 8.97137 11.0243 9.15622 11.0243C9.21172 11.0243 9.54092 10.9503 9.54092 10.8842ZM9.59948 11.0255C9.55222 10.9787 9.26801 11.1597 9.22851 11.1993C9.09298 11.336 9.31209 11.5101 9.42489 11.3959C9.46381 11.3571 9.64477 11.0705 9.59948 11.0255ZM9.87911 11.4691C9.87911 11.4139 9.80563 11.0832 9.74008 11.0832C9.67471 11.0832 9.60044 11.4139 9.60044 11.4691C9.60044 11.6496 9.87911 11.65 9.87911 11.4691ZM9.64919 10.8842C9.64919 10.9346 9.68955 10.9759 9.74008 10.9759C9.79074 10.9759 9.83089 10.9346 9.83089 10.8842C9.83089 10.8342 9.79018 10.7933 9.74008 10.7933C9.69007 10.7933 9.64919 10.8342 9.64919 10.8842Z" fill="white"/>
</g>
<defs>
<clipPath id="clip0_814_20296">
<rect width="20" height="20" fill="white"/>
</clipPath>
</defs>
</svg>
